<?xml version="1.0" encoding="utf-8"?>
<!-- Generator: Adobe Illustrator 21.0.0, SVG Export Plug-In . SVG Version: 6.00 Build 0)  -->
<svg version="1.1" id="图层_1" xmlns="http://www.w3.org/2000/svg" xmlns:xlink="http://www.w3.org/1999/xlink" x="0px" y="0px"
	 viewBox="0 0 600 600" enable-background="new 0 0 600 600" xml:space="preserve">
<rect x="-1" opacity="0" fill="#39B54A" width="600" height="600"/>
<g>
</g>
<g>
	<polygon fill="#C9C2C0" points="216.796,390.479 416.242,379.542 573,280.786 410.805,215.013 	"/>
	<polygon fill="#DEDBD8" points="54.482,151.337 216.796,246.433 216.796,390.479 54.482,298.244 	"/>
	<polygon fill="#75726F" points="54.536,292.553 216.85,384.621 216.85,390.492 54.536,298.257 	"/>
	<polygon fill="#696B67" points="59.738,212.572 208.117,299.216 208.117,333.758 59.738,249.619 	"/>
	<polygon fill="#696B67" points="59.738,252.824 149.923,304.873 149.923,340.975 59.738,289.871 	"/>
	<polygon fill="#696B67" points="162.285,322.464 207.15,348.799 207.15,384.901 162.285,359.511 	"/>
	<polygon fill="#B5AAA7" points="410.805,276.592 216.796,390.479 216.796,246.433 410.805,135.408 	"/>
	<polygon fill="#47403D" points="410.859,276.605 216.85,390.492 216.85,384.621 410.859,272.772 	"/>
	<polygon fill="#EBEBE3" points="54.482,151.337 240.479,45.462 410.805,135.408 216.796,246.433 	"/>
	<polygon fill="#47403D" points="59.738,249.619 61.241,250.359 61.241,213.477 59.738,212.572 	"/>
	<polygon fill="#47403D" points="59.738,289.871 61.241,290.611 61.241,253.729 59.738,252.824 	"/>
	<polygon fill="#47403D" points="162.285,359.511 163.928,359.298 164.145,323.555 162.285,322.464 	"/>
	<polygon fill="#EFEFED" points="208.117,333.758 208.117,332.01 61.208,249.439 59.738,249.619 	"/>
	<polygon fill="#EFEFED" points="149.923,340.987 149.923,339.239 61.208,289.703 59.738,289.882 	"/>
	<polygon fill="#7E817E" points="208.117,317.352 208.117,316.468 61.241,231.748 61.241,232.312 	"/>
	<polygon fill="#7E817E" points="71.594,255.394 72.535,256.011 72.535,220.267 71.594,219.791 	"/>
	<polygon fill="#7E817E" points="102.36,272.55 103.301,273.166 103.301,238.408 102.36,237.931 	"/>
	<polygon fill="#7E817E" points="86.977,264.093 87.918,264.71 87.918,229.431 86.977,228.955 	"/>
	<polygon fill="#7E817E" points="133.126,290.011 134.068,290.627 134.068,256.025 133.126,255.549 	"/>
	<polygon fill="#7E817E" points="149.452,299.172 150.394,299.788 150.394,265.186 149.452,264.71 	"/>
	<polygon fill="#7E817E" points="167.025,309.588 167.967,310.204 167.967,275.792 167.025,275.316 	"/>
	<polygon fill="#7E817E" points="186.954,320.806 187.895,321.422 187.895,287.328 186.954,286.851 	"/>
	<polygon fill="#7E817E" points="183.252,371.344 184.193,371.96 184.193,335.291 183.252,334.814 	"/>
	<polygon fill="#7E817E" points="117.743,281.258 118.684,281.874 118.684,247.533 117.743,247.057 	"/>
	<polygon fill="#696B67" points="59.738,171.574 208.117,258.218 208.117,292.76 59.738,208.621 	"/>
	<polygon fill="#47403D" points="59.738,208.621 61.241,209.361 61.241,172.479 59.738,171.574 	"/>
	<polygon fill="#EFEFED" points="208.117,292.76 208.117,291.012 61.208,208.441 59.738,208.621 	"/>
	<polygon fill="#7E817E" points="208.117,276.354 208.117,275.47 61.241,190.749 61.241,191.313 	"/>
	<polygon fill="#7E817E" points="71.594,214.396 72.535,215.013 72.535,179.269 71.594,178.793 	"/>
	<polygon fill="#7E817E" points="102.36,231.552 103.301,232.168 103.301,197.41 102.36,196.933 	"/>
	<polygon fill="#7E817E" points="86.977,223.095 87.918,223.712 87.918,188.433 86.977,187.957 	"/>
	<polygon fill="#7E817E" points="133.126,249.013 134.068,249.629 134.068,215.027 133.126,214.551 	"/>
	<polygon fill="#7E817E" points="149.452,258.173 150.394,258.79 150.394,224.188 149.452,223.712 	"/>
	<polygon fill="#7E817E" points="167.025,268.59 167.967,269.206 167.967,234.794 167.025,234.317 	"/>
	<polygon fill="#7E817E" points="186.954,279.808 187.895,280.424 187.895,246.33 186.954,245.853 	"/>
	<polygon fill="#7E817E" points="117.743,240.26 118.684,240.876 118.684,206.535 117.743,206.058 	"/>
	<g>
		<polygon fill="#4B4C4A" points="391.797,161.087 243.419,247.731 243.419,282.273 391.797,198.134 		"/>
		<polygon fill="#47403D" points="391.797,198.134 390.295,198.874 390.295,161.992 391.797,161.087 		"/>
		<polygon fill="#C9C2C0" points="243.419,282.273 243.419,280.525 390.327,197.954 391.797,198.134 		"/>
		<polygon fill="#696B67" points="243.419,265.867 243.419,264.983 390.295,180.262 390.295,180.827 		"/>
		<polygon fill="#696B67" points="379.942,203.909 379,204.526 379,168.782 379.942,168.306 		"/>
		<polygon fill="#696B67" points="349.176,221.065 348.234,221.681 348.234,186.923 349.176,186.446 		"/>
		<polygon fill="#696B67" points="364.559,212.608 363.617,213.225 363.617,177.946 364.559,177.47 		"/>
		<polygon fill="#696B67" points="318.409,238.526 317.468,239.142 317.468,204.54 318.409,204.064 		"/>
		<polygon fill="#696B67" points="302.083,247.687 301.142,248.303 301.142,213.701 302.083,213.225 		"/>
		<polygon fill="#696B67" points="284.51,258.103 283.569,258.719 283.569,224.307 284.51,223.831 		"/>
		<polygon fill="#696B67" points="264.582,269.321 263.64,269.937 263.64,235.843 264.582,235.366 		"/>
		<polygon fill="#696B67" points="333.792,229.773 332.851,230.389 332.851,196.048 333.792,195.572 		"/>
	</g>
	<g>
		<polygon fill="#4B4C4A" points="391.797,200.599 243.419,287.243 243.419,321.784 391.797,237.646 		"/>
		<polygon fill="#47403D" points="391.797,237.646 390.295,238.386 390.295,201.504 391.797,200.599 		"/>
		<polygon fill="#C9C2C0" points="243.419,321.784 243.419,320.036 390.327,237.466 391.797,237.646 		"/>
		<polygon fill="#696B67" points="243.419,305.379 243.419,304.495 390.295,219.774 390.295,220.338 		"/>
		<polygon fill="#696B67" points="379.942,243.421 379,244.037 379,208.294 379.942,207.817 		"/>
		<polygon fill="#696B67" points="349.176,260.576 348.234,261.193 348.234,226.434 349.176,225.958 		"/>
		<polygon fill="#696B67" points="364.559,252.12 363.617,252.736 363.617,217.458 364.559,216.981 		"/>
		<polygon fill="#696B67" points="318.409,278.037 317.468,278.654 317.468,244.052 318.409,243.575 		"/>
		<polygon fill="#696B67" points="302.083,287.198 301.142,287.815 301.142,253.213 302.083,252.736 		"/>
		<polygon fill="#696B67" points="284.51,297.614 283.569,298.231 283.569,263.819 284.51,263.342 		"/>
		<polygon fill="#696B67" points="264.582,308.832 263.64,309.449 263.64,275.354 264.582,274.878 		"/>
		<polygon fill="#696B67" points="333.792,269.284 332.851,269.901 332.851,235.56 333.792,235.083 		"/>
	</g>
	<g>
		<polygon fill="#4B4C4A" points="391.797,240.981 243.419,327.625 243.419,362.167 391.797,278.028 		"/>
		<polygon fill="#47403D" points="391.797,278.028 390.295,278.768 390.295,241.887 391.797,240.981 		"/>
		<polygon fill="#C9C2C0" points="243.419,362.167 243.419,360.419 390.327,277.849 391.797,278.028 		"/>
		<polygon fill="#696B67" points="243.419,345.761 243.419,344.877 390.295,260.157 390.295,260.721 		"/>
		<polygon fill="#696B67" points="379.942,283.803 379,284.42 379,248.677 379.942,248.2 		"/>
		<polygon fill="#696B67" points="349.176,300.959 348.234,301.575 348.234,266.817 349.176,266.341 		"/>
		<polygon fill="#696B67" points="364.559,292.502 363.617,293.119 363.617,257.84 364.559,257.364 		"/>
		<polygon fill="#696B67" points="318.409,318.42 317.468,319.036 317.468,284.435 318.409,283.958 		"/>
		<polygon fill="#696B67" points="302.083,327.581 301.142,328.197 301.142,293.595 302.083,293.119 		"/>
		<polygon fill="#696B67" points="284.51,337.997 283.569,338.613 283.569,304.201 284.51,303.725 		"/>
		<polygon fill="#696B67" points="264.582,349.215 263.64,349.831 263.64,315.737 264.582,315.26 		"/>
		<polygon fill="#696B67" points="333.792,309.667 332.851,310.283 332.851,275.942 333.792,275.466 		"/>
	</g>
	<polygon fill="#7E817E" points="149.923,323.974 149.923,323.09 61.241,272.061 61.241,272.625 	"/>
	<polygon fill="#7E817E" points="71.594,295.707 72.535,296.324 72.535,260.104 71.594,259.627 	"/>
	<polygon fill="#7E817E" points="102.36,312.863 103.301,313.479 103.301,277.866 102.36,277.389 	"/>
	<polygon fill="#7E817E" points="86.977,304.406 87.918,305.023 87.918,268.884 86.977,268.407 	"/>
	<polygon fill="#7E817E" points="133.126,330.324 134.068,330.94 134.068,295.708 133.126,295.231 	"/>
	<polygon fill="#7E817E" points="117.743,321.571 118.684,322.187 118.684,286.821 117.743,286.344 	"/>
</g>
</svg>
