<?xml version="1.0" encoding="utf-8"?>
<!-- Generator: Adobe Illustrator 21.0.0, SVG Export Plug-In . SVG Version: 6.00 Build 0)  -->
<svg version="1.1" id="图层_1" xmlns="http://www.w3.org/2000/svg" xmlns:xlink="http://www.w3.org/1999/xlink" x="0px" y="0px"
	 viewBox="0 0 600 600" enable-background="new 0 0 600 600" xml:space="preserve">
<rect x="-1" opacity="0" fill="#39B54A" width="600" height="600"/>
<g>
</g>
<g>
	<polygon fill="#C9C2C0" points="146.308,408.734 286.992,417.718 325.511,394.783 361.859,394.783 402.747,370.018 404.34,348.861 
		571,244.834 451.52,189.117 	"/>
	<polygon fill="#DEDBD8" points="61.045,211.711 146.255,262.961 146.255,408.734 61.045,360.733 	"/>
	<polygon fill="#A66D5A" points="61.045,315.678 146.255,366.927 146.255,408.734 61.045,360.733 	"/>
	<polygon fill="#696B67" points="94.011,264.768 146.308,295.177 146.308,349.466 94.011,320.13 	"/>
	<polygon fill="#B5AAA7" points="451.52,232.083 146.308,408.734 146.308,262.796 451.52,89.394 	"/>
	<polygon fill="#B5AAA7" points="266.277,343.475 247.154,354.664 247.154,326.845 266.277,316.019 	"/>
	<polygon fill="#EBEBE3" points="61.045,211.711 357.16,44.158 451.52,89.394 146.308,262.796 	"/>
	<polygon fill="#75726F" points="122.353,153.351 239.712,222.099 239.712,394.783 204.717,374.939 206.56,228.564 122.353,177.782 
			"/>
	<polygon fill="#696B67" points="265.534,343.252 266.277,343.475 266.277,316.019 265.534,316.474 	"/>
	<polygon fill="#696B67" points="256.716,348.861 257.088,348.649 257.088,321.193 256.716,321.457 	"/>
	<polygon fill="#696B67" points="254.623,339.958 253.599,340.646 253.599,339.362 254.623,338.674 	"/>
	<polygon fill="#696B67" points="260.155,336.626 259.131,337.314 259.131,336.03 260.155,335.342 	"/>
	<polygon fill="#696B67" points="122.353,153.351 163.029,130.326 282.635,197.628 239.712,222.099 	"/>
	<polygon fill="#4C4C4B" points="184.597,272.767 146.308,295.177 146.308,349.466 184.597,328.128 	"/>
	<polygon fill="#6B3327" points="204.607,331.303 146.255,366.927 146.308,408.734 204.66,374.182 	"/>
	<polygon fill="#5C5657" points="282.635,368.419 239.712,394.783 239.712,222.099 282.635,197.628 	"/>
	<polygon fill="#696B67" points="271.49,248.368 256.282,257.709 256.282,232.913 271.49,224.243 	"/>
	<polygon fill="#696B67" points="271.49,255.657 256.282,264.998 256.282,260.996 271.49,252.326 	"/>
	<polygon fill="#4C4C4B" points="433.177,148.533 433.177,242.718 286.992,327.442 286.992,234.164 	"/>
	<polygon fill="#47403D" points="433.177,242.718 431.164,243.922 431.164,149.712 433.177,148.533 	"/>
	<polygon fill="#75726F" points="286.992,327.442 286.992,323.869 431.164,241.932 433.177,242.718 	"/>
	<polygon fill="#7E817E" points="286.992,296.222 286.992,295.169 431.164,209.289 431.164,209.96 	"/>
	<polygon fill="#7E817E" points="286.992,261.61 286.992,260.558 431.164,174.677 431.164,175.349 	"/>
	<polygon fill="#7E817E" points="418.839,249.699 417.719,250.433 417.719,157.548 418.839,156.981 	"/>
	<polygon fill="#7E817E" points="382.214,270.816 381.093,271.55 381.093,178.935 382.214,178.368 	"/>
	<polygon fill="#7E817E" points="400.527,259.96 399.406,260.694 399.406,168.457 400.527,167.89 	"/>
	<polygon fill="#7E817E" points="345.588,291.563 344.468,292.297 344.468,200.592 345.588,200.025 	"/>
	<polygon fill="#7E817E" points="363.901,281.556 362.78,282.29 362.78,189.7 363.901,189.133 	"/>
	<polygon fill="#7E817E" points="327.276,302.75 326.155,303.484 326.155,211.077 327.276,210.509 	"/>
	<polygon fill="#7E817E" points="308.963,312.801 307.842,313.535 307.842,221.878 308.963,221.31 	"/>
	<polygon fill="#979287" points="314.807,89.394 282.635,107.198 318.711,127.699 349.767,109.443 	"/>
	<polygon fill="#B5AAA7" points="282.635,107.198 282.635,117.056 318.711,138.075 318.711,127.699 	"/>
	<polygon fill="#75726F" points="349.767,109.443 318.713,127.685 318.711,138.075 349.765,118.389 	"/>
</g>
</svg>
