<?xml version="1.0" encoding="utf-8"?>
<!-- Generator: Adobe Illustrator 21.0.0, SVG Export Plug-In . SVG Version: 6.00 Build 0)  -->
<svg version="1.1" id="图层_1" xmlns="http://www.w3.org/2000/svg" xmlns:xlink="http://www.w3.org/1999/xlink" x="0px" y="0px"
	 viewBox="0 0 600 600" enable-background="new 0 0 600 600" xml:space="preserve">
<rect x="-1" opacity="0" fill="#39B54A" width="600" height="600"/>
<g>
</g>
<g>
	<polygon fill="#C9C2C0" points="397.74,272.954 550.246,315.714 433.574,409.087 251.535,428.084 	"/>
	<polygon fill="#DEDBD8" points="112.496,155.799 116.08,343.155 251.535,423.346 252.281,241.429 	"/>
	<polygon fill="#B5AAA7" points="397.74,328.336 252.281,422.981 252.281,237.084 397.74,145.593 	"/>
	<polygon fill="#47403D" points="250.757,402.273 397.74,295.671 397.74,328.336 251.535,429 	"/>
	<polygon fill="#4B4B49" points="286.653,312.172 331.446,262.599 366.564,281.918 366.575,319.419 286.653,376.24 	"/>
	<polygon fill="#B3A9A5" points="396.206,359.379 322.158,417.611 311.049,403.628 288.564,391.356 286.653,377.262 
		366.575,319.419 374.25,326.56 374.233,331.789 380.342,334.761 380.324,339.99 385.717,340.836 385.7,346.065 391.923,347.286 
		391.905,352.515 396.406,354.816 	"/>
	<polygon fill="#7A797B" points="286.653,404.821 322.158,417.611 322.158,410.321 316.868,409.087 317.47,401.937 311.02,401.573 
		310.999,395.571 305.645,394.647 305.645,389.817 299.463,387.266 299.463,380.703 286.653,376.24 	"/>
	<polygon fill="#47403D" points="391.923,347.286 317.56,402.204 316.868,409.087 391.905,352.515 	"/>
	<polygon fill="#47403D" points="385.717,340.836 310.999,395.571 311.02,401.573 385.7,346.065 	"/>
	<polygon fill="#47403D" points="380.342,334.761 305.624,389.495 305.645,395.498 380.324,339.99 	"/>
	<polygon fill="#47403D" points="374.25,326.56 299.532,381.294 299.553,387.296 374.233,331.789 	"/>
	<polygon fill="#47403D" points="396.406,354.816 322.158,410.679 321.775,417.473 396.206,359.379 	"/>
	<polygon fill="#75726F" points="116.142,346.416 115.62,319.102 251.535,402.204 251.535,428.084 	"/>
	<polyline fill="#47403D" points="380.3,288.02 359.091,280.95 329.684,261.588 358.938,268.435 	"/>
	<polygon fill="#75726F" points="92.565,170.448 263.986,267.048 263.24,242.879 92.443,148.59 	"/>
	<polygon fill="#47403D" points="421.381,137.94 263.24,242.879 263.986,267.048 421.381,158.296 	"/>
	<polygon fill="#7E817E" points="333.088,343.199 334.324,343.545 334.324,296.545 333.088,296.86 	"/>
	<polygon fill="#5C5657" points="92.443,148.59 263.986,52.923 421.381,137.94 263.24,242.879 	"/>
	<g>
		<polygon fill="#4C4C4B" points="130.301,355.052 175.995,381.25 175.995,264.393 130.301,239.047 		"/>
		<polygon fill="#696B67" points="144.124,362.677 143.471,362.869 143.471,246.46 144.124,246.851 		"/>
		<polygon fill="#848077" points="130.954,355.264 130.301,355.456 130.301,239.047 130.954,239.439 		"/>
		<polygon fill="#696B67" points="159.613,371.181 158.96,371.373 158.96,254.964 159.613,255.355 		"/>
		<polygon fill="#696B67" points="130.301,264.723 176.096,290.979 175.995,289.07 130.301,263.723 		"/>
		<polygon fill="#696B67" points="130.301,303.086 176.096,329.342 175.995,327.433 130.301,302.086 		"/>
		<polygon fill="#696B67" points="130.301,316.714 176.096,342.97 175.995,341.061 130.301,315.714 		"/>
	</g>
	<g>
		<polygon fill="#4C4C4B" points="184.77,387.874 230.463,414.072 230.463,297.215 184.77,271.869 		"/>
		<polygon fill="#696B67" points="198.593,395.499 197.94,395.691 197.94,279.281 198.593,279.673 		"/>
		<polygon fill="#848077" points="185.423,388.086 184.77,388.278 184.77,271.869 185.423,272.26 		"/>
		<polygon fill="#696B67" points="214.082,404.003 213.428,404.195 213.428,287.786 214.082,288.177 		"/>
		<polygon fill="#696B67" points="184.77,297.545 230.565,323.801 230.463,321.892 184.77,296.545 		"/>
		<polygon fill="#696B67" points="184.77,335.908 230.565,362.164 230.463,360.254 184.77,334.908 		"/>
		<polygon fill="#696B67" points="184.77,349.536 230.565,375.792 230.463,373.883 184.77,348.536 		"/>
	</g>
	<polygon fill="#47403D" points="285.458,315.73 285.458,311.16 311.994,328.093 311.994,332.572 	"/>
	<polygon fill="#2D2928" points="359.091,285.868 311.994,332.572 311.994,328.093 359.091,280.95 	"/>
	<polygon fill="#2D2928" points="379.971,291.078 380.3,288.02 359.091,280.95 359.091,285.868 	"/>
	<polygon fill="#75726F" points="311.994,328.093 285.458,311.16 330.251,261.588 359.091,280.95 	"/>
</g>
</svg>
