<?xml version="1.0" encoding="utf-8"?>
<!-- Generator: Adobe Illustrator 21.0.0, SVG Export Plug-In . SVG Version: 6.00 Build 0)  -->
<svg version="1.1" id="图层_1" xmlns="http://www.w3.org/2000/svg" xmlns:xlink="http://www.w3.org/1999/xlink" x="0px" y="0px"
	 viewBox="0 0 600 600" enable-background="new 0 0 600 600" xml:space="preserve">
<rect x="-1" opacity="0" fill="#39B54A" width="600" height="600"/>
<g>
</g>
<g>
	<polygon fill="#C9C2C0" points="181.587,393 370.496,386.582 568.464,260.757 464.79,170.348 432.626,170.348 	"/>
	<polygon fill="#DEDBD8" points="48.292,185.652 181.587,264.889 181.587,393 48.292,317.466 	"/>
	<polygon fill="#696B67" points="55.093,206.611 171.788,275.979 171.788,320.675 55.093,254.548 	"/>
	<polygon fill="#696B67" points="55.093,258.694 171.788,326.044 171.788,372.759 55.093,306.632 	"/>
	<polygon fill="#B5AAA7" points="432.626,245.635 181.587,393 181.587,264.889 432.626,121.226 	"/>
	<polygon fill="#5C5657" points="397.772,310.34 284.348,376.708 284.348,307.501 397.772,243.29 	"/>
	<polygon fill="#4C4C4B" points="390.852,314.283 331.592,348.958 331.592,289.102 390.852,255.555 	"/>
	<polygon fill="#B5AAA7" points="318.309,356.833 296.516,369.585 296.516,337.882 318.309,325.544 	"/>
	<polygon fill="#EBEBE3" points="48.292,185.652 288.963,48.655 432.626,121.226 181.587,264.889 	"/>
	<polygon fill="#5C5657" points="63.795,187.288 289.891,58.568 417.52,122.708 182.003,257.483 	"/>
	<polygon fill="#C9C2C0" points="289.891,52.728 420.794,120.86 414.425,124.536 289.891,58.568 	"/>
	<polygon fill="#B5AAA7" points="289.891,58.568 66.59,188.951 59.097,184.526 289.891,52.728 	"/>
	<polygon fill="#979287" points="246.158,283.504 284.348,307.501 284.348,376.708 246.158,354.712 	"/>
	<polygon fill="#848077" points="246.158,283.504 266.467,296.265 284.348,358.442 284.348,376.708 246.158,354.712 	"/>
	<polygon fill="#47403D" points="55.093,254.548 57.037,255.505 57.037,207.782 55.093,206.611 	"/>
	<polygon fill="#47403D" points="55.093,306.632 57.037,307.589 57.037,259.866 55.093,258.694 	"/>
	<polygon fill="#EFEFED" points="171.788,320.675 171.788,318.413 56.995,254.315 55.093,254.548 	"/>
	<polygon fill="#EFEFED" points="171.788,372.774 171.788,370.512 56.995,306.414 55.093,306.647 	"/>
	<polygon fill="#7E817E" points="171.788,298.596 171.788,297.452 57.037,231.423 57.037,232.152 	"/>
	<polygon fill="#7E817E" points="70.433,262.021 71.652,262.818 71.652,216.568 70.433,215.951 	"/>
	<polygon fill="#7E817E" points="110.244,284.219 111.462,285.017 111.462,240.041 110.244,239.424 	"/>
	<polygon fill="#7E817E" points="90.338,273.277 91.557,274.074 91.557,228.425 90.338,227.809 	"/>
	<polygon fill="#7E817E" points="150.054,306.813 151.272,307.61 151.272,263.668 150.054,263.052 	"/>
	<polygon fill="#696B67" points="380.864,319.765 381.711,320.019 381.711,260.757 380.864,261.275 	"/>
	<polygon fill="#848077" points="390.005,314.563 390.852,314.817 390.852,255.555 390.005,256.073 	"/>
	<polygon fill="#696B67" points="357.66,333.144 358.508,333.398 358.508,274.135 357.66,274.653 	"/>
	<polygon fill="#696B67" points="344.208,340.785 345.055,341.039 345.055,281.776 344.208,282.295 	"/>
	<polygon fill="#696B67" points="317.462,356.579 318.309,356.833 318.309,325.544 317.462,326.062 	"/>
	<polygon fill="#696B67" points="307.413,362.972 307.836,362.73 307.836,331.441 307.413,331.741 	"/>
	<polygon fill="#696B67" points="369.649,326.297 370.496,326.551 370.496,267.289 369.649,267.807 	"/>
	<polygon fill="#7E817E" points="130.149,295.487 131.367,296.284 131.367,251.849 130.149,251.232 	"/>
	<polygon fill="#7E817E" points="171.788,350.759 171.788,349.615 57.037,283.586 57.037,284.316 	"/>
	<polygon fill="#7E817E" points="70.433,314.184 71.652,314.982 71.652,268.115 70.433,267.498 	"/>
	<polygon fill="#7E817E" points="110.244,336.382 111.462,337.18 111.462,291.098 110.244,290.481 	"/>
	<polygon fill="#7E817E" points="90.338,325.44 91.557,326.238 91.557,279.476 90.338,278.859 	"/>
	<polygon fill="#7E817E" points="150.054,358.976 151.272,359.774 151.272,314.185 150.054,313.568 	"/>
	<polygon fill="#7E817E" points="130.149,347.65 131.367,348.448 131.367,302.685 130.149,302.068 	"/>
	<polygon fill="#696B67" points="390.852,289.539 331.46,324.291 331.592,321.763 390.852,288.215 	"/>
	<polygon fill="#696B67" points="305.028,352.826 303.86,353.61 303.86,352.146 305.028,351.362 	"/>
	<polygon fill="#696B67" points="311.332,349.028 310.165,349.812 310.165,348.349 311.332,347.565 	"/>
	<g>
		<polygon fill="#4C4C4B" points="418.096,183.683 387.613,201.16 387.613,170.991 418.096,154.082 		"/>
		<polygon fill="#696B67" points="412.958,186.446 413.394,186.574 413.394,156.704 412.958,156.965 		"/>
		<polygon fill="#848077" points="417.66,183.824 418.096,183.952 418.096,154.082 417.66,154.343 		"/>
		<polygon fill="#696B67" points="401.023,193.189 401.458,193.317 401.458,163.447 401.023,163.709 		"/>
		<polygon fill="#696B67" points="394.103,197.041 394.538,197.169 394.538,167.299 394.103,167.56 		"/>
		<polygon fill="#696B67" points="407.189,189.738 407.625,189.867 407.625,159.996 407.189,160.258 		"/>
		<polygon fill="#696B67" points="418.096,171.211 387.546,188.727 387.613,187.453 418.096,170.544 		"/>
	</g>
	<g>
		<polygon fill="#4C4C4B" points="419.458,225.608 388.975,243.085 388.975,212.916 419.458,196.007 		"/>
		<polygon fill="#696B67" points="414.32,228.371 414.756,228.499 414.756,198.629 414.32,198.89 		"/>
		<polygon fill="#848077" points="419.023,225.749 419.458,225.877 419.458,196.007 419.023,196.268 		"/>
		<polygon fill="#696B67" points="402.385,235.114 402.821,235.242 402.821,205.372 402.385,205.633 		"/>
		<polygon fill="#696B67" points="395.465,238.966 395.901,239.094 395.901,209.224 395.465,209.485 		"/>
		<polygon fill="#696B67" points="408.552,231.663 408.988,231.791 408.988,201.921 408.552,202.182 		"/>
		<polygon fill="#696B67" points="419.458,213.136 388.908,230.652 388.975,229.378 419.458,212.469 		"/>
	</g>
	<polygon fill="#75726F" points="246.158,283.504 357.021,220.94 397.772,243.29 284.348,307.501 	"/>
</g>
</svg>
