<?xml version="1.0" encoding="utf-8"?>
<!-- Generator: Adobe Illustrator 21.0.0, SVG Export Plug-In . SVG Version: 6.00 Build 0)  -->
<svg version="1.1" id="图层_1" xmlns="http://www.w3.org/2000/svg" xmlns:xlink="http://www.w3.org/1999/xlink" x="0px" y="0px"
	 viewBox="0 0 600 600" enable-background="new 0 0 600 600" xml:space="preserve">
<rect x="-1" opacity="0" fill="#39B54A" width="600" height="600"/>
<g>
</g>
<g>
	<polygon fill="#C9C2C0" points="191.602,388.572 365.524,379.034 447.869,327.159 500.844,311.626 501.561,293.333 571,249.588 
		450.606,195.53 	"/>
	<polygon fill="#DEDBD8" points="50.4,179.909 191.942,262.836 191.942,388.448 50.4,308.016 	"/>
	<polygon fill="#B5AAA7" points="458.657,235.425 191.942,388.448 191.942,262.836 458.657,112.308 	"/>
	<polygon fill="#EBEBE3" points="50.4,179.909 310.128,33.873 458.657,112.308 191.942,262.836 	"/>
	<g>
		<polygon fill="#4C4C4B" points="268.861,342.724 233.25,363.141 233.25,272.071 268.861,252.317 		"/>
		<polygon fill="#696B67" points="258.087,348.666 258.597,348.816 258.597,258.094 258.087,258.399 		"/>
		<polygon fill="#848077" points="268.351,342.889 268.861,343.039 268.861,252.317 268.351,252.622 		"/>
		<polygon fill="#696B67" points="246.017,355.293 246.526,355.443 246.526,264.722 246.017,265.027 		"/>
		<polygon fill="#696B67" points="268.861,272.327 233.171,292.79 233.25,291.302 268.861,271.548 		"/>
		<polygon fill="#696B67" points="268.861,302.225 233.171,322.687 233.25,321.199 268.861,301.446 		"/>
		<polygon fill="#696B67" points="268.861,312.846 233.171,333.308 233.25,331.82 268.861,312.066 		"/>
	</g>
	<g>
		<polygon fill="#696B67" points="75.344,321.756 110.954,342.173 110.954,251.103 75.344,231.35 		"/>
		<polygon fill="#7E817E" points="86.117,327.698 85.608,327.848 85.608,237.127 86.117,237.432 		"/>
		<polygon fill="#494743" points="75.853,321.921 75.344,322.071 75.344,231.35 75.853,231.655 		"/>
		<polygon fill="#7E817E" points="98.188,334.326 97.679,334.475 97.679,243.754 98.188,244.059 		"/>
		<polygon fill="#7E817E" points="75.344,251.36 111.033,271.822 110.954,270.334 75.344,250.581 		"/>
		<polygon fill="#7E817E" points="75.344,281.257 111.033,301.72 110.954,300.231 75.344,280.478 		"/>
		<polygon fill="#7E817E" points="75.344,291.878 111.033,312.34 110.954,310.852 75.344,291.099 		"/>
	</g>
	<g>
		<polygon fill="#696B67" points="124.751,349.953 160.361,370.37 160.361,279.3 124.751,259.546 		"/>
		<polygon fill="#7E817E" points="135.524,355.895 135.014,356.045 135.014,265.323 135.524,265.629 		"/>
		<polygon fill="#494743" points="125.26,350.118 124.751,350.268 124.751,259.546 125.26,259.852 		"/>
		<polygon fill="#7E817E" points="147.595,362.523 147.085,362.672 147.085,271.951 147.595,272.256 		"/>
		<polygon fill="#7E817E" points="124.751,279.557 160.44,300.019 160.361,298.531 124.751,278.777 		"/>
		<polygon fill="#7E817E" points="124.751,309.454 160.44,329.916 160.361,328.428 124.751,308.675 		"/>
		<polygon fill="#7E817E" points="124.751,320.075 160.44,340.537 160.361,339.049 124.751,319.296 		"/>
	</g>
	<g>
		<polygon fill="#4C4C4B" points="433.369,249.273 397.758,269.69 397.758,178.62 433.369,158.866 		"/>
		<polygon fill="#696B67" points="422.596,255.215 423.105,255.365 423.105,164.643 422.596,164.949 		"/>
		<polygon fill="#848077" points="432.86,249.438 433.369,249.588 433.369,158.866 432.86,159.172 		"/>
		<polygon fill="#696B67" points="410.525,261.843 411.034,261.992 411.034,171.271 410.525,171.576 		"/>
		<polygon fill="#696B67" points="433.369,178.877 397.679,199.339 397.758,197.851 433.369,178.097 		"/>
		<polygon fill="#696B67" points="433.369,208.774 397.679,229.236 397.758,227.748 433.369,207.995 		"/>
		<polygon fill="#696B67" points="433.369,219.395 397.679,239.857 397.758,238.369 433.369,218.616 		"/>
	</g>
	<g>
		<polygon fill="#A09388" points="326.852,342.428 339.862,349.21 345.504,352.656 355.747,346.578 412.403,311.871 
			398.675,301.663 		"/>
		<polygon fill="#DEDBD8" points="297.054,323.744 296.022,272.352 327.775,290.791 326.852,342.428 		"/>
		<polygon fill="#B5AAA7" points="398.675,301.663 326.852,342.428 327.775,290.791 398.675,267.707 		"/>
		<polygon fill="#4C4C4B" points="364.156,292.206 364.156,316.693 377.469,309.659 378.127,284.03 		"/>
		<polygon fill="#47403D" points="415.524,257.147 381.873,257.429 331.799,230.066 369.627,230.066 		"/>
		<polygon fill="#979287" points="400.928,312.528 400.954,266.346 411.347,262.134 412.403,311.871 406.443,315.356 		"/>
		<polygon fill="#5C5657" points="406.443,315.356 412.403,311.871 412.403,261.383 406.443,264.152 		"/>
		<polygon fill="#979287" points="375.96,309.172 377.469,309.659 378.127,284.03 375.96,285.299 		"/>
		<polygon fill="#A09388" points="364.156,315.156 375.96,309.172 377.282,309.598 364.156,316.693 		"/>
		<polygon fill="#75726F" points="297.054,323.744 297.054,321.773 326.9,339.726 326.852,342.428 		"/>
		<polygon fill="#47403D" points="398.675,301.663 326.852,342.428 326.9,339.726 398.675,299.542 		"/>
		<polygon fill="#DEDBD8" points="340.623,349.675 340.623,296.631 353.201,298.884 353.201,348.089 345.504,352.656 		"/>
		<polygon fill="#5C5657" points="345.504,352.656 345.504,297.275 353.201,293.333 353.201,348.089 		"/>
		<polygon fill="#2D2928" points="344.703,302.344 343.295,299.668 381.592,257.429 415.243,257.147 415.243,260.151 		"/>
		<polygon fill="#75726F" points="294.253,271.179 331.799,230.066 381.873,257.429 343.576,300.044 		"/>
		<polygon fill="#47403D" points="294.793,273.338 294.253,271.179 343.576,300.044 344.703,302.344 		"/>
		<polygon fill="#75726F" points="340.623,345.522 340.623,349.675 345.504,352.656 345.504,348.009 		"/>
		<polygon fill="#47403D" points="353.201,348.089 353.201,343.691 345.504,348.009 345.504,352.656 		"/>
		<polygon fill="#47403D" points="400.928,312.528 400.928,308.178 406.443,310.639 406.443,315.522 		"/>
		<polygon fill="#2D2928" points="412.403,311.871 406.443,315.522 406.443,310.639 412.403,307.729 		"/>
	</g>
	<polygon fill="#5C5657" points="67.251,181.771 310.238,43.347 441.278,113.553 191.942,256.058 	"/>
	<polygon fill="#C9C2C0" points="310.238,39.411 443.484,112.308 439.192,114.785 310.238,43.347 	"/>
	<polygon fill="#B5AAA7" points="310.238,43.347 69.135,182.891 64.085,179.909 310.238,39.411 	"/>
	<polygon fill="#5E5958" points="294.253,271.179 334.717,294.859 345.504,237.555 331.799,230.066 	"/>
</g>
</svg>
