<?xml version="1.0" encoding="utf-8"?>
<!-- Generator: Adobe Illustrator 21.0.0, SVG Export Plug-In . SVG Version: 6.00 Build 0)  -->
<svg version="1.1" id="图层_1" xmlns="http://www.w3.org/2000/svg" xmlns:xlink="http://www.w3.org/1999/xlink" x="0px" y="0px"
	 viewBox="0 0 600 600" enable-background="new 0 0 600 600" xml:space="preserve">
<rect x="-1" opacity="0" fill="#39B54A" width="600" height="600"/>
<g>
</g>
<g>
	<polygon fill="#47403D" points="56.245,312.354 58.022,313.418 58.022,232.636 56.245,231.594 	"/>
	<polygon fill="#7E817E" points="68.907,317.885 69.897,318.533 69.897,239.556 68.907,239.055 	"/>
	<polygon fill="#C9C2C0" points="204.775,416 371.851,411.026 481.27,337.422 468.263,310.598 567.734,225.622 518.764,184.623 
		455.941,184.623 	"/>
	<polygon fill="#C9C2C0" points="208.272,132.932 328.541,59.623 455.941,132.932 334.283,205.196 	"/>
	<polygon fill="#979287" points="455.941,222.03 455.941,132.932 334.283,205.196 348.627,296.06 	"/>
	<polygon fill="#DEDBD8" points="41.411,205.196 41.411,319.589 204.775,416 204.775,299.312 	"/>
	<polygon fill="#75726F" points="41.411,313.418 41.411,319.589 204.775,416 204.775,407.534 	"/>
	<polygon fill="#DEDBD8" points="164.927,140.157 164.927,144.365 328.291,240.776 328.291,234.273 	"/>
	<polygon fill="#696B67" points="56.245,231.594 56.245,312.354 185.351,389.602 185.351,307.221 	"/>
	<polygon fill="#B5AAA7" points="348.627,213.422 204.775,299.312 204.775,416 348.627,323.415 	"/>
	<polygon fill="#47403D" points="348.627,316.528 204.775,407.534 204.775,416 348.627,323.415 	"/>
	<polygon fill="#4C4C4B" points="335.64,244.985 222.352,312.626 222.352,404.522 335.64,331.608 	"/>
	<polygon fill="#4B4B49" points="363.73,249.971 348.627,259.332 348.627,296.463 363.73,285.587 	"/>
	<polygon fill="#EBEBE3" points="188.515,121.601 41.411,205.196 204.775,299.312 348.627,213.422 	"/>
	<polygon fill="#5C5657" points="189.035,131.674 53.473,206.694 205.482,293.072 336.339,216.15 	"/>
	<polygon fill="#EBEBE3" points="182.187,161.588 145.222,182.044 186.671,205.597 222.352,184.623 	"/>
	<polygon fill="#C9C2C0" points="188.794,127.355 188.794,131.564 334.283,217.426 339.233,214.025 	"/>
	<polygon fill="#B5AAA7" points="188.794,127.355 53.473,206.694 60.115,210.468 188.794,131.755 	"/>
	<polygon fill="#DEDBD8" points="145.222,182.044 145.222,193.37 186.671,217.519 186.671,205.597 	"/>
	<polygon fill="#979287" points="222.352,184.623 186.673,205.581 186.671,217.519 222.35,194.901 	"/>
	<polygon fill="#EBEBE3" points="321.878,89.421 293.954,104.875 325.266,122.668 352.222,106.823 	"/>
	<polygon fill="#DEDBD8" points="293.954,104.875 293.954,113.431 325.266,131.674 325.266,122.668 	"/>
	<polygon fill="#979287" points="352.222,106.823 325.268,122.656 325.266,131.674 352.22,114.587 	"/>
	<polygon fill="#4B4B49" points="333.863,330.673 335.64,331.737 335.64,244.985 333.863,246.046 	"/>
	<polygon fill="#EFEFED" points="185.351,389.602 185.351,386.445 58.022,311.66 56.245,312.354 	"/>
	<polygon fill="#7E817E" points="185.351,362.029 185.351,361.099 58.022,285.252 58.022,285.845 	"/>
	<polygon fill="#7E817E" points="185.351,331.461 185.351,330.531 58.022,254.684 58.022,255.277 	"/>
	<polygon fill="#7E817E" points="101.254,336.774 102.243,337.422 102.243,258.444 101.254,257.943 	"/>
	<polygon fill="#7E817E" points="85.08,327.52 86.07,328.168 86.07,249.191 85.08,248.689 	"/>
	<polygon fill="#7E817E" points="133.6,355.901 134.59,356.549 134.59,277.571 133.6,277.07 	"/>
	<polygon fill="#7E817E" points="117.427,346.281 118.417,346.929 118.417,267.952 117.427,267.45 	"/>
	<polygon fill="#7E817E" points="149.773,365.16 150.763,365.808 150.763,286.831 149.773,286.33 	"/>
	<polygon fill="#7E817E" points="165.947,374.699 166.937,375.347 166.937,296.37 165.947,295.869 	"/>
	<polygon fill="#7E817E" points="286.249,361.445 287.239,362.093 287.239,274.015 286.249,274.606 	"/>
	<polygon fill="#7E817E" points="254.111,380.593 255.101,381.241 255.101,293.163 254.111,293.754 	"/>
	<polygon fill="#7E817E" points="313.794,343.046 314.784,343.694 314.784,257.439 313.794,258.03 	"/>
	<polygon fill="#B5AAA7" points="333.863,330.544 222.352,401.7 222.352,404.522 335.64,331.737 	"/>
	<g>
		<polygon fill="#4C4C4B" points="425.113,243.606 383.111,272.067 383.111,222.939 425.113,195.403 		"/>
		<polygon fill="#696B67" points="418.034,248.106 418.634,248.315 418.634,199.672 418.034,200.098 		"/>
		<polygon fill="#848077" points="424.513,243.837 425.113,244.045 425.113,195.403 424.513,195.828 		"/>
		<polygon fill="#696B67" points="401.588,259.087 402.189,259.296 402.189,210.653 401.588,211.079 		"/>
		<polygon fill="#696B67" points="392.053,265.359 392.654,265.568 392.654,216.925 392.053,217.351 		"/>
		<polygon fill="#696B67" points="410.085,253.468 410.686,253.676 410.686,205.034 410.085,205.459 		"/>
		<polygon fill="#696B67" points="425.113,223.297 383.018,251.821 383.111,249.746 425.113,222.21 		"/>
	</g>
</g>
</svg>
