<?xml version="1.0" encoding="utf-8"?>
<!-- Generator: Adobe Illustrator 21.0.0, SVG Export Plug-In . SVG Version: 6.00 Build 0)  -->
<svg version="1.1" id="图层_1" xmlns="http://www.w3.org/2000/svg" xmlns:xlink="http://www.w3.org/1999/xlink" x="0px" y="0px"
	 viewBox="0 0 600 600" enable-background="new 0 0 600 600" xml:space="preserve">
<rect x="-1" opacity="0" fill="#39B54A" width="600" height="600"/>
<g>
</g>
<g>
	<polygon fill="#C9C2C0" points="224.312,405.79 363.792,409 389.987,395.465 512.448,390.1 574.45,327.947 519.785,305.615 
		560.775,278.934 441.577,232.148 	"/>
	<polygon fill="#DEDBD8" points="42.54,183.515 224.312,290.012 224.312,405.79 42.54,302.498 	"/>
	<polygon fill="#B5AAA7" points="441.577,278.251 224.312,405.79 224.312,290.012 441.577,165.677 	"/>
	<polygon fill="#EBEBE3" points="42.54,183.515 250.833,64.949 441.577,165.677 224.312,290.012 	"/>
	<polygon fill="#696B67" points="48.426,206.179 214.591,303.209 214.591,367.528 48.426,273.303 	"/>
	<polygon fill="#EFEFED" points="214.591,367.528 214.591,365.57 50.072,273.102 48.426,273.303 	"/>
	<polygon fill="#7E817E" points="214.591,333.774 214.591,332.784 50.109,237.907 50.109,238.539 	"/>
	<polygon fill="#7E817E" points="96.157,299.073 97.211,299.763 97.211,235.112 96.157,234.578 	"/>
	<polygon fill="#7E817E" points="78.93,289.603 79.984,290.293 79.984,225.059 78.93,224.525 	"/>
	<polygon fill="#7E817E" points="130.611,318.627 131.666,319.317 131.666,254.841 130.611,254.307 	"/>
	<polygon fill="#7E817E" points="148.895,328.886 149.949,329.576 149.949,265.1 148.895,264.567 	"/>
	<polygon fill="#7E817E" points="168.574,340.551 169.628,341.241 169.628,276.978 168.574,276.444 	"/>
	<polygon fill="#7E817E" points="190.892,353.114 191.946,353.804 191.946,289.896 190.892,289.362 	"/>
	<polygon fill="#7E817E" points="113.384,308.825 114.439,309.515 114.439,245.331 113.384,244.797 	"/>
	<g>
		<polygon fill="#979287" points="138.848,165.061 114.456,178.56 141.808,194.103 165.354,180.261 		"/>
		<polygon fill="#B5AAA7" points="114.456,178.56 114.456,186.034 141.808,201.97 141.808,194.103 		"/>
		<polygon fill="#75726F" points="165.354,180.261 141.809,194.092 141.808,201.97 165.352,187.044 		"/>
	</g>
	<g>
		<polygon fill="#4C4C4B" points="267.902,380.677 241.52,395.803 241.52,328.334 267.902,313.699 		"/>
		<polygon fill="#696B67" points="259.921,385.079 260.298,385.19 260.298,317.979 259.921,318.205 		"/>
		<polygon fill="#848077" points="267.525,380.799 267.902,380.91 267.902,313.699 267.525,313.926 		"/>
		<polygon fill="#696B67" points="250.978,389.989 251.355,390.1 251.355,322.889 250.978,323.115 		"/>
		<polygon fill="#696B67" points="267.902,328.524 241.461,343.684 241.52,342.581 267.902,327.947 		"/>
		<polygon fill="#696B67" points="267.902,350.674 241.461,365.833 241.52,364.73 267.902,350.096 		"/>
		<polygon fill="#696B67" points="267.902,358.542 241.461,373.701 241.52,372.599 267.902,357.965 		"/>
	</g>
	<polygon fill="#75726F" points="202.196,100.7 317.949,168.507 317.949,390.1 283.433,370.528 285.251,255.857 202.196,205.769 	
		"/>
	<polygon fill="#696B67" points="202.196,100.7 311.802,35.475 429.772,101.857 317.949,168.507 	"/>
	<polygon fill="#5C5657" points="429.772,323.333 317.949,390.1 317.949,168.507 429.772,101.857 	"/>
	<polygon fill="#696B67" points="397.184,214.723 362.508,236.022 362.508,179.484 397.184,159.715 	"/>
	<polygon fill="#696B67" points="397.184,231.345 362.508,252.643 362.508,243.518 397.184,223.749 	"/>
	<polygon fill="#5C5657" points="390.375,212.106 369.317,225.009 369.317,183.279 390.375,170.727 	"/>
	<g>
		<polygon fill="#4C4C4B" points="398.706,341.882 363.792,362.385 363.792,273.097 398.706,253.731 		"/>
		<polygon fill="#696B67" points="388.143,348.193 388.643,348.34 388.643,259.394 388.143,259.694 		"/>
		<polygon fill="#848077" points="398.206,341.735 398.706,341.882 398.706,253.731 398.206,254.03 		"/>
		<polygon fill="#696B67" points="376.309,354.691 376.808,354.838 376.808,265.892 376.309,266.191 		"/>
		<polygon fill="#696B67" points="398.706,273.349 363.715,293.411 363.792,291.952 398.706,272.585 		"/>
		<polygon fill="#696B67" points="398.706,302.661 363.715,322.723 363.792,321.264 398.706,301.897 		"/>
		<polygon fill="#696B67" points="398.706,313.074 363.715,333.136 363.792,331.677 398.706,312.31 		"/>
	</g>
</g>
</svg>
