<?xml version="1.0" encoding="utf-8"?>
<!-- Generator: Adobe Illustrator 21.0.0, SVG Export Plug-In . SVG Version: 6.00 Build 0)  -->
<svg version="1.1" id="图层_1" xmlns="http://www.w3.org/2000/svg" xmlns:xlink="http://www.w3.org/1999/xlink" x="0px" y="0px"
	 viewBox="0 0 600 600" enable-background="new 0 0 600 600" xml:space="preserve">
<rect x="-1" opacity="0" fill="#39B54A" width="600" height="600"/>
<g>
</g>
<g>
	<polygon fill="#C9C2C0" points="184.848,403.467 378.774,396.879 582,267.711 475.573,174.902 442.554,174.902 	"/>
	<polygon fill="#DEDBD8" points="48.013,190.613 184.848,271.953 184.848,403.467 48.013,325.927 	"/>
	<polygon fill="#B5AAA7" points="442.554,252.188 184.848,403.467 184.848,271.953 442.554,124.476 	"/>
	<polygon fill="#5C5657" points="526.128,252.074 290.338,386.743 290.338,315.697 526.128,183.244 	"/>
	<polygon fill="#B5AAA7" points="325.201,366.34 302.829,379.431 302.829,346.885 325.201,334.22 	"/>
	<polygon fill="#EBEBE3" points="48.013,190.613 295.076,49.976 442.554,124.476 184.848,271.953 	"/>
	<polygon fill="#5C5657" points="63.927,192.291 296.028,60.153 427.047,125.996 185.275,264.352 	"/>
	<polygon fill="#C9C2C0" points="296.028,54.158 430.408,124.1 423.87,127.873 296.028,60.153 	"/>
	<polygon fill="#B5AAA7" points="296.028,60.153 66.797,193.998 59.105,189.456 296.028,54.158 	"/>
	<polygon fill="#979287" points="251.134,291.064 290.338,315.697 290.338,386.743 251.134,364.163 	"/>
	<polygon fill="#848077" points="251.134,291.064 271.982,304.163 290.338,367.992 290.338,386.743 251.134,364.163 	"/>
	<polygon fill="#696B67" points="324.332,366.079 325.201,366.34 325.201,334.22 324.332,334.752 	"/>
	<polygon fill="#696B67" points="314.015,372.642 314.45,372.393 314.45,340.273 314.015,340.582 	"/>
	<polygon fill="#696B67" points="311.567,362.226 310.369,363.031 310.369,361.528 311.567,360.723 	"/>
	<polygon fill="#696B67" points="318.039,358.328 316.841,359.133 316.841,357.63 318.039,356.825 	"/>
	<g>
		<polygon fill="#4C4C4B" points="427.639,188.591 396.346,206.532 396.346,175.562 427.639,158.204 		"/>
		<polygon fill="#696B67" points="422.364,191.427 422.812,191.559 422.812,160.896 422.364,161.164 		"/>
		<polygon fill="#848077" points="427.191,188.736 427.639,188.867 427.639,158.204 427.191,158.472 		"/>
		<polygon fill="#696B67" points="410.112,198.35 410.559,198.481 410.559,167.818 410.112,168.086 		"/>
		<polygon fill="#696B67" points="403.008,202.304 403.455,202.435 403.455,171.772 403.008,172.04 		"/>
		<polygon fill="#696B67" points="416.442,194.807 416.89,194.939 416.89,164.275 416.442,164.543 		"/>
		<polygon fill="#696B67" points="427.639,175.788 396.276,193.769 396.346,192.461 427.639,175.103 		"/>
	</g>
	<g>
		<polygon fill="#4C4C4B" points="483.31,276.487 435.668,303.802 435.668,256.651 483.31,230.224 		"/>
		<polygon fill="#696B67" points="475.28,280.805 475.961,281.006 475.961,234.322 475.28,234.73 		"/>
		<polygon fill="#848077" points="482.629,276.708 483.31,276.908 483.31,230.224 482.629,230.632 		"/>
		<polygon fill="#696B67" points="456.626,291.344 457.307,291.545 457.307,244.861 456.626,245.269 		"/>
		<polygon fill="#696B67" points="445.811,297.364 446.492,297.564 446.492,250.88 445.811,251.288 		"/>
		<polygon fill="#696B67" points="466.264,285.951 466.945,286.151 466.945,239.467 466.264,239.876 		"/>
		<polygon fill="#696B67" points="483.31,256.995 435.563,284.37 435.668,282.379 483.31,255.952 		"/>
	</g>
	<g>
		<polygon fill="#4C4C4B" points="400.234,323.322 352.593,350.637 352.593,303.487 400.234,277.06 		"/>
		<polygon fill="#696B67" points="392.204,327.641 392.885,327.841 392.885,281.157 392.204,281.566 		"/>
		<polygon fill="#848077" points="399.553,323.543 400.234,323.743 400.234,277.06 399.553,277.468 		"/>
		<polygon fill="#696B67" points="373.55,338.18 374.231,338.38 374.231,291.696 373.55,292.104 		"/>
		<polygon fill="#696B67" points="362.735,344.199 363.416,344.399 363.416,297.716 362.735,298.124 		"/>
		<polygon fill="#696B67" points="383.188,332.787 383.869,332.987 383.869,286.303 383.188,286.711 		"/>
		<polygon fill="#696B67" points="400.234,303.83 352.487,331.206 352.593,329.215 400.234,302.788 		"/>
	</g>
	<polygon fill="#75726F" points="251.134,291.064 442.555,183.708 442.554,172.69 442.554,137.407 526.128,183.244 290.338,315.697 
			"/>
	<g>
		<polygon fill="#4C4C4B" points="230.814,376.394 199.521,394.335 199.521,314.307 230.814,296.949 		"/>
		<polygon fill="#696B67" points="221.347,381.615 221.794,381.747 221.794,302.026 221.347,302.294 		"/>
		<polygon fill="#848077" points="230.366,376.539 230.814,376.67 230.814,296.949 230.366,297.217 		"/>
		<polygon fill="#696B67" points="210.74,387.439 211.187,387.571 211.187,307.85 210.74,308.118 		"/>
		<polygon fill="#696B67" points="230.814,314.533 199.451,332.514 199.521,331.207 230.814,313.848 		"/>
		<polygon fill="#696B67" points="230.814,340.805 199.451,358.787 199.521,357.479 230.814,340.121 		"/>
		<polygon fill="#696B67" points="230.814,350.138 199.451,368.12 199.521,366.812 230.814,349.454 		"/>
	</g>
	<g>
		<polygon fill="#4C4C4B" points="70.743,338.907 102.036,356.849 102.036,276.821 70.743,259.463 		"/>
		<polygon fill="#696B67" points="80.21,344.129 79.762,344.26 79.762,264.539 80.21,264.807 		"/>
		<polygon fill="#848077" points="71.19,339.052 70.743,339.184 70.743,259.463 71.19,259.731 		"/>
		<polygon fill="#696B67" points="90.817,349.953 90.369,350.084 90.369,270.363 90.817,270.631 		"/>
		<polygon fill="#696B67" points="70.743,277.047 102.105,295.028 102.036,293.72 70.743,276.362 		"/>
		<polygon fill="#696B67" points="70.743,303.319 102.105,321.3 102.036,319.992 70.743,302.634 		"/>
		<polygon fill="#696B67" points="70.743,312.652 102.105,330.633 102.036,329.325 70.743,311.967 		"/>
	</g>
	<g>
		<polygon fill="#4C4C4B" points="124.572,369.655 155.865,387.596 155.865,307.568 124.572,290.21 		"/>
		<polygon fill="#696B67" points="134.039,374.876 133.592,375.008 133.592,295.287 134.039,295.555 		"/>
		<polygon fill="#848077" points="125.02,369.8 124.572,369.931 124.572,290.21 125.02,290.478 		"/>
		<polygon fill="#696B67" points="144.646,380.7 144.199,380.832 144.199,301.111 144.646,301.379 		"/>
		<polygon fill="#696B67" points="124.572,307.794 155.934,325.775 155.865,324.468 124.572,307.11 		"/>
		<polygon fill="#696B67" points="124.572,334.067 155.934,352.048 155.865,350.74 124.572,333.382 		"/>
		<polygon fill="#696B67" points="124.572,343.4 155.934,361.381 155.865,360.073 124.572,342.715 		"/>
	</g>
</g>
</svg>
