<?xml version="1.0" encoding="utf-8"?>
<!-- Generator: Adobe Illustrator 21.0.0, SVG Export Plug-In . SVG Version: 6.00 Build 0)  -->
<svg version="1.1" id="图层_1" xmlns="http://www.w3.org/2000/svg" xmlns:xlink="http://www.w3.org/1999/xlink" x="0px" y="0px"
	 viewBox="0 0 600 600" enable-background="new 0 0 600 600" xml:space="preserve">
<rect x="-1" opacity="0" fill="#39B54A" width="600" height="600"/>
<g>
</g>
<g>
	<polygon fill="#C9C2C0" points="462.029,426.047 545.715,402.123 557,298.74 380.339,247.565 271.039,426.047 	"/>
	<polygon fill="#A09388" points="217.623,396.758 254.882,416.18 271.039,426.047 300.373,408.642 462.624,309.249 423.31,280.016 	
		"/>
	<polygon fill="#DEDBD8" points="77.846,309.787 74.889,162.614 220.268,248.882 217.623,396.758 	"/>
	<polygon fill="#B5AAA7" points="423.31,280.016 217.623,396.758 220.268,248.882 423.31,182.774 	"/>
	<polygon fill="#4C4C4B" points="324.455,252.934 324.455,323.06 362.58,302.914 364.465,229.52 	"/>
	<polygon fill="#56514C" points="471.561,152.533 375.193,153.34 177.349,41.515 285.679,41.515 	"/>
	<polygon fill="#979287" points="429.762,311.131 429.837,178.876 459.599,166.814 462.624,309.249 445.554,319.229 	"/>
	<polygon fill="#5C5657" points="445.554,319.229 462.624,309.249 462.624,164.663 445.554,172.593 	"/>
	<polygon fill="#979287" points="358.258,301.521 362.58,302.914 364.465,229.52 358.258,233.153 	"/>
	<polygon fill="#A09388" points="324.455,318.658 358.258,301.521 362.044,302.741 324.455,323.06 	"/>
	<polygon fill="#75726F" points="77.846,309.787 77.846,304.142 217.761,389.019 217.623,396.758 	"/>
	<polygon fill="#47403D" points="423.31,280.016 217.623,396.758 217.761,389.019 423.31,273.941 	"/>
	<polygon fill="#DEDBD8" points="257.061,417.511 257.061,265.606 293.081,272.058 293.081,412.968 271.039,426.047 	"/>
	<polygon fill="#5C5657" points="271.039,426.047 271.039,267.449 293.081,256.159 293.081,412.968 	"/>
	<polygon fill="#47403D" points="268.744,281.965 264.712,274.304 374.387,153.34 470.755,152.533 470.755,161.135 	"/>
	<polygon fill="#75726F" points="69.825,159.253 177.349,41.515 375.193,153.34 265.519,275.379 	"/>
	<polygon fill="#56514F" points="71.371,165.436 69.825,159.253 265.519,275.379 268.744,281.965 	"/>
	<polygon fill="#75726F" points="257.061,405.618 257.061,417.511 271.039,426.047 271.039,412.741 	"/>
	<polygon fill="#47403D" points="293.081,412.968 293.081,400.376 271.039,412.741 271.039,426.047 	"/>
	<polygon fill="#47403D" points="429.762,311.131 429.762,298.674 445.554,305.721 445.554,319.706 	"/>
	<polygon fill="#2D2928" points="462.624,309.249 445.554,319.706 445.554,305.721 462.624,297.388 	"/>
</g>
</svg>
