<?xml version="1.0" encoding="utf-8"?>
<!-- Generator: Adobe Illustrator 21.0.0, SVG Export Plug-In . SVG Version: 6.00 Build 0)  -->
<svg version="1.1" id="图层_1" xmlns="http://www.w3.org/2000/svg" xmlns:xlink="http://www.w3.org/1999/xlink" x="0px" y="0px"
	 viewBox="0 0 600 600" enable-background="new 0 0 600 600" xml:space="preserve">
<rect x="-1" opacity="0" fill="#39B54A" width="600" height="600"/>
<g>
</g>
<g>
	<polygon fill="#C9C2C0" points="240.189,398 406.191,383.926 583.313,268.632 461.755,220.92 	"/>
	<polygon fill="#DEDBD8" points="54.819,171.325 240.189,279.93 240.189,398 54.819,292.663 	"/>
	<polygon fill="#B5AAA7" points="461.755,267.936 240.189,398 240.189,279.93 461.755,153.134 	"/>
	<polygon fill="#EBEBE3" points="54.819,171.325 267.235,50.411 461.755,153.134 240.189,279.93 	"/>
	<polygon fill="#696B67" points="60.821,194.438 230.276,293.389 230.276,358.981 60.821,262.89 	"/>
	<polygon fill="#EFEFED" points="230.276,358.981 230.276,356.984 62.5,262.685 60.821,262.89 	"/>
	<polygon fill="#7E817E" points="230.276,324.558 230.276,323.549 62.538,226.794 62.538,227.438 	"/>
	<polygon fill="#7E817E" points="109.497,289.17 110.573,289.874 110.573,223.943 109.497,223.399 	"/>
	<polygon fill="#7E817E" points="91.929,279.513 93.004,280.217 93.004,213.691 91.929,213.147 	"/>
	<polygon fill="#7E817E" points="144.634,309.111 145.709,309.815 145.709,244.063 144.634,243.519 	"/>
	<polygon fill="#7E817E" points="163.279,319.574 164.354,320.278 164.354,254.525 163.279,253.981 	"/>
	<polygon fill="#7E817E" points="183.348,331.469 184.423,332.173 184.423,266.638 183.348,266.093 	"/>
	<polygon fill="#7E817E" points="206.108,344.281 207.183,344.985 207.183,279.812 206.108,279.268 	"/>
	<polygon fill="#7E817E" points="127.066,299.115 128.141,299.819 128.141,234.364 127.066,233.82 	"/>
	<g>
		<polygon fill="#4B4C4A" points="431.977,204.803 347.249,254.279 347.249,293.728 431.977,247.112 		"/>
		<polygon fill="#47403D" points="431.977,247.112 430.261,247.957 430.261,205.836 431.977,204.803 		"/>
		<polygon fill="#C9C2C0" points="347.249,295.054 347.249,293.058 430.298,246.907 431.977,247.112 		"/>
		<polygon fill="#696B67" points="347.249,276.318 347.249,275.309 430.261,226.702 430.261,227.346 		"/>
		<polygon fill="#696B67" points="418.437,253.707 417.362,254.411 417.362,213.591 418.437,213.047 		"/>
		<polygon fill="#696B67" points="383.301,273.3 382.226,274.004 382.226,234.308 383.301,233.764 		"/>
		<polygon fill="#696B67" points="400.869,263.642 399.794,264.346 399.794,224.056 400.869,223.512 		"/>
		<polygon fill="#696B67" points="365.733,283.244 364.658,283.948 364.658,244.73 365.733,244.185 		"/>
	</g>
	<g>
		<polygon fill="#979287" points="153.034,152.506 128.158,166.272 156.052,182.122 180.064,168.007 		"/>
		<polygon fill="#B5AAA7" points="128.158,166.272 128.158,173.894 156.052,190.145 156.052,182.122 		"/>
		<polygon fill="#75726F" points="180.064,168.007 156.053,182.111 156.052,190.145 180.062,174.924 		"/>
	</g>
	<g>
		<polygon fill="#979287" points="340.783,116.517 311.867,132.519 344.292,150.944 372.204,134.536 		"/>
		<polygon fill="#B5AAA7" points="311.867,132.519 311.867,141.379 344.292,160.27 344.292,150.944 		"/>
		<polygon fill="#75726F" points="372.204,134.536 344.293,150.931 344.292,160.27 372.202,142.576 		"/>
	</g>
	<polygon fill="#4C4C4B" points="322.494,308.174 263.773,341.876 263.826,383.926 322.545,349.69 	"/>
	<polygon fill="#696B67" points="295.543,365.297 297.259,364.218 297.259,322.621 295.543,323.669 	"/>
	<polygon fill="#47403D" points="320.829,350.85 322.545,349.77 322.545,308.174 320.829,309.222 	"/>
	<polygon fill="#665E5B" points="60.821,262.889 62.354,262.685 62.538,195.471 60.821,194.438 	"/>
	<polygon fill="#7E817E" points="74.361,269.378 75.436,270.082 75.436,203.025 74.361,202.481 	"/>
</g>
</svg>
