<svg id="图层_1" xmlns="http://www.w3.org/2000/svg" viewBox="0 0 170 269"><style>.st1{fill:#f3dcbd}.st5{fill:#12a077}.st8{fill:#fff}.st9{fill:#29384d}.st10{fill:#e2c29f}.st11{fill:none}.st12{fill:#607fab}.st13{fill:#ee8578}.st14{fill:#e2c3a0}.st15{fill:#855938}.st16{fill:#dddbda}.st17{fill:#cbc8c4}.st18{fill:#e77a76}.st19{fill:#2b1912}</style><ellipse cx="95.5" cy="247.5" rx="51.5" ry="8.5" fill="#8b8b8c"/><path class="st1" d="M8.7 98.4c.5-.7 1.4-.8 2.1-.4l5.5 3.8c.4.1.6.3.6.3.2-.4-.1-.8.9-1.5s2.3 1.2 2.3 1.2l1.9.8c3.7 1 3.1 6.1 3.1 6.1l2.2 1.9-3 6.4-3.3-1.9-1.7.2c-6 .3-8.7-5.1-8.7-5.1s-.8-1.8-.3-2.5 1.1-.5 1.1-.5 0-1.3.4-2.1 1.9-.7 1.9-.7-.1-.3 0-.8l-4.6-3.1c-.7-.5-.8-1.4-.4-2.1z"/><path d="M85.5 75.9h18.7v4.4h.1c.7 1.5 1.6 2.8 2.7 4-3.1-.9-18.5-5.4-21.4-7.6v-.8z" fill="#d1b390"/><path d="M85.5 83v-6.2c2.9 2.2 18.2 6.7 21.4 7.6 1.2 1.4 2.7 2.5 4.4 3.3-1.8 2.6.2 8-2.6 9.5l-2 3.9-1.6 2.8-10.8 15.7-8.7-17-2.1-2-1.1-2.7-2.4-2.7c-2.6-1.5.9-5.1-.8-7.5 2.5-1.3 4.8-2.2 6.3-4.7z" fill="#f1dabc"/><path d="M70.5 145.5l2.1 80.8h8.5s.4-54.8 14.5-54.8v-29l-25.1 3z" fill="#4f6a95"/><path class="st5" d="M74.9 86c4.2-1.2 7.4-1.9 7.4-1.9l9 5.3 4.5.5 1.1 58.8H70l-3.5-40.9c3.6-3.2 10.1-10.6 8.4-21.8z"/><path class="st5" d="M53.7 122.4c5.3-1.9 12.3-10 15.9-14.8 2.7-3.6 5.7-6.9 5.8-7.4.8-2.4 1.6-4.8 2.2-7 11.2-11.4-6.7-7.8-12.5-3.6-5.8 4.2-8.5 12.5-8.5 12.7-.4 2.7-1.2 5.4-2.7 7.6-1.1 1.3-2.3 2.2-4.1 2.9-6.5 2.3-14.1.8-23.5-4.5l-5 8.9c6.4 3.6 12.5 5.8 18.1 6.6 5.1.6 9.9.2 14.3-1.4z"/><path d="M120.3 145.5l-2.1 80.8h-8.5s-.3-54.8-14.4-54.8v-29l25 3z" fill="#3c5983"/><path class="st1" d="M132.8 137.3l-1.4 2.6s-5.1.6-5.2 4.4l-.3 2s-1.5 1.8-.6 2.6 1.3.5 1.7.5c0 0-.6 2 .5 2.6 1.1.6 2.5 0 2.5 0s.2 1.4 1.1 1.6c.9.2 2.1-.1 2.1-.1s-.1.6.7 1c.8.3 2.4-.9 2.4-.9s4.6-3.9 2.9-9.7l-.6-1.6 1-3.6-6.8-1.4z"/><path d="M146 109.9c-1.9-5.3-5.5-10-10.3-13.6-3.6-2.7-11.4-8-11.9-8.1-6.9-2.4-14.4-4.1-14.4-4.1l-9 5.3-4.5.5-1.1 58.8h26.9l3.6-41.6c.2 0 .4-.1.6-.1 2.7.4 5.4 1.2 7.6 2.7 1.3 1.1 2.2 2.3 2.9 4.1 2.3 6.5.8 14.1-4.5 23.5l8.9 5c3.6-6.4 5.8-12.5 6.6-18.1.6-5 .1-9.9-1.4-14.3z" fill="#00946e"/><path class="st8" d="M133.2 242.9s1.5.3 1.4 2.8c-.1 2.6-7.4 4.4-13 3.2-5.5-1.2-15.3-6.4-15.3-6.4s-.4-2.8.4-3.3c.9-.5 26.5 3.7 26.5 3.7z"/><path class="st9" d="M118 233.3s2.2-.4 5.6 1.8c3.3 2.2 10 2.2 10.5 8.7 0 0-1.4 2.4-7.4 2.4s-19.5-5.8-19.5-5.8-1.9-6 1.7-6.7l9.1-.4z"/><path class="st10" d="M109.9 231.5s-3.3 4.8 2.5 5.4c0 0 3.1-3.7 5.7-3.6v-3l-8-1.7-.2 2.9z"/><path class="st8" d="M56.8 242.9s-1.5.3-1.4 2.8c.1 2.6 7.4 4.4 13 3.2 5.5-1.2 15.3-6.4 15.3-6.4s.4-2.8-.4-3.3-26.5 3.7-26.5 3.7z"/><path class="st9" d="M72 233.3s-2.2-.4-5.6 1.8c-3.3 2.2-10 2.2-10.5 8.7 0 0 1.4 2.4 7.4 2.4s19.5-5.8 19.5-5.8 1.9-6-1.7-6.7l-9.1-.4z"/><path class="st10" d="M80.1 231.5s3.3 4.8-2.5 5.4c0 0-3.1-3.7-5.7-3.6v-3l8-1.7.2 2.9z"/><path class="st11" d="M101.8 66.3c0 1.4-1.1 2.5-2.5 2.5h-4v-5h4c1.4 0 2.5 1.1 2.5 2.5z"/><path class="st11" d="M91.4 68.8c-1.4 0-2.5-1.1-2.5-2.5s1.1-2.5 2.5-2.5h3.9v5h-3.9z"/><path class="st12" d="M107.4 229.4c0 .9.8 1.7 1.7 1.7h10.1c.9 0 1.7-.8 1.7-1.7v-3.5c0-.9-.8-1.7-1.7-1.7h-10.1c-.9 0-1.7.8-1.7 1.7v3.5zM70.3 229.4c0 .9.8 1.7 1.7 1.7h10.1c.9 0 1.7-.8 1.7-1.7v-3.5c0-.9-.8-1.7-1.7-1.7H71.9c-.9 0-1.7.8-1.7 1.7v3.5z"/><path class="st8" d="M100.1 89.5l-6.7.4-8 .9 3.5 9.5 1.7 13.3 5.1 15.2 9-33.8z"/><path class="st13" d="M96 90l3.7 1.7-1.3 2.8H93.7l-1.3-2.8zM98.3 94.8h-4.6l-2 20 4 14.1 5.2-15.1z"/><path class="st1" d="M73.8 50.7c.5 3.5-.5 6.6-2.2 6.9-1.7.3-3.6-2.4-4.1-5.9-.5-3.6.5-6.7 2.3-7 1.7-.2 3.5 2.4 4 6z"/><path class="st14" d="M117.1 50.4c-.3 3.5.7 6.4 2.3 6.6 1.6.2 3.2-2.5 3.5-6 .3-3.5-.7-6.4-2.3-6.6-1.6-.2-3.2 2.5-3.5 6z"/><path class="st14" d="M95.6 24.1c21-.6 23.4 8.2 23.4 24.6 0 16.7-10.4 30.3-23.4 30.6h-.5V24.1h.5z"/><path class="st1" d="M71.1 48.7c0-16.9 10.2-24.6 23.4-24.6h.5v55.3c-13.2 0-23.9-13.7-23.9-30.7z"/><path class="st11" d="M101.4 67c0 1.4-1.1 2.5-2.5 2.5H95v-4.9h4c1.3-.1 2.4 1 2.4 2.4zM91.2 69.5c-1.4 0-2.5-1.1-2.5-2.5s1.1-2.5 2.5-2.5H95v4.9h-3.8z"/><path class="st15" d="M119.1 50.7s2.4-17.6.6-19.5c-1.8-1.9-2.8-1.3-2.8-1.3s2.3-3.5 1.5-5.1c-.8-1.6-7.4-12.9-27.2-10.4-19.9 2.5-20.9 20.9-20.9 20.9s.5 14.4 1.1 17l1.1-.2 2.1-17.5s2.4 4.3 9.8 1.8 16.4-14.4 30-6.3c0 0 2.1 2.7 2.2 3.9.1 1.2 2.3 14.3 1.4 17.7l1.1-1z"/><path class="st15" d="M114.2 42.9c.4 0 .7-.2.9-.5.2-.5 0-1-.4-1.3-.1 0-1.6-.8-4.1-1.2-2.3-.4-6-.6-10.2.6-.5.1-.8.7-.6 1.2.1.5.7.8 1.2.6 7.5-2.2 12.9.4 13 .4-.1.2 0 .2.2.2zM77.9 42.9c.1 0 .3 0 .4-.1 0 0 1.4-.7 3.7-1 2.1-.3 5.4-.5 9.3.6.5.1 1-.1 1.2-.6.1-.5-.1-1-.6-1.2-4.3-1.2-7.9-1-10.2-.6-2.5.4-4.1 1.2-4.1 1.2-.5.2-.7.8-.4 1.3 0 .2.3.4.7.4zM72.1 51.1c3.3 10.9 9.3 13.7 12 14.4.2-.6 1-2.7 4.6-3.5 1.5-.4 3.2-.8 4.5-.8H97c1.3 0 2.9.3 4.4.7 3.6.8 4.5 2.9 4.7 3.5 2.8-.7 8.7-3.5 12-14.4l1-.5s-1.8 29.9-23.9 30.2h-.1-.1c-22.1-.3-23.9-30.2-23.9-30.2l1 .6z"/><path class="st14" d="M95.6 58.8c0 1 1.2 1.8 2.6 1.8 1.4 0 2.6-.8 2.6-1.8S99.6 57 98.2 57c-1.4 0-2.6.8-2.6 1.8z"/><path class="st1" d="M88.9 58.8c0 1 1.2 1.8 2.6 1.8 1.4 0 2.6-.8 2.6-1.8S92.9 57 91.5 57c-1.4 0-2.6.8-2.6 1.8z"/><path class="st14" d="M97.5 59.7c0 1-1.1 1.8-2.5 1.8V58c1.4 0 2.5.8 2.5 1.7z"/><path class="st1" d="M94.9 57.9c.1 0 .1 0 0 0l.1 3.6h-.1c-1.4 0-2.6-.8-2.6-1.8 0-.9 1.2-1.8 2.6-1.8z"/><path class="st11" d="M96 89.9l.1.1H96z"/><path class="st16" d="M103.3 97.2L96.1 90l7.6 6.2zM95.9 89.8h.1v.1z"/><path class="st8" d="M96 89.8l10.3-6.3 1.2 2.5-3.8 10.2-7.6-6.2-.1-.1z"/><path class="st16" d="M88.8 97.2L96 90l-7.6 6.2z"/><path class="st8" d="M96.1 89.8l-10.3-6.3-1.2 2.5 3.8 10.2L96 90l.1-.1z"/><path class="st17" d="M105.1 84.1l-9.4 44.8 10.7-25.9-2-2.9 5.4.4 1.6-16.1s-4.4-2.2-6.3-.3z"/><path class="st17" d="M86.4 83.6l9.3 45.3-10.6-26.5 2-2.9-5.4.4-1.4-15.6c-.1 0 4.2-2.6 6.1-.7z"/><g><path class="st18" d="M101.3 66.9s-.1.3-.2.7c-.3.9-1.2 2.5-2.8 3.6-.9.6-2 1-3.3 1.1-1.4-.1-2.5-.5-3.3-1.1-1.6-1.1-2.4-2.7-2.8-3.6-.2-.4-.2-.7-.2-.7h12.6z"/><path class="st1" d="M94.9 72.9c-1.3-.1-2.5-.5-3.6-1.2-1.7-1.2-2.6-2.9-2.9-3.9-.2-.4-.2-.7-.2-.7 0-.1 0-.3.1-.4.1-.1.2-.2.4-.2h12.6c.1 0 .3 0 .4.2.1.1.1.3.1.4 0 0-.1.3-.2.7-.4.9-1.2 2.7-2.9 3.9-1.2.6-2.4 1.1-3.8 1.2.1 0 .1 0 0 0 .1 0 0 0 0 0zm-5.6-5.5c.3.8 1.1 2.4 2.6 3.4.9.6 1.9 1 3 1.1 1.1-.1 2.2-.4 3-1 1.5-1 2.3-2.6 2.6-3.4H89.3z"/><path class="st8" d="M91.6 71.2h6.6c-.9.6-2 1-3.3 1.1-1.3 0-2.4-.5-3.3-1.1z"/><g><path class="st8" d="M101.3 66.9s-.1.3-.2.7c0 .1-.1.3-.2.4H89.1c-.1-.2-.1-.3-.2-.4-.2-.4-.2-.7-.2-.7h12.6z"/><path class="st18" d="M100.9 68c-.4.9-1.2 2.3-2.6 3.2h-6.6c-1.4-1-2.2-2.3-2.6-3.2h11.8z"/></g></g><path class="st8" d="M101.9 47.8s2.2 2.1 5 2.1c2.7 0 5-2.1 5-2.1s-2.2-2.1-5-2.1c-2.8-.1-5 2.1-5 2.1zM78.1 47.8s2.2 2.1 5 2.1c2.7 0 5-2.1 5-2.1s-2.2-2.1-5-2.1c-2.8-.1-5 2.1-5 2.1z"/><g><path class="st19" d="M105 47.8c0 1.1.9 2 2 2s2-.9 2-2-.9-2-2-2c-1.1-.1-2 .8-2 2z"/><path class="st8" d="M105.8 47.2c0 .4.3.7.7.7.4 0 .7-.3.7-.7 0-.4-.3-.7-.7-.7-.4 0-.7.3-.7.7z"/></g><g><path class="st19" d="M81.1 47.8c0 1.1.9 2 2 2s2-.9 2-2-.9-2-2-2c-1.1-.1-2 .8-2 2z"/><path class="st8" d="M81.9 47.2c0 .4.3.7.7.7.4 0 .7-.3.7-.7 0-.4-.3-.7-.7-.7-.4 0-.7.3-.7.7z"/></g></svg>