<svg id="图层_1" xmlns="http://www.w3.org/2000/svg" viewBox="0 0 186 303"><style>.st1{fill:#f68d70}.st2{fill:#7699a9}.st4{fill:#231f20}.st5{fill:#2a4973}.st6{fill:#183152}.st7{fill:#fff}.st9{fill:#fbb382}</style><path d="M180.4 290.6c-1.9 3.3-5.5 5.5-9.1 6.6-3.8 1.1-7.9 1.2-11.9 1.3-9.7.1-18.4-1.7-27.6-4.4-11.1-3.3-22.2-6.4-33.4-9.3-18.7-4.9-36.8-11.9-54.4-19.8-5.3-2.4-10.6-2.6-15.6-5.2-2.2-1.1-4.9-2-7.1-.9-1.3.6-2.2 1.8-3 2.9-1.1 1.4-2.2 2.9-3.2 4.3-1.2 1.6-2.5 3.2-4.4 3.7-5.7 1.4-6.7-11-7-14.3-.8-6.5-.4-13.5 5.5-17.4 6.1-4 16.8-2 23.8-1.9 18.2.3 36.7 1.9 53.9 8.2 13.4 4.9 25.5 12.4 37.6 19.8 6.1 3.7 12.1 7.5 18.3 10.9 3.2 1.7 6.4 3.7 9.8 5 3.3 1.3 4.6.4 8.1-.1 3.8-.5 7.2.1 10.9.6 2.9.4 6.7-.3 8.9 2.3 1.6 2 1.3 5 .1 7.3 0 .2-.1.3-.2.4z" fill="#5e6266"/><path class="st1" d="M148.1 126.4l2.1 2.7c2.2 2.7 5.2 4.7 6.8 7.7 1.3 2.4 2.3 4.9 3.1 7.5.2.5 1.1 2.4.9 2.8-.4.8-1.4.1-1.8-.3-1.1-1.2-2.2-2.4-3.4-3.6.2 2.8-.1 5.7-.7 8.5-.1.5-.3 1-.8 1.1-.6.1-.9-.7-1-1.3-.4-2.2-.9-4.4-1.3-6.6-.6 2.2-1.3 4.4-2 6.6-.2.5-.5 1.2-1.1 1.2-.6 0-1-.7-1.1-1.3-.7-3.2-.4-6.8-2.2-9.6-.3 1.2-.8 2.3-1.4 3.3-.3.4-.7.8-1.1.6-.3-.1-.4-.5-.4-.8-.2-2.9.8-5.9.5-8.8-.3-2.7-2.2-5-3.9-7.1-3.5-4.5-7.8-8.6-9.9-14-3.3-8.2-6.7-16.2-6.8-25.1-.1-5.8.1-11.6 1.4-17.3 1.1-5 4.1-8.4 7.3-2.9 3.7 6.3.6 14.4 1.6 21.1 1.2 8.6 4.5 17.2 8.6 24.9 1.9 3.7 4.1 7.3 6.6 10.7z"/><path class="st2" d="M135.2 66.4c1.8 3.8 1.9 8.2 1.9 12.5.1 4.5.1 8.9.2 13.4-4.2.8-8.4 1.6-12.6 2.5l.6-26.1c.1-2.5-.5-7.3 3-7.9 2.9-.7 5.8 3.3 6.9 5.6z"/><path d="M120.7 57.4c.7-.5 1.4-1.1 2.2-1.5 2.4-1.1 5.2-.1 7.7-.9 2.6-.8 4.2-3.5 5.2-6.1 1.7-4.5 1.8-9.2 2.5-13.8.2-1.6-.3-3.2-.1-4.7.3-1.7 2-3.6 3.1-4.8-.6-1-1.6-1.7-2.7-1.9 1.2-2.5 2.4-5.2 4.7-6.9-1.5-.7-3.2-1.1-4.9-1.2.4-2.2 1-4.4 1.9-6.5-12.7-2.6-25.7-6.1-37.7 1.1-3.8 2.3-6.3 5.9-7.7 10.1-.7 2.1-1.1 4.3-1.4 6.5-.2 1.9.8 4.7-1.5 5.5-.9.3-2 .2-3 .1 1.9 3 3.8 6.1 5.7 9.1 1.1 1.7 1.7 3.8 2.7 5.5 1.1 1.8 3.1 3.2 4.8 4.4 3.8 2.8 8.1 5 12.7 6.5 1.3.5 2.7.9 4 .5.8-.3 1.3-.6 1.8-1z" fill="#292728"/><path class="st4" d="M173.9 268.3c.6 0 1.2 0 1.7.3.7.4 1 1.2 1.1 2 .6 3.7-1.5 7.5-4.4 9.8-2.9 2.4-6.6 3.5-10.2 4.6-5.3 1.5-10.7 2.8-16.3 3.3-1.7.1-3.5.2-4.9-.7-2.6-1.6-2.7-5.2-2.6-8.2.2-4.9.5-9.7.7-14.6.1-1.3.1-2.7.8-3.7 1.5-2.4 5.3-2.2 7.4-.4 4.1 3.7 1.6 13.5 7.7 14.5 6 1.1 12.7-6.7 19-6.9z"/><path class="st5" d="M107.4 143.3c.6 11 2.8 21.9 5.7 32.5.1.2.1.4.2.6 4.7 17.1 11.1 33.7 15.5 50.9 2.3 8.8 4 17.8 5.2 26.8.6 4.6 1.6 9.6 1.4 14.3-.1 1.9-1.4 5.7-.2 7.4 3.8 5.2 16.3 2.4 20.8.4.8-.4 1.7-.9 2.1-1.6.5-.8.4-2-.4-2.4-.3-.2-.8-.2-1.1-.3-1.5-.4-2.2-2.1-2.4-3.7-1.6-16.3-5.6-33.1-8.3-49.4-2.9-17.2-5.9-34.4-9.4-51.5-1.2-5.7-2.4-11.4-3.7-17.1l-.3-1.2c-2.5-10.9-2.1-26-15.9-27.5-12.3-1.5-9.6 13.3-9.2 21.8z"/><path class="st6" d="M107.4 143.3c.6 11 2.8 21.9 5.7 32.5.8-1.2 1.5-2.5 2.1-3.8 2.2-4.7 3.8-9.8 7.2-13.7 2.9-3.4 7.2-5.3 10.4-8.3l-.3-1.2c-2.5-10.9-2.1-26-15.9-27.5-12.3-1.3-9.6 13.5-9.2 22z"/><path class="st4" d="M18.1 256.2c-.2 1.5-.4 3-1.2 4.3-.8 1.3-2.3 2.2-3.8 1.8-1.5-.5-2.2-2.1-2.6-3.6-2.8-10.2 0-21 2.8-31.1.2-.7.4-1.5 1-2 .4-.4 1-.5 1.6-.6 6.1-1.1 12.3-2.3 18.4-3.4 4.7-.9 2.6 5.2 1 7.3-1.7 2.3-4.5 3.5-6.6 5.4-6.1 5.6-9.4 13.8-10.6 21.9z"/><path class="st5" d="M37.3 217.6c-4 .8-12.9.7-15.2 4.7-2.6 4.5 2.3 11.9 5.5 14.7.9.8 2.1 1.5 3.2 1.1.5-.2 1-.6 1.4-1 4-3.5 9.6-4.2 14.8-5.2 17.6-3.4 37.4-11.4 49.3-25.5 4.6-5.4 7.7-11.9 10.5-18.5 7.6-18.1 12.8-37.3 15.3-56.9 1.1-8.4-10.3-11-16.6-9.6-10.3 2.4-13.4 15.1-14.4 24.1-1.7 14.2-2.2 28.5-4.6 42.7-.6 3.5-1.3 7.2-3.5 9.9-1.3 1.5-3 2.7-4.7 3.7-12.7 7.9-26.6 12.7-41 15.8z"/><path class="st7" d="M94.6 134.7c.1 4.9.9 8 7.8 9.3 2.7.5 5.5.8 8.2.7 4.2-.2 8.3-1.6 12.1-3.4 1.9-.9 7.2-1.4 7.9-3.5.1-.4.1-.9.1-1.4-.1-10.2.2-20.3.7-30.5.3-6.3.5-12.6.6-18.9.1-7.3 2.2-19.5-2.8-25.7-.9-1-2-1.6-3.6-1.6-1.3 0-2.7-.1-4-.1-3.1-.1-6.2-.1-9.2.1-3.8.3-7.6.9-11.2 2.2-1.9.7-3.9 1.7-5.2 3.4-.6.8-1 1.6-1.3 2.6-.2.7-.4 1.4-.6 2.2-1.1 5.5 0 11.9.1 17.6 0 1.1.1 2.1.1 3.1.1 2.3.1 4.5.2 6.7v4.2c0 9.3.1 18.6.1 27.9v5.1z"/><path class="st7" d="M131.5 136.6c.5 2.5.1 4.3.9 6.8 1.3 3.7-.4 4.7-3.7 6.6-3.7 2.1-7.8 3.6-12 4.3-8.4 1.4-17.4 0-24.8-4.3-.6-.4-1.3-.8-1.6-1.5-.4-1 .2-2.2.6-3.2 1.7-3.8 1.6-8.3 3.1-12.1.4-1.1 1.1-2.2 2-2.9 1.5-1.1 3.6-1.1 5.5-1 6.4.3 12.7.5 19.1.8 2.2.1 6.2-.5 7.9.8 1 .6 2.8 4.4 3 5.7z"/><path d="M108.6 147.2c5.3-.2 10.6-1 15.7-2.4 2.3-.6 5.3-1.2 7.3-2.4 2.4-1.5 1.7-2.4 1.2-5.3-1.6-10.3-2-20.7-1.4-31.1.3-6.3.5-12.6.6-18.9.1-7.3 2.2-19.5-2.8-25.7-.5-.6-1.1-1-1.8-1.3 1.5 3.6 1.8 7.9 1.7 11.8-.1 2.3-.4 4.7-1.5 6.8-1.1 2.1-3.1 3.8-5.4 4.1-2.4.3-4.7-.9-6.3-2.7-1.6-1.7-2.7-3.9-3.6-6.1-2-4.5-3.9-9-5.7-13.5-1.8.3-3.6.8-5.4 1.5-1.9.7-3.9 1.7-5.2 3.4-.6.8-1 1.6-1.3 2.6-.2.7-.4 1.4-.6 2.2-1.1 5.5 0 11.9.1 17.6 0 17.6 0 34.7-3.3 52.1-.1.8-.3 1.5-.1 2.3.4 1.6 2 2.6 3.5 3.2 4.5 1.6 9.5 2 14.3 1.8z" fill="#95c1d6"/><path class="st9" d="M86.7 98.6c-1.6 5.9-2.6 12-3.4 18-.7 5.5-1.4 10.9-.1 16.3 2.4 10.1 5.7 20 9.8 29.5.1.3.3.7.6.9.4.3 1 .1 1.5 0 1.3-.4 2.5-.9 3.7-1.5.3-.2.7-.4.8-.7.1-.3 0-.6-.1-.8-1.7-5.4-2.8-11-4.2-16.5-1.2-4.8-2.5-9.6-2.8-14.6-.4-6.5.7-13.1 2.7-19.3 1.8-5.6 2.7-11.4 5.1-17 1.7-3.8 5.3-7.6 3.9-12.4-1.7-5.4-8.6-2.2-10.5 1.1-3.2 5.2-5.4 10.9-7 17z"/><path class="st2" d="M86.3 97.6c1.3.4 2.6.8 3.9 1.1.5.1 1 .3 1.4.4 1 .3 2 .6 2.9.9h.1c1.6.5 3.3.9 4.8 1.3.5.1 1 .3 1.5.4.4.1.6.1 1 .1 1.1-.1 1.4-1.6 1.6-2.7.4-5.3 1.2-10.5 2.4-15.6.3-1 .5-2.1.8-3.1.7-2.7 1.5-5.4 1.3-8.2-.1-1.9-1.2-3.9-2.8-5.4-2.3-2.3-5.7-3.3-8.5-1.2-.9.6-1.5 1.3-2 2.2-1 1.4-1.6 3.1-2.2 4.8-2.6 7.7-4.6 15.6-5.9 23.5-.2.6-.3 1-.3 1.5z"/><path class="st9" d="M123.9 64.4c.8 2.1 0 4.8-2 6-.4.2-.9.4-1.4.6-.2.1-.5.1-.7.2-1.9.4-4 .3-5.7-.6-1.6-.9-2.9-2.7-2.8-4.5 0-.6.1-1.1.3-1.7.4-1.3.6-2.8.8-4.1.1-.5.2-1.1.3-1.6.6-2.9 1.2-5.9 2.2-8.7.1-.3.2-.5.3-.7 0-.1.1-.1.1-.2s.1-.1.1-.1l.2-.2c.4-.3.9-.3 1.3-.4 1.9 0 4.9.3 6.5 1.5h.1c.6.5.8 1 .9 1.6 0 1.1-.8 2.3-1.3 3.5-.6 1.5-1.4 3.3-1.4 5 0 .8.2 1.4.6 2.1.3.6.8 1.1 1.2 1.6.1.1.3.4.4.7z"/><path class="st1" d="M123.4 63.6c.2.3.3.6.4.9-.1 0-.1 0-.2.1-1.1.3-2.2 0-3.3-.4-2.2-.8-5.6-2.2-7.2-4.5-.2-.3-.4-.7-.5-1 .6-2.9 1.2-5.9 2.2-8.7.1-.3.2-.5.3-.7 0-.1.1-.1.1-.2s.1-.1.1-.1l.2-.2c.4-.3.9-.3 1.3-.4 1.7-.2 5.1.2 6.4 1.4l.1.1c.5.5.8 1 .9 1.6 0 1.1-.8 2.3-1.3 3.5-.6 1.5-1.4 3.3-1.4 5 0 .8.2 1.4.6 2.1.4.5.9.9 1.3 1.5z"/><path class="st9" d="M111.6 52.8c1 1 2 1.9 3 2.6 3.9 2.8 8.1 5.1 13.1 4.2 4.6-.8 8-4.6 9-9.1 1.3-6-1.1-11.8-1.1-17.8 0-2.9 0-5.9-.5-8.8-.5-3.1-1.2-5.1-4.1-6.4-2.8-1.3-6.2-1.3-9.1-.3-4.1 1.5-7.3 4.9-9.1 8.9-1.8 4-2.2 8.4-1.9 12.8-1.6-2.5-5.2-3.9-7.4-1.6-2.3 2.4.9 7 2.4 8.9 1.6 2.1 3.6 4.6 5.7 6.6z"/><path class="st5" d="M92.2 162.7c-.1.1-.3.1-.4.3-.1.2-.1.4-.1.6.1 1.7.4 3.6 1.9 4.5.5.3 1 .4 1.5.5 1 .2 2 .2 3-.1 1.7-.5 3-1.9 3.7-3.5.6-1.5 1.4-6.3-1.1-6.2-1.3.1-3 1.3-4.1 1.9-1.4.6-2.9 1.3-4.4 2z"/><path class="st6" d="M94.2 167.4c-1.2.4-2.1 1.4-2.5 2.6-.5 1.2-.5 2.4-.5 3.7 0 .4.1 1 .6 1.1.3 0 .5-.1.7-.3 1.4-1.3 1.9-3.7 3.8-4.4 1.1-.4 2.3-.1 3.4-.4 1.7-.5 5.6-6.4 3.1-6-1.1.2-2.4 1.8-3.4 2.3-1.7 1-3.4.8-5.2 1.4z"/></svg>