<svg id="图层_1" xmlns="http://www.w3.org/2000/svg" viewBox="0 0 750 1249"><style>.st1{fill:#fff4f4}.st2,.st3,.st5,.st6{fill-rule:evenodd;clip-rule:evenodd;fill:#8dccd9}.st3,.st5,.st6{fill:#71ad28}.st5,.st6{fill:#bfc9d3}.st6{fill:#2e687c}.st11,.st14,.st15,.st16,.st17,.st8,.st9{fill-rule:evenodd;clip-rule:evenodd;fill:#e6e6e6}.st11,.st14,.st15,.st16,.st17,.st9{fill:#c9c9c9}.st11,.st14,.st15,.st16,.st17{fill:#f2f4f3}.st14,.st15,.st16,.st17{fill:#786200}.st15,.st16,.st17{fill:#507b1c}.st16,.st17{fill:#83c236}.st17{fill:#255c72}.st20{font-family:&apos;PingFang-SC-Bold&apos;}.st21{font-size:42.25px}.st22{letter-spacing:2}.st23{fill:#fff}.st27{font-size:29.2622px}.st28{letter-spacing:1}.st29{fill:#966847}.st30{fill:#5b7488}.st31{fill:#a87552}</style><path d="M754.3 1251H-20.4c-20.9 0-37.9-17.1-37.9-37.9v-50.3c0-20.9 17.1-37.9 37.9-37.9h774.7c20.9 0 37.9 17.1 37.9 37.9v50.3c0 20.8-17 37.9-37.9 37.9z" fill="#73787f"/><path class="st1" d="M97.9 1192.7H23.1c-1.6 0-2.9-1.3-2.9-2.9v-3.8c0-1.6 1.3-2.9 2.9-2.9h74.8c1.6 0 2.9 1.3 2.9 2.9v3.8c0 1.6-1.4 2.9-2.9 2.9zM255.9 1192.7h-74.8c-1.6 0-2.9-1.3-2.9-2.9v-3.8c0-1.6 1.3-2.9 2.9-2.9h74.8c1.6 0 2.9 1.3 2.9 2.9v3.8c0 1.6-1.3 2.9-2.9 2.9zM408.9 1192.7h-74.8c-1.6 0-2.9-1.3-2.9-2.9v-3.8c0-1.6 1.3-2.9 2.9-2.9h74.8c1.6 0 2.9 1.3 2.9 2.9v3.8c-.1 1.6-1.4 2.9-2.9 2.9zM566.9 1192.7h-74.8c-1.6 0-2.9-1.3-2.9-2.9v-3.8c0-1.6 1.3-2.9 2.9-2.9h74.8c1.6 0 2.9 1.3 2.9 2.9v3.8c0 1.6-1.3 2.9-2.9 2.9zM726.6 1192.7h-74.8c-1.6 0-2.9-1.3-2.9-2.9v-3.8c0-1.6 1.3-2.9 2.9-2.9h74.8c1.6 0 2.9 1.3 2.9 2.9v3.8c0 1.6-1.3 2.9-2.9 2.9z"/><path class="st2" d="M861 501.7h-57.7v20.7H787v19.7h-16.6v26.8h-19.6V1049H861z"/><path class="st2" d="M640 267.1l17 100.2h74.3v35.2h20V1049H528.8V402.5h19.9v-35.2H623z"/><path class="st2" d="M512.8 358.5v-35.4h-22v-26h-21.4v-27.2H319.3v27.2H298v26h-22v35.4h-25.8V908h288.4V358.5zM-38.4 356.9c-33.2 0-62 20.9-76.3 51.4h-14.1v574H55.5v-574H37.8c-14.2-30.5-43-51.4-76.2-51.4zM70.3 260.8h70.6l52-35.8.8 35.8h1.6V1049h-125z"/><path class="st2" d="M-128.8 602.3h431.4v419.6h-431.4z"/><path class="st3" d="M-120.6 1009.7H882.2c23 0 41.8 20.5 41.8 45.6v24.1c0 25.1-18.8 45.6-41.8 45.6H-120.6c-23 0-41.8-20.5-41.8-45.6v-24.1c0-25.1 18.8-45.6 41.8-45.6z"/><path fill-rule="evenodd" clip-rule="evenodd" fill="#9ea0a3" d="M195.4 874.9h378.9l49.3 84.8H146.1z"/><path class="st5" d="M275.9 399.9L41.7 485.8v525.4h234.2z"/><path class="st6" d="M258.6 422L59.1 496v479.3h199.5z"/><path class="st5" d="M51.3 947.5h207.3v5.6H51.3zM51.3 919.7h207.3v5.6H51.3zM51.3 891.9h207.3v5.6H51.3zM51.3 864.2h207.3v5.6H51.3zM51.3 836.4h207.3v5.6H51.3zM51.3 808.6h207.3v5.6H51.3zM51.3 780.8h207.3v5.6H51.3zM51.3 753h207.3v5.6H51.3zM51.3 725.2h207.3v5.6H51.3zM51.3 697.5h207.3v5.6H51.3zM51.3 669.7h207.3v5.6H51.3zM51.3 641.9h207.3v5.6H51.3zM51.3 614.1h207.3v5.6H51.3zM51.3 586.3h207.3v5.6H51.3zM51.3 558.5h207.3v5.6H51.3zM51.3 530.7h207.3v5.6H51.3zM51.3 503h207.3v5.6H51.3zM87.1 475.2h171.5v5.6H87.1zM166.2 447.4h92.4v5.6h-92.4zM485.7 337l234.2 94.7v579.5H485.7z"/><path class="st6" d="M503.1 361.4L702.6 443v528.6H503.1z"/><path class="st5" d="M503.1 940.9h207.3v6.1H503.1zM503.1 910.3h207.3v6.1H503.1zM503.1 879.7h207.3v6.1H503.1zM503.1 849h207.3v6.1H503.1zM503.1 818.4h207.3v6.1H503.1zM503.1 787.7h207.3v6.1H503.1zM503.1 757.1h207.3v6.1H503.1zM503.1 726.4h207.3v6.1H503.1zM503.1 695.8h207.3v6.1H503.1zM503.1 665.2h207.3v6.1H503.1zM503.1 634.5h207.3v6.1H503.1zM503.1 603.9h207.3v6.1H503.1zM503.1 573.2h207.3v6.1H503.1zM503.1 542.6h207.3v6.1H503.1zM503.1 511.9h207.3v6.1H503.1zM503.1 481.3h207.3v6.1H503.1zM503.1 450.7h207.3v6.1H503.1zM503.1 420h171.5v6.1H503.1zM503.1 389.4h92.4v6.1h-92.4z"/><path opacity=".5" fill-rule="evenodd" clip-rule="evenodd" fill="#2e687c" d="M485.7 591.2l47.3-38.7 186.9 153.1v305.6H485.7V676.5z"/><path class="st6" d="M213.6 940.7H548v62.2H213.6z"/><g><path class="st5" d="M214.6 969.2h332.5v5.3H214.6z"/><path class="st5" d="M484.6 940.7h3.2v62.8h-3.2zM514.7 940.7h3.2v62.8h-3.2zM544.8 940.7h3.2v62.8h-3.2zM213.6 940.7h3.2v62.8h-3.2zM243.7 940.7h3.2v62.8h-3.2zM273.8 940.7h3.2v62.8h-3.2zM303.9 940.7h3.2v62.8h-3.2z"/><path class="st8" d="M334 940.7h3.2v62.8H334zM364.2 940.7h3.2v62.8h-3.2zM394.3 940.7h3.2v62.8h-3.2zM424.4 940.7h3.2v62.8h-3.2z"/><path class="st5" d="M454.5 940.7h3.2v62.8h-3.2z"/></g><path class="st9" d="M247.6 668.1h266.5v23.1H247.6z"/><path class="st5" d="M211.1 691.3h339.4v254.5H211.1z"/><g><path class="st6" d="M217.8 709.5h326v14.4h-326zM217.8 726.9h326v14.4h-326zM217.8 744.4h326v14.4h-326zM217.8 761.8h326v14.4h-326zM217.8 779.3h326v14.4h-326zM217.8 796.7h326v14.4h-326zM217.8 814.2h326v14.4h-326zM217.8 831.6h326V846h-326zM217.8 849.1h326v14.4h-326zM217.8 866.5h326v14.4h-326zM217.8 884h326v14.4h-326zM217.8 901.4h326v14.4h-326zM217.8 918.9h326v14.4h-326z"/></g><g><path class="st5" d="M256.4 693.1h12.4v248.2h-12.4zM488.8 693.1h12.4v248.2h-12.4z"/></g><path opacity=".5" fill-rule="evenodd" clip-rule="evenodd" fill="#d6d6d6" d="M514.1 669.3v22H270.8l-23.2-22z"/><path class="st11" d="M228.7 552.5H533V671H228.7z"/><path class="st9" d="M333.9 942.7h93.8v59.7h-93.8z"/><path class="st8" d="M328.3 939.5h105.1v3.2H328.3z"/><path class="st11" d="M346.3 953.4h69v47.6h-69z"/><path class="st6" d="M348.9 955.3h63.9v42.9h-63.9z"/><path class="st11" d="M361.4 954.3h3.2v46.9h-3.2zM397.1 954.3h3.2v46.9h-3.2z"/><path class="st11" d="M347.7 963.6h66.1v2.6h-66.1z"/><path class="st11" d="M379.2 965.5h3.2v33.1h-3.2z"/><g><path class="st11" d="M374.8 973.5h1.6v16.2h-1.6zM385.2 973.5h1.6v16.2h-1.6z"/></g><path opacity=".5" fill-rule="evenodd" clip-rule="evenodd" fill="#595959" d="M328.2 941.9l104.3-.7 72.3 59.1H399.5z"/><path class="st9" d="M204.4 1000.3h352.9v11H204.4z"/><path fill-rule="evenodd" clip-rule="evenodd" fill="#1f4963" d="M236.6 557.9H525v107.2H236.6z"/><g><path class="st11" d="M234.8 557.1h3.4v107.7h-3.4zM266.9 557.1h3.4v107.7h-3.4zM298.9 557.1h3.4v107.7h-3.4zM331 557.1h3.4v107.7H331zM363.1 557.1h3.4v107.7h-3.4zM395.1 557.1h3.4v107.7h-3.4z"/><path class="st11" d="M234.8 660.7h291.5v5.6H234.8zM234.8 635.9h291.5v2.8H234.8zM234.8 608.2h291.5v5.6H234.8zM234.8 583.3h291.5v2.8H234.8zM234.8 557.1h291.5v2.8H234.8z"/><path class="st11" d="M395.1 557.1h3.4v107.7h-3.4zM427.2 557.1h3.4v107.7h-3.4zM459.3 557.1h3.4v107.7h-3.4zM491.3 557.1h3.4v107.7h-3.4zM523.4 557.1h3.4v107.7h-3.4z"/></g><g><path class="st14" d="M44.2 987.2c1.3 0 2.3 1.5 2.3 3.4v48.9c0 1.9-1 3.4-2.3 3.4-1.3 0-2.3-1.5-2.3-3.4v-48.9c0-1.9 1.1-3.4 2.3-3.4z"/><path class="st15" d="M44.2 1008.5c49.3-10.5 7.8-77.6 0-74.2-7.8-3.4-49.3 63.7 0 74.2z"/><path class="st3" d="M44.2 1008.5c32.4-10.5 5.2-77.6 0-74.2-5.1-3.4-32.4 63.7 0 74.2z"/><path class="st16" d="M44.2 1008.5c8-10.5 1.3-77.6 0-74.2-1.2-3.4-8 63.7 0 74.2z"/><path class="st15" d="M37.8 1040.2h12.9c1.1 0 2.1 1.4 2.1 3 0 1.7-.9 3-2.1 3H37.8c-1.1 0-2.1-1.4-2.1-3s1-3 2.1-3z"/></g><g><path class="st14" d="M704 988.7c1.3 0 2.4 1.6 2.4 3.5v51.6c0 1.9-1.1 3.5-2.4 3.5-1.3 0-2.4-1.6-2.4-3.5v-51.6c0-1.9 1.1-3.5 2.4-3.5z"/><path class="st15" d="M704 1011.2c52-11 8.3-81.8 0-78.2-8.2-3.7-51.9 67.1 0 78.2z"/><path class="st3" d="M704 1011.2c34.2-11 5.4-81.8 0-78.2-5.4-3.7-34.2 67.1 0 78.2z"/><path class="st16" d="M704 1011.2c8.5-11 1.3-81.8 0-78.2-1.3-3.7-8.4 67.1 0 78.2z"/><path class="st15" d="M697.3 1044.5h13.6c1.2 0 2.2 1.4 2.2 3.2 0 1.8-1 3.2-2.2 3.2h-13.6c-1.2 0-2.2-1.4-2.2-3.2 0-1.7 1-3.2 2.2-3.2z"/></g><path class="st17" d="M285 524h13v28h-13zM463 524h13v28h-13z"/><path fill-rule="evenodd" clip-rule="evenodd" fill="#153849" d="M262 467h236v63H262z"/><text transform="translate(291.2749 512.5623)" class="st20 st21 st22" fill="#0d242d">事项园区</text><text transform="translate(291.2749 513.5623)" class="st23 st20 st21 st22">事项园区</text><g><path opacity=".7" fill="#515151" d="M123.6 499V867.2l31.7-14.7 31.7 14.7V499l-31.7 14.7z"/><linearGradient id="SVGID_1_" gradientUnits="userSpaceOnUse" x1="616.6552" y1="110.0068" x2="248.4109" y2="110.0068" gradientTransform="matrix(0 -1 1 0 33.2895 1105.645)"><stop offset="0" stop-color="#9a1c22"/><stop offset=".5" stop-color="#c42038"/><stop offset="1" stop-color="#9a1c22"/></linearGradient><path fill="url(#SVGID_1_)" d="M111.6 489V857.2l31.7-14.7 31.7 14.7V489l-31.7 14.7z"/><path fill="#9b1a18" d="M167.9 848l.6-.6-25.2-11.7-23.6 11V499.6l23.6 10.9 23.6-10.9V848h1l.6-.6-.6.6h1.1V496.8l-25.7 11.9-25.7-11.9v352.6l25.7-11.9 25.7 11.9V848z"/></g><text transform="translate(127.3335 542.5112)"><tspan x="0" y="0" class="st23 st20 st27 st28">让</tspan><tspan x="0" y="35.1" class="st23 st20 st27 st28">世</tspan><tspan x="0" y="70.2" class="st23 st20 st27 st28">上</tspan><tspan x="0" y="105.3" class="st23 st20 st27 st28">没</tspan><tspan x="0" y="140.5" class="st23 st20 st27 st28">有</tspan><tspan x="0" y="175.6" class="st23 st20 st27 st28">难</tspan><tspan x="0" y="210.7" class="st23 st20 st27 st28">管</tspan><tspan x="0" y="245.8" class="st23 st20 st27 st28">的</tspan><tspan x="0" y="280.9" class="st23 st20 st27 st28">事</tspan></text><text transform="translate(-816.7656 1009.0732)" class="st20" font-size="12"></text><g><path class="st29" d="M79.3 1010.4h161.8v5.1H79.3z"/><path class="st30" d="M93.6 975.5c-.8-.2-1.6.5-1.7 1.5 0 .3-.9 6.7-1.3 17.7-1.1-.1-2.2.3-3.4.6h-.1c-3.2 1-6.9 5.3-8.2 9.4-1.2 3.9.4 45.9.7 54.3l2.9-.2c-.7-18.9-1.6-50-.9-52.9 1-3.3 4.2-6.5 6.2-7.2l.1-.6c1.3-.4 2-1 2.4-1-.2 4.9 0 41.4 0 45.6l2.9.2c-.1-12-.1-28.2-.1-37.6.1-.2.1-.3.1-.5.1-16.9 1.5-27.2 1.5-27.3.3-1-.3-1.9-1.1-2zM227.9 975.5c.8-.2 1.6.5 1.7 1.5 0 .3.9 6.7 1.3 17.7 1.1-.1 2.2.3 3.4.6h.1c3.2 1 6.9 5.3 8.2 9.4 1.2 3.9-.4 45.9-.7 54.3l-2.9-.2c.7-18.9 1.6-50 .9-52.9-1-3.3-4.2-6.5-6.2-7.2l-.1-.6c-1.3-.4-2-1-2.4-1 .2 4.9 0 41.4 0 45.6l-2.9.2c.1-12 .1-28.2.1-37.6-.1-.2-.1-.3-.1-.5-.1-16.9-1.5-27.2-1.5-27.3-.2-1 .3-1.9 1.1-2z"/><path class="st31" d="M89.7 1007l-8.3 3.5v1.4h158.7v-1.3l-8.9-3.6z"/><path class="st29" d="M86.7 1010.9h9.7v4.6h-9.7zM227.9 1010.9h4.3v4.6h-4.3z"/><path class="st31" d="M88 982.2h144.2v8.6H88zM88 971.5h144.2v8.8H88z"/></g></svg>