<?xml version="1.0" encoding="utf-8"?>
<!-- Generator: Adobe Illustrator 22.0.0, SVG Export Plug-In . SVG Version: 6.00 Build 0)  -->
<svg version="1.1" id="图层_1" xmlns="http://www.w3.org/2000/svg" xmlns:xlink="http://www.w3.org/1999/xlink" x="0px" y="0px"
	 viewBox="0 0 250 250" style="enable-background:new 0 0 250 250;" xml:space="preserve">
<style type="text/css">
	.st0{opacity:0;fill:#FFFFFF;}
	.st1{fill:#FFFFFF;}
	.st2{opacity:0.4;fill:#C5D5E8;}
	.st3{opacity:0.7;}
	.st4{font-family:'PingFang-SC-Heavy';}
	.st5{font-size:14.1253px;}
	.st6{font-size:13.3115px;}
	.st7{fill:#99B5DD;}
	.st8{font-size:11.6475px;}
	.st9{opacity:0.4;}
</style>
<rect x="-0.5" y="-0.2" class="st0" width="250" height="250"/>
<g>
	<rect x="8" y="21" class="st1" width="236.3" height="203"/>
	<rect x="8" y="42.1" class="st2" width="236.3" height="23.3"/>
	<text transform="matrix(1 0 0 1 18.3542 36.1211)" class="st3 st4 st5">2016年6月</text>
	<text transform="matrix(1 0 0 1 18.5388 58.5874)" class="st3 st4 st6">一</text>
	<text transform="matrix(1 0 0 1 51.4479 58.5874)" class="st3 st4 st6">二</text>
	<text transform="matrix(1 0 0 1 84.3566 58.5874)" class="st3 st4 st6">三</text>
	<text transform="matrix(1 0 0 1 117.2653 58.5874)" class="st3 st4 st6">四</text>
	<text transform="matrix(1 0 0 1 150.1745 58.5874)" class="st3 st4 st6">五</text>
	<text transform="matrix(1 0 0 1 183.0837 58.5874)" class="st3 st4 st6">六</text>
	<text transform="matrix(1 0 0 1 215.9929 58.5874)" class="st3 st4 st6">日</text>
	<rect x="174.4" y="24.3" class="st7" width="53.2" height="15.5"/>
	<text transform="matrix(1 0 0 1 177.7224 36.4873)" class="st1 st4 st8">安排记录</text>
	<text transform="matrix(1 0 0 1 17.985 87.5576)" class="st9 st4 st6">28</text>
	<text transform="matrix(1 0 0 1 50.7829 87.5576)" class="st9 st4 st6">29</text>
	<text transform="matrix(1 0 0 1 83.5812 87.5576)" class="st9 st4 st6">30</text>
	<text transform="matrix(1 0 0 1 116.3796 87.5576)" class="st9 st4 st6">31</text>
	<text transform="matrix(1 0 0 1 153.1706 87.5576)" class="st4 st6">1</text>
	<text transform="matrix(1 0 0 1 185.9684 87.5576)" class="st4 st6">2</text>
	<text transform="matrix(1 0 0 1 218.7663 87.5576)" class="st4 st6">3</text>
	<text transform="matrix(1 0 0 1 19.0944 118.6177)" class="st4 st6">4</text>
	<text transform="matrix(1 0 0 1 52.4841 118.6177)" class="st4 st6">5</text>
	<text transform="matrix(1 0 0 1 85.8727 118.6177)" class="st4 st6">6</text>
	<text transform="matrix(1 0 0 1 119.2634 118.6177)" class="st4 st6">7</text>
	<text transform="matrix(1 0 0 1 152.653 118.6177)" class="st4 st6">8</text>
	<text transform="matrix(1 0 0 1 186.0417 118.6177)" class="st4 st6">9</text>
	<text transform="matrix(1 0 0 1 215.4382 118.6177)" class="st4 st6">10</text>
	<text transform="matrix(1 0 0 1 17.985 150.7871)" class="st4 st6">28</text>
	<text transform="matrix(1 0 0 1 50.7829 150.7871)" class="st4 st6">29</text>
	<text transform="matrix(1 0 0 1 83.5812 150.7871)" class="st4 st6">30</text>
	<text transform="matrix(1 0 0 1 116.3796 150.7871)" class="st4 st6">31</text>
	<text transform="matrix(1 0 0 1 153.1706 150.7871)" class="st4 st6">1</text>
	<text transform="matrix(1 0 0 1 185.9684 150.7871)" class="st4 st6">2</text>
	<text transform="matrix(1 0 0 1 218.7663 150.7871)" class="st4 st6">3</text>
	<text transform="matrix(1 0 0 1 17.985 212.9072)" class="st4 st6">28</text>
	<text transform="matrix(1 0 0 1 50.7829 212.9072)" class="st4 st6">29</text>
	<text transform="matrix(1 0 0 1 83.5812 212.9072)" class="st4 st6">30</text>
	<text transform="matrix(1 0 0 1 116.3796 212.9072)" class="st4 st6">31</text>
	<text transform="matrix(1 0 0 1 153.1706 212.9072)" class="st4 st6">1</text>
	<text transform="matrix(1 0 0 1 185.9684 212.9072)" class="st4 st6">2</text>
	<text transform="matrix(1 0 0 1 218.7663 212.9072)" class="st4 st6">3</text>
	<text transform="matrix(1 0 0 1 19.0944 181.8472)" class="st4 st6">4</text>
	<text transform="matrix(1 0 0 1 52.4841 181.8472)" class="st4 st6">5</text>
	<text transform="matrix(1 0 0 1 85.8727 181.8472)" class="st4 st6">6</text>
	<text transform="matrix(1 0 0 1 119.2634 181.8472)" class="st4 st6">7</text>
	<text transform="matrix(1 0 0 1 152.653 181.8472)" class="st4 st6">8</text>
	<text transform="matrix(1 0 0 1 186.0417 181.8472)" class="st4 st6">9</text>
	<text transform="matrix(1 0 0 1 215.4382 181.8472)" class="st4 st6">10</text>
</g>
</svg>
