<?xml version="1.0" encoding="utf-8"?>
<!-- Generator: Adobe Illustrator 22.0.0, SVG Export Plug-In . SVG Version: 6.00 Build 0)  -->
<svg version="1.1" id="图层_1" xmlns="http://www.w3.org/2000/svg" xmlns:xlink="http://www.w3.org/1999/xlink" x="0px" y="0px"
	 viewBox="0 0 100 300.6" style="enable-background:new 0 0 100 300.6;" xml:space="preserve">
<style type="text/css">
	.st0{fill:#FFFFFF;}
	.st1{fill-rule:evenodd;clip-rule:evenodd;fill:#DE8527;}
	.st2{fill-rule:evenodd;clip-rule:evenodd;fill:#B3B3B3;}
	.st3{fill-rule:evenodd;clip-rule:evenodd;fill:#CCCCCC;}
	.st4{fill-rule:evenodd;clip-rule:evenodd;fill:#E6E6E6;}
	.st5{fill-rule:evenodd;clip-rule:evenodd;fill:#FCB245;}
	.st6{fill-rule:evenodd;clip-rule:evenodd;fill:#CECECE;}
	.st7{fill:#ADADAD;}
	.st8{opacity:0.2;fill:#FFFFFF;}
	.st9{fill:#4D4D4D;}
	.st10{fill:#E6E6E6;}
	.st11{fill-rule:evenodd;clip-rule:evenodd;fill:#00A99D;}
</style>
<rect y="0.1" class="st0" width="100" height="300"/>
<g>
	<g>
		<path class="st6" d="M100,290.9c0,3.6-20.9,6.6-46.7,6.6c-25.8,0-46.7-3-46.7-6.6c0-3.6,20.9-6.6,46.7-6.6
			C79.1,284.3,100,287.3,100,290.9z"/>
		<path class="st7" d="M54.6,289.5c0,1.3-0.2,2.3-0.5,2.3h-4.6c-0.3,0-0.5-1-0.5-2.3v-304c0-1.3,0.2-2.3,0.5-2.3h4.6
			c0.3,0,0.5,1,0.5,2.3V289.5z"/>
		<path class="st8" d="M52.1-16.9h2.2c0.3,0,0.4,1.5,0.4,2.8v304c0,1.3-0.1,1.9-0.4,1.9h-2.2"/>
		<g>
			<path class="st7" d="M51.5,63.7c0,0.4-0.4,0.6-1,0.6H30.9c-0.5,0-1-0.3-1-0.6v-2.3c0-0.4,0.4-0.6,1-0.6h19.6c0.5,0,1,0.3,1,0.6
				V63.7z"/>
			<path class="st7" d="M31.1,63.3c0,0.6-0.3,1.1-0.7,1.1h-2.5c-0.4,0-0.7-0.5-0.7-1.1V41.8c0-0.6,0.3-1.1,0.7-1.1h2.5
				c0.4,0,0.7,0.5,0.7,1.1V63.3z"/>
		</g>
		<g>
			<path class="st7" d="M50.1,148.9c0,0.4-0.5,0.6-1.2,0.6H25.3c-0.6,0-1.2-0.3-1.2-0.6v-2.3c0-0.4,0.5-0.6,1.2-0.6H49
				c0.6,0,1.2,0.3,1.2,0.6V148.9z"/>
			<path class="st7" d="M27.6,148.1c0,0.7-0.3,1.3-0.8,1.3H24c-0.4,0-0.8-0.6-0.8-1.3v-25.9c0-0.7,0.3-1.3,0.8-1.3h2.8
				c0.4,0,0.8,0.6,0.8,1.3V148.1z"/>
		</g>
		<g>
			<path class="st7" d="M53.7,112.6c0,0.4,0.5,0.6,1.2,0.6h23.7c0.6,0,1.2-0.3,1.2-0.6v-2.3c0-0.4-0.5-0.6-1.2-0.6H54.9
				c-0.6,0-1.2,0.3-1.2,0.6V112.6z"/>
			<path class="st7" d="M76.3,111.8c0,0.7,0.3,1.3,0.8,1.3h2.8c0.4,0,0.8-0.6,0.8-1.3V86c0-0.7-0.3-1.3-0.8-1.3h-2.8
				c-0.4,0-0.8,0.6-0.8,1.3V111.8z"/>
		</g>
		<g>
			<path class="st7" d="M53.7,183.2c0,0.4,0.5,0.6,1.2,0.6h23.7c0.6,0,1.2-0.3,1.2-0.6v-2.3c0-0.4-0.5-0.6-1.2-0.6H54.9
				c-0.6,0-1.2,0.3-1.2,0.6V183.2z"/>
			<path class="st7" d="M76.3,182.5c0,0.7,0.3,1.3,0.8,1.3h2.8c0.4,0,0.8-0.6,0.8-1.3v-25.9c0-0.7-0.3-1.3-0.8-1.3h-2.8
				c-0.4,0-0.8,0.6-0.8,1.3V182.5z"/>
		</g>
		<g>
			<path class="st9" d="M92,102.2l-1.7-2.4c6.1-6.6,7.4-16.4,2.7-23c-4.7-6.5-13.7-7.5-21-2.7l-1.7-2.4c-0.7-1-2.2-1.1-3.3-0.1
				c-1.1,0.9-1.4,2.5-0.7,3.5l1.7,2.4l18.3,25.7l1.7,2.4c0.7,1,2.2,1.1,3.3,0.1C92.4,104.8,92.8,103.2,92,102.2z"/>
			<path class="st10" d="M93.4,90.2c0.6-1.8,0.6-3.8,0.1-5.4c-0.3-1-0.8-2.8-1.9-1.3c-1.1,1.5,0.5,4.4,0.4,6
				c-0.2,1.9-1.7,3.5-2.7,5.2c-0.1,0.1,0,0.3,0.2,0.2C91.5,94,92.8,92.2,93.4,90.2z"/>
		</g>
		<g>
			<path class="st11" d="M33.8,117c1.3-0.9,2.5-1.7,3.8-2.6c0.2-0.2,0.8-0.2,0.9-0.1c0.2,0.2,0.2,0.8,0.1,1.1
				c-0.4,1.1-0.8,2.3-1.5,3.3c-4.1,6.8-9.6,11.9-16.4,15.2c-1.8,0.9-3.7,1.3-5.6,1.8c-0.4,0.1-0.8-0.2-1.2-0.3
				c0.1-0.4,0.1-1,0.4-1.3c0.9-1.1,1.9-2.2,3-3.2c0.4-0.4,0.5-0.7,0.2-1.3c-3.2-6.4-7.6-11.6-13-15.9c-0.5-0.4-0.6-0.7-0.2-1.2
				c0.8-1,1.5-2,2.3-2.9c4.4-4.8,9.5-8.6,15.3-11.3c0.5-0.2,1.1-0.4,1.7-0.6c1.8,7.4,4.9,14,9.6,19.6
				C33.5,117.2,33.6,117.1,33.8,117z M19,101.8c-0.1,0.1-0.1,0.7,0,0.9c1.8,3.6,3.6,7.2,5.5,10.7c1.6,2.8,3.5,5.4,5.3,8.1
				c0.2,0.3,0.4,0.6,0.8,1.1c0.6-0.8,1.1-1.6,1.6-2.4c0.1-0.2,0-0.6-0.2-0.8c-4.6-5.7-8-12.1-10.4-19.3c0-0.1-0.1-0.1-0.2-0.3
				C20.7,100.5,19.8,101.1,19,101.8z"/>
			<path class="st4" d="M21.5,99.9c-0.9,0.6-1.7,1.2-2.5,1.9c-0.1,0.1-0.1,0.7,0,0.9c1.8,3.6,3.6,7.2,5.5,10.7
				c1.6,2.8,3.5,5.4,5.3,8.1c0.2,0.3,0.4,0.6,0.8,1.1c0.6-0.8,1.1-1.6,1.6-2.4c0.1-0.2,0-0.6-0.2-0.8c-4.6-5.7-8-12.1-10.4-19.3
				C21.7,100.1,21.6,100,21.5,99.9z"/>
		</g>
	</g>
</g>
</svg>
