<?xml version="1.0" encoding="utf-8"?>
<!-- Generator: Adobe Illustrator 22.0.0, SVG Export Plug-In . SVG Version: 6.00 Build 0)  -->
<svg version="1.1" id="图层_1" xmlns="http://www.w3.org/2000/svg" xmlns:xlink="http://www.w3.org/1999/xlink" x="0px" y="0px"
	 viewBox="0 0 80 80" style="enable-background:new 0 0 80 80;" xml:space="preserve">
<style type="text/css">
	.st0{opacity:0;fill:#FFFFFF;}
	.st1{fill-rule:evenodd;clip-rule:evenodd;fill:#768D9C;}
	.st2{fill-rule:evenodd;clip-rule:evenodd;fill:#46677D;}
	.st3{fill-rule:evenodd;clip-rule:evenodd;fill:#14405C;}
	.st4{fill-rule:evenodd;clip-rule:evenodd;fill:#ADDEFC;}
	.st5{fill-rule:evenodd;clip-rule:evenodd;fill:url(#SVGID_1_);}
	.st6{fill-rule:evenodd;clip-rule:evenodd;fill:url(#SVGID_2_);}
	.st7{fill-rule:evenodd;clip-rule:evenodd;fill:url(#SVGID_3_);}
	.st8{fill-rule:evenodd;clip-rule:evenodd;fill:url(#SVGID_4_);}
	.st9{fill-rule:evenodd;clip-rule:evenodd;fill:url(#SVGID_5_);}
	.st10{fill-rule:evenodd;clip-rule:evenodd;fill:url(#SVGID_6_);}
	.st11{fill-rule:evenodd;clip-rule:evenodd;fill:url(#SVGID_7_);}
	.st12{fill-rule:evenodd;clip-rule:evenodd;fill:#69C4FC;}
	.st13{fill-rule:evenodd;clip-rule:evenodd;fill:url(#SVGID_8_);}
	.st14{fill-rule:evenodd;clip-rule:evenodd;fill:url(#SVGID_9_);}
	.st15{fill-rule:evenodd;clip-rule:evenodd;fill:url(#SVGID_10_);}
	.st16{fill-rule:evenodd;clip-rule:evenodd;fill:url(#SVGID_11_);}
	.st17{fill-rule:evenodd;clip-rule:evenodd;fill:url(#SVGID_12_);}
	.st18{fill-rule:evenodd;clip-rule:evenodd;fill:url(#SVGID_13_);}
	.st19{fill-rule:evenodd;clip-rule:evenodd;fill:#A8D9FA;}
	.st20{fill-rule:evenodd;clip-rule:evenodd;fill:url(#SVGID_14_);}
	.st21{fill-rule:evenodd;clip-rule:evenodd;fill:#F0F0F0;}
	.st22{fill-rule:evenodd;clip-rule:evenodd;fill:url(#SVGID_15_);}
	.st23{fill-rule:evenodd;clip-rule:evenodd;fill:url(#SVGID_16_);}
	.st24{fill-rule:evenodd;clip-rule:evenodd;fill:url(#SVGID_17_);}
	.st25{fill-rule:evenodd;clip-rule:evenodd;fill:url(#SVGID_18_);}
	.st26{fill-rule:evenodd;clip-rule:evenodd;fill:url(#SVGID_19_);}
	.st27{fill-rule:evenodd;clip-rule:evenodd;fill:url(#SVGID_20_);}
	.st28{fill-rule:evenodd;clip-rule:evenodd;fill:url(#SVGID_21_);}
	.st29{fill-rule:evenodd;clip-rule:evenodd;fill:url(#SVGID_22_);}
	.st30{fill-rule:evenodd;clip-rule:evenodd;fill:url(#SVGID_23_);}
	.st31{fill-rule:evenodd;clip-rule:evenodd;fill:url(#SVGID_24_);}
	.st32{fill-rule:evenodd;clip-rule:evenodd;fill:url(#SVGID_25_);}
	.st33{fill-rule:evenodd;clip-rule:evenodd;fill:url(#SVGID_26_);}
	.st34{fill-rule:evenodd;clip-rule:evenodd;fill:url(#SVGID_27_);}
	.st35{fill-rule:evenodd;clip-rule:evenodd;fill:url(#SVGID_28_);}
	.st36{fill-rule:evenodd;clip-rule:evenodd;fill:url(#SVGID_29_);}
	.st37{fill-rule:evenodd;clip-rule:evenodd;fill:#BDBDBD;}
	.st38{fill-rule:evenodd;clip-rule:evenodd;fill:#FAFAFA;}
	.st39{fill-rule:evenodd;clip-rule:evenodd;fill:url(#SVGID_30_);}
	.st40{fill-rule:evenodd;clip-rule:evenodd;fill:url(#SVGID_31_);}
	.st41{fill-rule:evenodd;clip-rule:evenodd;fill:url(#SVGID_32_);}
	.st42{fill-rule:evenodd;clip-rule:evenodd;fill:url(#SVGID_33_);}
	.st43{fill-rule:evenodd;clip-rule:evenodd;fill:url(#SVGID_34_);}
	.st44{fill-rule:evenodd;clip-rule:evenodd;fill:url(#SVGID_35_);}
	.st45{fill-rule:evenodd;clip-rule:evenodd;fill:url(#SVGID_36_);}
	.st46{fill-rule:evenodd;clip-rule:evenodd;fill:url(#SVGID_37_);}
	.st47{fill-rule:evenodd;clip-rule:evenodd;fill:url(#SVGID_38_);}
	.st48{fill-rule:evenodd;clip-rule:evenodd;fill:url(#SVGID_39_);}
	.st49{fill-rule:evenodd;clip-rule:evenodd;fill:url(#SVGID_40_);}
	.st50{fill-rule:evenodd;clip-rule:evenodd;fill:url(#SVGID_41_);}
	.st51{fill-rule:evenodd;clip-rule:evenodd;fill:url(#SVGID_42_);}
	.st52{fill-rule:evenodd;clip-rule:evenodd;fill:url(#SVGID_43_);}
	.st53{fill-rule:evenodd;clip-rule:evenodd;fill:url(#SVGID_44_);}
	.st54{fill-rule:evenodd;clip-rule:evenodd;fill:url(#SVGID_45_);}
	.st55{fill-rule:evenodd;clip-rule:evenodd;fill:url(#SVGID_46_);}
	.st56{fill:#2E8FCC;}
	.st57{fill:#96D6FF;}
	.st58{fill:url(#SVGID_47_);}
	.st59{fill-rule:evenodd;clip-rule:evenodd;fill:url(#SVGID_48_);}
	.st60{fill-rule:evenodd;clip-rule:evenodd;fill:#FFFFFF;}
	.st61{fill:#2B80B0;}
	.st62{fill:#084A73;}
	.st63{fill:#003352;}
	.st64{fill-rule:evenodd;clip-rule:evenodd;fill:#5CBDF5;}
</style>
<rect x="-0.3" y="0" class="st0" width="80" height="80"/>
<g>
	<path class="st1" d="M16.1,78.9h49.1c1.1,0,2-0.7,2.1-1.7c0.1-0.5,0.2-1.2,0.2-1.8V67c0-1.1-0.9-1.9-1.9-1.9H16.6
		c-1.1,0-2,0.7-2.1,1.7c-0.1,0.5-0.2,1.2-0.2,1.8V77C14.2,78.1,15.1,78.9,16.1,78.9z"/>
	<path class="st2" d="M16.7,78.8h48.3c1.1,0,1.9-0.8,2-1.8c0.1-0.6,0.1-1.2,0.1-1.8v-8.1c0-1-0.9-1.9-1.9-1.9H16.9
		c-1.1,0-1.9,0.8-2,1.8c-0.1,0.6-0.1,1.2-0.1,1.8v8.1C14.8,78,15.6,78.8,16.7,78.8z"/>
	<path class="st3" d="M15.3,67.2v9.6c0,1.1,0.9,1.9,1.9,1.9h47.4c1,0,1.9-0.9,1.9-1.9v-9.6c0-1.1-0.9-1.9-1.9-1.9H17.2
		C16.2,65.3,15.3,66.1,15.3,67.2z"/>
	<path class="st4" d="M13.8,28.9V17.1c0-0.9,0.7-1.7,1.7-1.7h50.9c0.9,0,1.7,0.7,1.7,1.7v11.8H13.8z"/>
	<linearGradient id="SVGID_1_" gradientUnits="userSpaceOnUse" x1="40.8786" y1="15.6041" x2="40.8786" y2="28.0176">
		<stop  offset="0" style="stop-color:#A5D4F1"/>
		<stop  offset="0.16" style="stop-color:#A3D4F1"/>
		<stop  offset="0.33" style="stop-color:#A1D2F1"/>
		<stop  offset="0.5" style="stop-color:#9FD2F0"/>
		<stop  offset="0.66" style="stop-color:#9DCFEF"/>
		<stop  offset="0.83" style="stop-color:#9BCEEE"/>
		<stop  offset="1" style="stop-color:#9ACCED"/>
	</linearGradient>
	<path class="st5" d="M14.1,28.9h53.5V17.3c0-0.9-0.7-1.7-1.7-1.7H15.8c-0.9,0-1.7,0.7-1.7,1.7V28.9z"/>
	<linearGradient id="SVGID_2_" gradientUnits="userSpaceOnUse" x1="40.8786" y1="15.6904" x2="40.8786" y2="28.1039">
		<stop  offset="0" style="stop-color:#9FD2F0"/>
		<stop  offset="0.16" style="stop-color:#9DCFEF"/>
		<stop  offset="0.33" style="stop-color:#98CDEF"/>
		<stop  offset="0.5" style="stop-color:#91C9ED"/>
		<stop  offset="0.66" style="stop-color:#8FC7EB"/>
		<stop  offset="0.83" style="stop-color:#8CC4EB"/>
		<stop  offset="1" style="stop-color:#8BC4EA"/>
	</linearGradient>
	<path class="st6" d="M14.5,28.9h52.9V17.4c0-0.9-0.7-1.7-1.7-1.7H16.1c-0.9,0-1.7,0.7-1.7,1.7V28.9z"/>
	<linearGradient id="SVGID_3_" gradientUnits="userSpaceOnUse" x1="40.8787" y1="15.778" x2="40.8787" y2="28.1915">
		<stop  offset="0" style="stop-color:#99CEF0"/>
		<stop  offset="0.16" style="stop-color:#93CBEF"/>
		<stop  offset="0.33" style="stop-color:#8DC7EC"/>
		<stop  offset="0.5" style="stop-color:#86C3E9"/>
		<stop  offset="0.66" style="stop-color:#82BEE5"/>
		<stop  offset="0.83" style="stop-color:#7EBBE4"/>
		<stop  offset="1" style="stop-color:#79B9E4"/>
	</linearGradient>
	<path class="st7" d="M14.8,28.9H67V17.6c0-0.9-0.7-1.7-1.7-1.7H16.5c-0.9,0-1.7,0.7-1.7,1.7V28.9z"/>
	<linearGradient id="SVGID_4_" gradientUnits="userSpaceOnUse" x1="40.8787" y1="15.8642" x2="40.8787" y2="28.2777">
		<stop  offset="0" style="stop-color:#93CBEF"/>
		<stop  offset="0.16" style="stop-color:#8DC7EC"/>
		<stop  offset="0.33" style="stop-color:#86C3E9"/>
		<stop  offset="0.5" style="stop-color:#7ABAE5"/>
		<stop  offset="0.66" style="stop-color:#74B6E3"/>
		<stop  offset="0.83" style="stop-color:#6FB4E0"/>
		<stop  offset="1" style="stop-color:#6AB1DE"/>
	</linearGradient>
	<path class="st8" d="M15.1,28.9h51.5V17.8c0-0.9-0.7-1.7-1.7-1.7H16.8c-0.9,0-1.7,0.7-1.7,1.7V28.9z"/>
	<linearGradient id="SVGID_5_" gradientUnits="userSpaceOnUse" x1="40.8787" y1="15.9518" x2="40.8787" y2="28.3654">
		<stop  offset="0" style="stop-color:#8FC9ED"/>
		<stop  offset="0.16" style="stop-color:#85C3EA"/>
		<stop  offset="0.33" style="stop-color:#7DBEE5"/>
		<stop  offset="0.5" style="stop-color:#6EB4E3"/>
		<stop  offset="0.66" style="stop-color:#67AEDD"/>
		<stop  offset="0.83" style="stop-color:#60AADD"/>
		<stop  offset="1" style="stop-color:#5CA6DA"/>
	</linearGradient>
	<path class="st9" d="M15.5,28.9h50.8V17.9c0-0.9-0.7-1.7-1.7-1.7H17.2c-0.9,0-1.7,0.7-1.7,1.7V28.9z"/>
	<linearGradient id="SVGID_6_" gradientUnits="userSpaceOnUse" x1="40.8787" y1="16.038" x2="40.8787" y2="28.453">
		<stop  offset="0" style="stop-color:#8AC6ED"/>
		<stop  offset="0.16" style="stop-color:#7FC0E8"/>
		<stop  offset="0.33" style="stop-color:#73B9E3"/>
		<stop  offset="0.5" style="stop-color:#62AEDD"/>
		<stop  offset="0.66" style="stop-color:#58A6D9"/>
		<stop  offset="0.83" style="stop-color:#4FA3D7"/>
		<stop  offset="1" style="stop-color:#4B9ED4"/>
	</linearGradient>
	<path class="st10" d="M15.8,28.9V18.1c0-0.9,0.7-1.7,1.7-1.7h46.7c0.9,0,1.7,0.7,1.7,1.7v10.8H15.8z"/>
	<linearGradient id="SVGID_7_" gradientUnits="userSpaceOnUse" x1="40.7743" y1="19.5848" x2="40.7743" y2="23.1315">
		<stop  offset="0" style="stop-color:#1F7BB4"/>
		<stop  offset="1" style="stop-color:#064F7F"/>
	</linearGradient>
	<rect x="22.2" y="19.6" class="st11" width="37.1" height="3.5"/>
	<path class="st12" d="M13.8,74.4V28.9H68v45.5c0,2.1-1.7,3.7-3.7,3.7H17.5C15.4,78.1,13.8,76.4,13.8,74.4z"/>
	<radialGradient id="SVGID_8_" cx="39.1053" cy="28.9913" r="42.5011" gradientUnits="userSpaceOnUse">
		<stop  offset="0" style="stop-color:#67B5E5"/>
		<stop  offset="0.16" style="stop-color:#67B5E5"/>
		<stop  offset="0.33" style="stop-color:#65B3E4"/>
		<stop  offset="0.5" style="stop-color:#61B3E4"/>
		<stop  offset="0.66" style="stop-color:#61B3E4"/>
		<stop  offset="0.83" style="stop-color:#5EB0E2"/>
		<stop  offset="1" style="stop-color:#5EADE1"/>
	</radialGradient>
	<path class="st13" d="M14.1,74.2c0,2.1,1.7,3.7,3.7,3.7h46c2.1,0,3.7-1.7,3.7-3.7V28.9H14.1V74.2z"/>
	<radialGradient id="SVGID_9_" cx="39.1053" cy="28.9036" r="42.5009" gradientUnits="userSpaceOnUse">
		<stop  offset="0" style="stop-color:#5EB0E2"/>
		<stop  offset="0.16" style="stop-color:#5EADE1"/>
		<stop  offset="0.33" style="stop-color:#5DAEE1"/>
		<stop  offset="0.5" style="stop-color:#5AADE1"/>
		<stop  offset="0.66" style="stop-color:#58AADF"/>
		<stop  offset="0.83" style="stop-color:#54A6DC"/>
		<stop  offset="1" style="stop-color:#4FA3D9"/>
	</radialGradient>
	<path class="st14" d="M14.5,74c0,2.1,1.7,3.7,3.7,3.7h45.3c2.1,0,3.7-1.7,3.7-3.7V28.9H14.5V74z"/>
	<radialGradient id="SVGID_10_" cx="39.1053" cy="28.8174" r="42.5013" gradientUnits="userSpaceOnUse">
		<stop  offset="0" style="stop-color:#58AADF"/>
		<stop  offset="0.16" style="stop-color:#58AADF"/>
		<stop  offset="0.33" style="stop-color:#56A8DE"/>
		<stop  offset="0.5" style="stop-color:#50A6DC"/>
		<stop  offset="0.66" style="stop-color:#4FA3D9"/>
		<stop  offset="0.83" style="stop-color:#479ED4"/>
		<stop  offset="1" style="stop-color:#4199CF"/>
	</radialGradient>
	<path class="st15" d="M14.9,73.8c0,2.1,1.7,3.7,3.7,3.7h44.6c2.1,0,3.7-1.7,3.7-3.7v-45H14.9V73.8z"/>
	<radialGradient id="SVGID_11_" cx="39.1052" cy="28.7298" r="42.501" gradientUnits="userSpaceOnUse">
		<stop  offset="0" style="stop-color:#4EA5DB"/>
		<stop  offset="0.16" style="stop-color:#4EA5DB"/>
		<stop  offset="0.33" style="stop-color:#4FA3D9"/>
		<stop  offset="0.5" style="stop-color:#49A1D6"/>
		<stop  offset="0.66" style="stop-color:#449CD4"/>
		<stop  offset="0.83" style="stop-color:#3F94CC"/>
		<stop  offset="1" style="stop-color:#368FC5"/>
	</radialGradient>
	<path class="st16" d="M15.2,73.7c0,2.1,1.7,3.7,3.7,3.7h43.8c2.1,0,3.7-1.7,3.7-3.7V28.9H15.2V73.7z"/>
	<radialGradient id="SVGID_12_" cx="39.1053" cy="28.6435" r="42.5009" gradientUnits="userSpaceOnUse">
		<stop  offset="0" style="stop-color:#4AA0D8"/>
		<stop  offset="0.16" style="stop-color:#49A1D6"/>
		<stop  offset="0.33" style="stop-color:#479ED4"/>
		<stop  offset="0.5" style="stop-color:#4299D1"/>
		<stop  offset="0.66" style="stop-color:#3A94CC"/>
		<stop  offset="0.83" style="stop-color:#348AC4"/>
		<stop  offset="1" style="stop-color:#2A83BD"/>
	</radialGradient>
	<path class="st17" d="M15.6,73.5c0,2.1,1.7,3.7,3.7,3.7h43.1c2.1,0,3.7-1.7,3.7-3.7V28.9H15.6V73.5z"/>
	<radialGradient id="SVGID_13_" cx="39.1053" cy="28.5559" r="42.5009" gradientUnits="userSpaceOnUse">
		<stop  offset="0" style="stop-color:#449CD4"/>
		<stop  offset="0.16" style="stop-color:#449CD4"/>
		<stop  offset="0.1857" style="stop-color:#439BD2"/>
		<stop  offset="0.33" style="stop-color:#4097CE"/>
		<stop  offset="0.5" style="stop-color:#3C92CB"/>
		<stop  offset="0.66" style="stop-color:#328CC4"/>
		<stop  offset="0.83" style="stop-color:#2781BA"/>
		<stop  offset="1" style="stop-color:#1F7BB4"/>
	</radialGradient>
	<path class="st18" d="M15.9,73.3V28.9h49.9v44.4c0,2.1-1.7,3.7-3.7,3.7H19.7C17.6,77.1,15.9,75.4,15.9,73.3z"/>
	<rect x="22.2" y="19.5" class="st19" width="37.1" height="0.3"/>
	<radialGradient id="SVGID_14_" cx="40.8786" cy="28.7131" r="27.1219" gradientUnits="userSpaceOnUse">
		<stop  offset="0" style="stop-color:#FFFFFF"/>
		<stop  offset="1" style="stop-color:#6DB9E7"/>
	</radialGradient>
	<rect x="13.8" y="28.5" class="st20" width="54.2" height="0.5"/>
	<rect x="23.6" y="2" class="st21" width="34.6" height="21.2"/>
	<linearGradient id="SVGID_15_" gradientUnits="userSpaceOnUse" x1="40.8793" y1="22.6113" x2="40.8793" y2="20.1077">
		<stop  offset="0" style="stop-color:#EAEAEA"/>
		<stop  offset="0.16" style="stop-color:#EAEAEA"/>
		<stop  offset="0.33" style="stop-color:#EAEAEA"/>
		<stop  offset="0.5" style="stop-color:#ECECEC"/>
		<stop  offset="0.66" style="stop-color:#ECECEC"/>
		<stop  offset="0.83" style="stop-color:#EFEFEF"/>
		<stop  offset="1" style="stop-color:#EFEFEF"/>
	</linearGradient>
	<rect x="23.8" y="2.2" class="st22" width="34.3" height="21"/>
	<linearGradient id="SVGID_16_" gradientUnits="userSpaceOnUse" x1="40.8787" y1="22.7156" x2="40.8787" y2="20.2121">
		<stop  offset="0" style="stop-color:#E0DFDF"/>
		<stop  offset="0.16" style="stop-color:#E3E3E3"/>
		<stop  offset="0.33" style="stop-color:#E5E5E4"/>
		<stop  offset="0.5" style="stop-color:#E8E8E8"/>
		<stop  offset="0.66" style="stop-color:#EAEAEA"/>
		<stop  offset="0.83" style="stop-color:#EAEAEA"/>
		<stop  offset="1" style="stop-color:#EAEAEA"/>
	</linearGradient>
	<rect x="23.9" y="2.4" class="st23" width="33.9" height="20.8"/>
	<linearGradient id="SVGID_17_" gradientUnits="userSpaceOnUse" x1="40.8794" y1="22.82" x2="40.8794" y2="20.3164">
		<stop  offset="0" style="stop-color:#D2D3D4"/>
		<stop  offset="0.16" style="stop-color:#D5D5D5"/>
		<stop  offset="0.33" style="stop-color:#DDDDDD"/>
		<stop  offset="0.5" style="stop-color:#E3E3E3"/>
		<stop  offset="0.66" style="stop-color:#E3E3E3"/>
		<stop  offset="0.83" style="stop-color:#E5E5E4"/>
		<stop  offset="1" style="stop-color:#E5E5E4"/>
	</linearGradient>
	<rect x="24.1" y="2.6" class="st24" width="33.5" height="20.6"/>
	<linearGradient id="SVGID_18_" gradientUnits="userSpaceOnUse" x1="40.8786" y1="22.9243" x2="40.8786" y2="20.4207">
		<stop  offset="0" style="stop-color:#CBCCCC"/>
		<stop  offset="0.16" style="stop-color:#CECECF"/>
		<stop  offset="0.33" style="stop-color:#D5D5D5"/>
		<stop  offset="0.5" style="stop-color:#DDDDDD"/>
		<stop  offset="0.66" style="stop-color:#E0DFDF"/>
		<stop  offset="0.83" style="stop-color:#E3E3E3"/>
		<stop  offset="1" style="stop-color:#E3E3E3"/>
	</linearGradient>
	<rect x="24.3" y="2.8" class="st25" width="33.1" height="20.3"/>
	<linearGradient id="SVGID_19_" gradientUnits="userSpaceOnUse" x1="40.8793" y1="23.0286" x2="40.8793" y2="20.525">
		<stop  offset="0" style="stop-color:#C4C4C3"/>
		<stop  offset="0.16" style="stop-color:#C8C8C8"/>
		<stop  offset="0.33" style="stop-color:#D0D1D0"/>
		<stop  offset="0.5" style="stop-color:#D9D8D9"/>
		<stop  offset="0.66" style="stop-color:#DDDDDD"/>
		<stop  offset="0.83" style="stop-color:#E0DFDF"/>
		<stop  offset="1" style="stop-color:#E3E3E3"/>
	</linearGradient>
	<rect x="24.5" y="3" class="st26" width="32.7" height="20.1"/>
	<linearGradient id="SVGID_20_" gradientUnits="userSpaceOnUse" x1="40.8793" y1="23.1315" x2="40.8793" y2="20.628">
		<stop  offset="0" style="stop-color:#BFBEBD"/>
		<stop  offset="3.865639e-02" style="stop-color:#C2C1C0"/>
		<stop  offset="0.16" style="stop-color:#C7C7C6"/>
		<stop  offset="0.33" style="stop-color:#CECECF"/>
		<stop  offset="0.5" style="stop-color:#D9D8D9"/>
		<stop  offset="0.66" style="stop-color:#DADADA"/>
		<stop  offset="0.83" style="stop-color:#DDDDDD"/>
		<stop  offset="1" style="stop-color:#E0DFDF"/>
	</linearGradient>
	<rect x="24.7" y="3.2" class="st27" width="32.3" height="19.9"/>
	<g>
		<linearGradient id="SVGID_21_" gradientUnits="userSpaceOnUse" x1="25.8273" y1="1.9568" x2="25.8273" y2="4.8762">
			<stop  offset="0" style="stop-color:#FFFFFF"/>
			<stop  offset="1" style="stop-color:#E5E5E4"/>
		</linearGradient>
		<polygon class="st28" points="24.4,4.9 25.4,2 27.3,2 26.3,4.9 		"/>
		<linearGradient id="SVGID_22_" gradientUnits="userSpaceOnUse" x1="29.5827" y1="1.9554" x2="29.5827" y2="4.8762">
			<stop  offset="0" style="stop-color:#FFFFFF"/>
			<stop  offset="1" style="stop-color:#E5E5E4"/>
		</linearGradient>
		<polygon class="st29" points="28.2,4.9 29.1,2 31,2 30,4.9 		"/>
		<linearGradient id="SVGID_23_" gradientUnits="userSpaceOnUse" x1="33.338" y1="1.9554" x2="33.338" y2="4.8762">
			<stop  offset="0" style="stop-color:#FFFFFF"/>
			<stop  offset="1" style="stop-color:#E5E5E4"/>
		</linearGradient>
		<polygon class="st30" points="31.9,4.9 32.9,2 34.8,2 33.8,4.9 		"/>
		<linearGradient id="SVGID_24_" gradientUnits="userSpaceOnUse" x1="40.8488" y1="1.9554" x2="40.8488" y2="4.8762">
			<stop  offset="0" style="stop-color:#FFFFFF"/>
			<stop  offset="1" style="stop-color:#E5E5E4"/>
		</linearGradient>
		<polygon class="st31" points="39.4,4.9 40.4,2 42.3,2 41.3,4.9 		"/>
		<linearGradient id="SVGID_25_" gradientUnits="userSpaceOnUse" x1="37.0934" y1="1.9554" x2="37.0934" y2="4.8762">
			<stop  offset="0" style="stop-color:#FFFFFF"/>
			<stop  offset="1" style="stop-color:#E5E5E4"/>
		</linearGradient>
		<polygon class="st32" points="35.7,4.9 36.6,2 38.5,2 37.5,4.9 		"/>
		<linearGradient id="SVGID_26_" gradientUnits="userSpaceOnUse" x1="48.3588" y1="1.9554" x2="48.3588" y2="4.8762">
			<stop  offset="0" style="stop-color:#FFFFFF"/>
			<stop  offset="1" style="stop-color:#E5E5E4"/>
		</linearGradient>
		<polygon class="st33" points="46.9,4.9 47.9,2 49.8,2 48.8,4.9 		"/>
		<linearGradient id="SVGID_27_" gradientUnits="userSpaceOnUse" x1="44.6034" y1="1.9554" x2="44.6034" y2="4.8762">
			<stop  offset="0" style="stop-color:#FFFFFF"/>
			<stop  offset="1" style="stop-color:#E5E5E4"/>
		</linearGradient>
		<polygon class="st34" points="43.2,4.9 44.2,2 46,2 45.1,4.9 		"/>
		<linearGradient id="SVGID_28_" gradientUnits="userSpaceOnUse" x1="55.8702" y1="1.9554" x2="55.8702" y2="4.8762">
			<stop  offset="0" style="stop-color:#FFFFFF"/>
			<stop  offset="1" style="stop-color:#E5E5E4"/>
		</linearGradient>
		<polygon class="st35" points="54.4,4.9 55.4,2 57.3,2 56.7,3.8 56,4.9 		"/>
		<linearGradient id="SVGID_29_" gradientUnits="userSpaceOnUse" x1="52.1148" y1="1.9554" x2="52.1148" y2="4.8762">
			<stop  offset="0" style="stop-color:#FFFFFF"/>
			<stop  offset="1" style="stop-color:#E5E5E4"/>
		</linearGradient>
		<polygon class="st36" points="50.7,4.9 51.7,2 53.5,2 52.6,4.9 		"/>
	</g>
	<polygon class="st37" points="57.6,2 41.9,23.1 42.2,23.1 57.9,2 	"/>
	<polygon class="st38" points="57.9,2 42.2,23.1 42.5,23.1 58.2,2 	"/>
	<g>
		<linearGradient id="SVGID_30_" gradientUnits="userSpaceOnUse" x1="24.4705" y1="2.0598" x2="24.4705" y2="4.8762">
			<stop  offset="0" style="stop-color:#A1D1F1"/>
			<stop  offset="2.460309e-02" style="stop-color:#93C7EB"/>
			<stop  offset="6.651290e-02" style="stop-color:#80B9E4"/>
			<stop  offset="0.1106" style="stop-color:#76B2DF"/>
			<stop  offset="0.16" style="stop-color:#72AFDE"/>
			<stop  offset="0.33" style="stop-color:#4793C8"/>
			<stop  offset="0.5" style="stop-color:#3484BE"/>
			<stop  offset="0.66" style="stop-color:#287EB6"/>
			<stop  offset="0.83" style="stop-color:#2476B1"/>
			<stop  offset="1" style="stop-color:#1F73AF"/>
		</linearGradient>
		<polygon class="st39" points="23.6,4.9 23.6,2 25.4,2 24.4,4.9 		"/>
		<linearGradient id="SVGID_31_" gradientUnits="userSpaceOnUse" x1="31.4603" y1="2.0597" x2="31.4603" y2="4.8762">
			<stop  offset="0" style="stop-color:#A1D1F1"/>
			<stop  offset="2.460309e-02" style="stop-color:#93C7EB"/>
			<stop  offset="6.651290e-02" style="stop-color:#80B9E4"/>
			<stop  offset="0.1106" style="stop-color:#76B2DF"/>
			<stop  offset="0.16" style="stop-color:#72AFDE"/>
			<stop  offset="0.33" style="stop-color:#4793C8"/>
			<stop  offset="0.5" style="stop-color:#3484BE"/>
			<stop  offset="0.66" style="stop-color:#287EB6"/>
			<stop  offset="0.83" style="stop-color:#2476B1"/>
			<stop  offset="1" style="stop-color:#1F73AF"/>
		</linearGradient>
		<polygon class="st40" points="30,4.9 31,2 32.9,2 31.9,4.9 		"/>
		<linearGradient id="SVGID_32_" gradientUnits="userSpaceOnUse" x1="38.9711" y1="2.0598" x2="38.9711" y2="4.8762">
			<stop  offset="0" style="stop-color:#A1D1F1"/>
			<stop  offset="2.460309e-02" style="stop-color:#93C7EB"/>
			<stop  offset="6.651290e-02" style="stop-color:#80B9E4"/>
			<stop  offset="0.1106" style="stop-color:#76B2DF"/>
			<stop  offset="0.16" style="stop-color:#72AFDE"/>
			<stop  offset="0.33" style="stop-color:#4793C8"/>
			<stop  offset="0.5" style="stop-color:#3484BE"/>
			<stop  offset="0.66" style="stop-color:#287EB6"/>
			<stop  offset="0.83" style="stop-color:#2476B1"/>
			<stop  offset="1" style="stop-color:#1F73AF"/>
		</linearGradient>
		<polygon class="st41" points="37.5,4.9 38.5,2 40.4,2 39.4,4.9 		"/>
		<linearGradient id="SVGID_33_" gradientUnits="userSpaceOnUse" x1="46.481" y1="2.0598" x2="46.481" y2="4.8762">
			<stop  offset="0" style="stop-color:#A1D1F1"/>
			<stop  offset="2.460309e-02" style="stop-color:#93C7EB"/>
			<stop  offset="6.651290e-02" style="stop-color:#80B9E4"/>
			<stop  offset="0.1106" style="stop-color:#76B2DF"/>
			<stop  offset="0.16" style="stop-color:#72AFDE"/>
			<stop  offset="0.33" style="stop-color:#4793C8"/>
			<stop  offset="0.5" style="stop-color:#3484BE"/>
			<stop  offset="0.66" style="stop-color:#287EB6"/>
			<stop  offset="0.83" style="stop-color:#2476B1"/>
			<stop  offset="1" style="stop-color:#1F73AF"/>
		</linearGradient>
		<polygon class="st42" points="45.1,4.9 46,2 47.9,2 46.9,4.9 		"/>
		<linearGradient id="SVGID_34_" gradientUnits="userSpaceOnUse" x1="53.9926" y1="2.0598" x2="53.9926" y2="4.8762">
			<stop  offset="0" style="stop-color:#A1D1F1"/>
			<stop  offset="2.460309e-02" style="stop-color:#93C7EB"/>
			<stop  offset="6.651290e-02" style="stop-color:#80B9E4"/>
			<stop  offset="0.1106" style="stop-color:#76B2DF"/>
			<stop  offset="0.16" style="stop-color:#72AFDE"/>
			<stop  offset="0.33" style="stop-color:#4793C8"/>
			<stop  offset="0.5" style="stop-color:#3484BE"/>
			<stop  offset="0.66" style="stop-color:#287EB6"/>
			<stop  offset="0.83" style="stop-color:#2476B1"/>
			<stop  offset="1" style="stop-color:#1F73AF"/>
		</linearGradient>
		<polygon class="st43" points="52.6,4.9 53.5,2 55.4,2 54.4,4.9 		"/>
	</g>
	<g>
		<linearGradient id="SVGID_35_" gradientUnits="userSpaceOnUse" x1="27.705" y1="1.9568" x2="27.705" y2="4.8762">
			<stop  offset="0" style="stop-color:#E29697"/>
			<stop  offset="9.573536e-03" style="stop-color:#E09495"/>
			<stop  offset="9.308473e-02" style="stop-color:#D68585"/>
			<stop  offset="0.16" style="stop-color:#D28080"/>
			<stop  offset="0.33" style="stop-color:#BA5E5F"/>
			<stop  offset="0.5" style="stop-color:#A34645"/>
			<stop  offset="0.66" style="stop-color:#9A3C3C"/>
			<stop  offset="0.83" style="stop-color:#963535"/>
			<stop  offset="1" style="stop-color:#903333"/>
		</linearGradient>
		<polygon class="st44" points="26.3,4.9 27.3,2 29.1,2 28.2,4.9 		"/>
		<linearGradient id="SVGID_36_" gradientUnits="userSpaceOnUse" x1="35.2157" y1="1.9554" x2="35.2157" y2="4.8762">
			<stop  offset="0" style="stop-color:#E29697"/>
			<stop  offset="9.573536e-03" style="stop-color:#E09495"/>
			<stop  offset="9.308473e-02" style="stop-color:#D68585"/>
			<stop  offset="0.16" style="stop-color:#D28080"/>
			<stop  offset="0.33" style="stop-color:#BA5E5F"/>
			<stop  offset="0.5" style="stop-color:#A34645"/>
			<stop  offset="0.66" style="stop-color:#9A3C3C"/>
			<stop  offset="0.83" style="stop-color:#963535"/>
			<stop  offset="1" style="stop-color:#903333"/>
		</linearGradient>
		<polygon class="st45" points="33.8,4.9 34.8,2 36.6,2 35.7,4.9 		"/>
		<linearGradient id="SVGID_37_" gradientUnits="userSpaceOnUse" x1="42.7265" y1="1.9554" x2="42.7265" y2="4.8762">
			<stop  offset="0" style="stop-color:#E29697"/>
			<stop  offset="9.573536e-03" style="stop-color:#E09495"/>
			<stop  offset="9.308473e-02" style="stop-color:#D68585"/>
			<stop  offset="0.16" style="stop-color:#D28080"/>
			<stop  offset="0.33" style="stop-color:#BA5E5F"/>
			<stop  offset="0.5" style="stop-color:#A34645"/>
			<stop  offset="0.66" style="stop-color:#9A3C3C"/>
			<stop  offset="0.83" style="stop-color:#963535"/>
			<stop  offset="1" style="stop-color:#903333"/>
		</linearGradient>
		<polygon class="st46" points="41.3,4.9 42.3,2 44.2,2 43.2,4.9 		"/>
		<linearGradient id="SVGID_38_" gradientUnits="userSpaceOnUse" x1="50.2365" y1="1.9554" x2="50.2365" y2="4.8762">
			<stop  offset="0" style="stop-color:#E29697"/>
			<stop  offset="9.573536e-03" style="stop-color:#E09495"/>
			<stop  offset="9.308473e-02" style="stop-color:#D68585"/>
			<stop  offset="0.16" style="stop-color:#D28080"/>
			<stop  offset="0.33" style="stop-color:#BA5E5F"/>
			<stop  offset="0.5" style="stop-color:#A34645"/>
			<stop  offset="0.66" style="stop-color:#9A3C3C"/>
			<stop  offset="0.83" style="stop-color:#963535"/>
			<stop  offset="1" style="stop-color:#903333"/>
		</linearGradient>
		<polygon class="st47" points="48.8,4.9 49.8,2 51.7,2 50.7,4.9 		"/>
	</g>
	<linearGradient id="SVGID_39_" gradientUnits="userSpaceOnUse" x1="34.8805" y1="23.1315" x2="34.8805" y2="20.5236">
		<stop  offset="0" style="stop-color:#C7C7C6"/>
		<stop  offset="1" style="stop-color:#FFFFFF"/>
	</linearGradient>
	<polygon class="st48" points="23.6,23.1 23.6,2 24.4,2 46.2,21.8 44.7,23.1 	"/>
	<linearGradient id="SVGID_40_" gradientUnits="userSpaceOnUse" x1="34.6892" y1="23.1315" x2="34.6892" y2="20.5584">
		<stop  offset="0" style="stop-color:#C4C4C3"/>
		<stop  offset="0.2739" style="stop-color:#D4D4D3"/>
		<stop  offset="0.7085" style="stop-color:#E8E8E8"/>
		<stop  offset="1" style="stop-color:#EFEFEF"/>
	</linearGradient>
	<polygon class="st49" points="23.6,23.1 44.3,23.1 45.8,21.8 24.4,2.3 23.6,2.3 	"/>
	<linearGradient id="SVGID_41_" gradientUnits="userSpaceOnUse" x1="34.498" y1="23.1315" x2="34.498" y2="20.5932">
		<stop  offset="0" style="stop-color:#C4C4C3"/>
		<stop  offset="0.315" style="stop-color:#D6D6D5"/>
		<stop  offset="0.6952" style="stop-color:#E5E5E5"/>
		<stop  offset="1" style="stop-color:#EAEAEA"/>
	</linearGradient>
	<polygon class="st50" points="23.6,23.1 44,23.1 45.4,21.8 24.4,2.6 23.6,2.6 	"/>
	<linearGradient id="SVGID_42_" gradientUnits="userSpaceOnUse" x1="34.3067" y1="23.1315" x2="34.3067" y2="20.628">
		<stop  offset="0" style="stop-color:#C2C1C1"/>
		<stop  offset="0.3492" style="stop-color:#D7D7D7"/>
		<stop  offset="0.6882" style="stop-color:#E4E4E4"/>
		<stop  offset="1" style="stop-color:#E8E8E8"/>
	</linearGradient>
	<polygon class="st51" points="23.6,23.1 43.6,23.1 45.1,21.8 24.4,2.9 23.6,2.9 	"/>
	<linearGradient id="SVGID_43_" gradientUnits="userSpaceOnUse" x1="34.1155" y1="23.1315" x2="34.1155" y2="20.6627">
		<stop  offset="0" style="stop-color:#C2C1C1"/>
		<stop  offset="6.713688e-03" style="stop-color:#C2C1C1"/>
		<stop  offset="0.3344" style="stop-color:#D6D5D5"/>
		<stop  offset="0.665" style="stop-color:#E1E1E0"/>
		<stop  offset="1" style="stop-color:#E5E5E4"/>
	</linearGradient>
	<polygon class="st52" points="23.6,23.1 43.2,23.1 44.7,21.8 24.4,3.2 23.6,3.2 	"/>
	<linearGradient id="SVGID_44_" gradientUnits="userSpaceOnUse" x1="33.9242" y1="23.1315" x2="33.9242" y2="20.6975">
		<stop  offset="0" style="stop-color:#C2C1C1"/>
		<stop  offset="3.628278e-02" style="stop-color:#C5C4C4"/>
		<stop  offset="0.3247" style="stop-color:#D6D5D5"/>
		<stop  offset="0.6343" style="stop-color:#E0E0E0"/>
		<stop  offset="1" style="stop-color:#E3E3E3"/>
	</linearGradient>
	<polygon class="st53" points="23.6,23.1 42.8,23.1 44.3,21.8 24.4,3.5 23.6,3.5 	"/>
	<linearGradient id="SVGID_45_" gradientUnits="userSpaceOnUse" x1="33.733" y1="23.1315" x2="33.733" y2="20.7323">
		<stop  offset="0" style="stop-color:#C2C1C1"/>
		<stop  offset="0.2891" style="stop-color:#D3D2D2"/>
		<stop  offset="0.6054" style="stop-color:#DDDCDC"/>
		<stop  offset="1" style="stop-color:#E0DFDF"/>
	</linearGradient>
	<polygon class="st54" points="23.6,23.1 23.6,3.8 24.4,3.8 43.9,21.8 42.4,23.1 	"/>
	<linearGradient id="SVGID_46_" gradientUnits="userSpaceOnUse" x1="40.8786" y1="23.1315" x2="40.8786" y2="28.4517">
		<stop  offset="0" style="stop-color:#AED8F2"/>
		<stop  offset="1" style="stop-color:#65AFDD"/>
	</linearGradient>
	<rect x="23.6" y="23.1" class="st55" width="34.6" height="5.3"/>
	<g>
		<g>
			<path class="st56" d="M51.5,37.5c1,1,1.7,2.2,2.1,3.5c0.5,1.3,0.7,2.7,0.7,4.1c0,2.8-0.8,5.1-2.4,7.1C50.5,54,48.5,55,46.2,55
				c-1.2,0-2.2-0.2-3-0.6c-0.8-0.4-1.3-0.9-1.5-1.6h-0.1c-0.3,0.3-0.5,0.6-0.8,0.8c-0.3,0.3-0.6,0.5-0.9,0.7c-0.4,0.2-0.7,0.3-1,0.4
				c-0.3,0.1-0.7,0.1-1.2,0.1c-1.4,0-2.4-0.4-3.2-1.3c-0.8-0.9-1.1-2-1.1-3.4c0-1.1,0.2-2.2,0.7-3.3c0.4-1.1,1.1-2.1,1.8-3.1
				c0.8-0.9,1.7-1.6,2.7-2.2c1.1-0.6,2.2-0.9,3.3-0.9c0.8,0,1.3,0.1,1.7,0.4c0.4,0.3,0.7,0.7,0.9,1.2h0L45,41h4.3l-3.3,9.2
				c-0.1,0.2-0.2,0.5-0.2,0.9c-0.1,0.4-0.1,0.7-0.1,0.9c0,0.5,0.1,0.8,0.3,1.1c0.2,0.3,0.5,0.4,0.9,0.4c1.7,0,3.1-0.8,4.2-2.4
				c1.1-1.6,1.6-3.7,1.6-6.3c0-1.3-0.2-2.5-0.6-3.6c-0.4-1.1-1.1-2-1.9-2.9c-0.8-0.8-1.9-1.5-3.2-1.9c-1.3-0.5-2.7-0.7-4.4-0.7
				c-1.6,0-3.1,0.3-4.6,0.9c-1.5,0.6-2.8,1.5-4,2.6c-1.2,1.1-2.1,2.5-2.9,4.1c-0.7,1.6-1.1,3.4-1.1,5.4c0,2,0.3,3.7,0.9,5.2
				c0.6,1.5,1.4,2.7,2.4,3.7c1,1,2.2,1.8,3.6,2.3c1.4,0.5,2.9,0.8,4.5,0.8c1.9,0,3.6-0.2,5-0.7c1.5-0.5,2.8-1.2,3.9-2.1l0.6,1
				c-1.3,1-2.7,1.8-4.3,2.4c-1.6,0.6-3.4,0.9-5.4,0.9c-1.7,0-3.5-0.3-5.2-0.8c-1.8-0.6-3.3-1.4-4.6-2.5c-1.4-1.1-2.5-2.5-3.3-4.1
				c-0.8-1.7-1.3-3.6-1.3-5.8c0-1.9,0.4-3.8,1.1-5.6c0.8-1.8,1.8-3.4,3.2-4.8c1.4-1.4,3-2.5,5-3.3c2-0.8,4.2-1.3,6.5-1.3
				c2.1,0,3.9,0.3,5.3,0.9C49.4,35.6,50.6,36.4,51.5,37.5z M43.8,44.3c0-0.6-0.2-1.1-0.5-1.5c-0.3-0.4-0.7-0.6-1.3-0.6
				c-0.6,0-1.1,0.2-1.6,0.7c-0.5,0.5-1,1.1-1.4,2c-0.4,0.8-0.7,1.7-1,2.7c-0.2,1-0.4,2-0.4,3c0,0.8,0.1,1.3,0.3,1.7
				c0.2,0.4,0.6,0.6,1,0.6c0.4,0,0.8-0.1,1.1-0.3c0.3-0.2,0.7-0.6,1-1.1L43.8,44.3z"/>
		</g>
	</g>
	<g>
		<g>
			<path class="st57" d="M51.3,42.7c1,1,1.7,2.2,2.1,3.5c0.5,1.3,0.7,2.7,0.7,4.1c0,2.8-0.8,5.1-2.4,7.1c-1.6,1.9-3.5,2.9-5.9,2.9
				c-1.2,0-2.2-0.2-3-0.6c-0.8-0.4-1.3-0.9-1.5-1.6h-0.1c-0.3,0.3-0.5,0.6-0.8,0.8c-0.3,0.3-0.6,0.5-0.9,0.7c-0.4,0.2-0.7,0.3-1,0.4
				c-0.3,0.1-0.7,0.1-1.2,0.1c-1.4,0-2.4-0.4-3.2-1.3c-0.8-0.9-1.1-2-1.1-3.4c0-1.1,0.2-2.2,0.7-3.3c0.4-1.1,1.1-2.1,1.8-3.1
				c0.8-0.9,1.7-1.6,2.7-2.2c1.1-0.6,2.2-0.9,3.3-0.9c0.8,0,1.3,0.1,1.7,0.4c0.4,0.3,0.7,0.7,0.9,1.2h0l0.5-1.4H49l-3.3,9.2
				c-0.1,0.2-0.2,0.5-0.2,0.9c-0.1,0.4-0.1,0.7-0.1,0.9c0,0.5,0.1,0.8,0.3,1.1c0.2,0.3,0.5,0.4,0.9,0.4c1.7,0,3.1-0.8,4.2-2.4
				c1.1-1.6,1.6-3.7,1.6-6.3c0-1.3-0.2-2.5-0.6-3.6c-0.4-1.1-1.1-2-1.9-2.9c-0.9-0.8-1.9-1.5-3.2-1.9c-1.3-0.5-2.7-0.7-4.4-0.7
				c-1.6,0-3.1,0.3-4.6,0.9c-1.5,0.6-2.8,1.5-4,2.6c-1.2,1.1-2.1,2.5-2.9,4.1C30,50.2,29.6,52,29.6,54c0,2,0.3,3.7,0.9,5.2
				c0.6,1.5,1.4,2.7,2.4,3.7c1,1,2.2,1.8,3.6,2.3c1.4,0.5,2.9,0.8,4.5,0.8c1.9,0,3.6-0.2,5-0.7c1.5-0.5,2.8-1.2,3.9-2.1l0.6,1
				c-1.3,1-2.7,1.8-4.3,2.4c-1.6,0.6-3.4,0.9-5.4,0.9c-1.7,0-3.5-0.3-5.2-0.8c-1.8-0.6-3.3-1.4-4.6-2.5c-1.4-1.1-2.5-2.5-3.3-4.1
				c-0.8-1.7-1.3-3.6-1.3-5.8c0-1.9,0.4-3.8,1.1-5.6c0.8-1.8,1.8-3.4,3.2-4.8c1.4-1.4,3-2.5,5-3.3c2-0.8,4.2-1.3,6.5-1.3
				c2.1,0,3.9,0.3,5.3,0.9C49.1,40.8,50.3,41.6,51.3,42.7z M43.5,49.5c0-0.6-0.2-1.1-0.5-1.5c-0.3-0.4-0.7-0.6-1.3-0.6
				c-0.6,0-1.1,0.2-1.6,0.7c-0.5,0.5-1,1.1-1.4,2c-0.4,0.8-0.7,1.7-1,2.7c-0.2,1-0.4,2-0.4,3c0,0.8,0.1,1.3,0.3,1.7
				c0.2,0.4,0.6,0.6,1,0.6c0.4,0,0.8-0.1,1.1-0.3c0.3-0.2,0.7-0.6,1-1.1L43.5,49.5z"/>
		</g>
	</g>
	<g>
		<g>
			<radialGradient id="SVGID_47_" cx="36.6017" cy="48.5846" r="13.8535" gradientUnits="userSpaceOnUse">
				<stop  offset="0" style="stop-color:#207EB6"/>
				<stop  offset="0.16" style="stop-color:#1F7BB4"/>
				<stop  offset="0.33" style="stop-color:#1C79B0"/>
				<stop  offset="0.5" style="stop-color:#1C72A7"/>
				<stop  offset="0.66" style="stop-color:#165F8C"/>
				<stop  offset="0.83" style="stop-color:#0D4D70"/>
				<stop  offset="1" style="stop-color:#0B4566"/>
			</radialGradient>
			<path class="st58" d="M51.1,42.3c1,1,1.7,2.2,2.1,3.5c0.5,1.3,0.7,2.7,0.7,4.1c0,2.8-0.8,5.1-2.4,7.1c-1.6,1.9-3.5,2.9-5.9,2.9
				c-1.2,0-2.2-0.2-3-0.6c-0.8-0.4-1.3-0.9-1.5-1.6h-0.1c-0.3,0.3-0.5,0.6-0.8,0.8c-0.3,0.3-0.6,0.5-0.9,0.7c-0.4,0.2-0.7,0.3-1,0.4
				c-0.3,0.1-0.7,0.1-1.2,0.1c-1.4,0-2.4-0.4-3.2-1.3c-0.8-0.9-1.1-2-1.1-3.4c0-1.1,0.2-2.2,0.7-3.3c0.4-1.1,1.1-2.1,1.8-3.1
				c0.8-0.9,1.7-1.6,2.7-2.2c1.1-0.6,2.2-0.9,3.3-0.9c0.8,0,1.3,0.1,1.7,0.4c0.4,0.3,0.7,0.7,0.9,1.2h0l0.5-1.4h4.3L45.5,55
				c-0.1,0.2-0.2,0.5-0.2,0.9c-0.1,0.4-0.1,0.7-0.1,0.9c0,0.5,0.1,0.8,0.3,1.1c0.2,0.3,0.5,0.4,0.9,0.4c1.7,0,3.1-0.8,4.2-2.4
				c1.1-1.6,1.6-3.7,1.6-6.3c0-1.3-0.2-2.5-0.6-3.6c-0.4-1.1-1.1-2-1.9-2.9c-0.8-0.8-1.9-1.5-3.2-1.9c-1.3-0.5-2.7-0.7-4.4-0.7
				c-1.6,0-3.1,0.3-4.6,0.9c-1.5,0.6-2.8,1.5-4,2.6c-1.2,1.1-2.1,2.5-2.9,4.1c-0.7,1.6-1.1,3.4-1.1,5.4c0,2,0.3,3.7,0.9,5.2
				c0.6,1.5,1.4,2.7,2.4,3.7c1,1,2.2,1.8,3.6,2.3c1.4,0.5,2.9,0.8,4.5,0.8c1.9,0,3.6-0.2,5-0.7c1.5-0.5,2.8-1.2,3.9-2.1l0.6,1
				c-1.3,1-2.7,1.8-4.3,2.4c-1.6,0.6-3.4,0.9-5.4,0.9c-1.7,0-3.5-0.3-5.2-0.8c-1.8-0.6-3.3-1.4-4.6-2.5c-1.4-1.1-2.5-2.5-3.3-4.1
				c-0.8-1.7-1.3-3.6-1.3-5.8c0-1.9,0.4-3.8,1.1-5.6c0.8-1.8,1.8-3.4,3.2-4.8c1.4-1.4,3-2.5,5-3.3c2-0.8,4.2-1.3,6.5-1.3
				c2.1,0,3.9,0.3,5.3,0.9C49,40.4,50.2,41.2,51.1,42.3z M43.4,49.1c0-0.6-0.2-1.1-0.5-1.5c-0.3-0.4-0.7-0.6-1.3-0.6
				c-0.6,0-1.1,0.2-1.6,0.7c-0.5,0.5-1,1.1-1.4,2c-0.4,0.8-0.7,1.7-1,2.7c-0.2,1-0.4,2-0.4,3c0,0.8,0.1,1.3,0.3,1.7
				c0.2,0.4,0.6,0.6,1,0.6c0.4,0,0.8-0.1,1.1-0.3c0.3-0.2,0.7-0.6,1-1.1L43.4,49.1z"/>
		</g>
	</g>
	<linearGradient id="SVGID_48_" gradientUnits="userSpaceOnUse" x1="40.8787" y1="69.3434" x2="40.8787" y2="77.0626">
		<stop  offset="0" style="stop-color:#207EB7"/>
		<stop  offset="1" style="stop-color:#4A99CC"/>
	</linearGradient>
	<path class="st59" d="M16.1,73.3v-4.1c16.5,3.1,33,2.8,49.7,0v4.1c0,2.1-1.7,3.7-3.7,3.7H19.8C17.7,77.1,16.1,75.4,16.1,73.3z"/>
	<path class="st60" d="M38.5,41.3c2.4-0.7,4.7-0.5,4.7-0.4c0,0.1-2.2,0.2-4.6,0.9c-2.4,0.7-4,1.8-4.1,1.7
		C34.5,43.4,36.1,42,38.5,41.3z"/>
	<path class="st60" d="M44.1,67.3c-2.5,0.5-4.7,0.1-4.7,0c0-0.1,2.2,0,4.6-0.4c2.5-0.5,4.2-1.5,4.2-1.4
		C48.3,65.6,46.6,66.9,44.1,67.3z"/>
	<path class="st60" d="M47.4,60.3c-1.7,0.3-3.3-0.2-3.3-0.3c0-0.1,1.5,0.1,3.3-0.2c1.7-0.3,3-1.2,3-1.1C50.4,58.8,49.1,60,47.4,60.3
		z"/>
	<path class="st60" d="M38.3,60.3C37,60.5,36,59.9,36,59.9c0-0.1,1.1,0.2,2.3,0c1.2-0.2,2.2-1.1,2.2-1C40.5,58.9,39.5,60,38.3,60.3z
		"/>
	<g>
		<g>
			<path class="st61" d="M33,56.2c-0.1-0.4-0.1-0.8-0.1-1.2c0-1.1,0.2-2.2,0.7-3.3c0.4-1.1,1.1-2.1,1.8-3.1c0.8-0.9,1.7-1.6,2.7-2.2
				c1.1-0.6,2.2-0.9,3.3-0.9c0.8,0,1.3,0.1,1.7,0.4c0.4,0.3,0.7,0.7,0.9,1.2h0l0.2-0.4c0.1,0.4,0.1,0.9,0.1,1.4
				c0,2.5-1.1,4.8-2.9,6.4l1.9-5.5c0-0.6-0.2-1.1-0.5-1.5c-0.3-0.4-0.7-0.6-1.3-0.6c-0.6,0-1.1,0.2-1.6,0.7c-0.5,0.5-1,1.1-1.4,2
				c-0.4,0.8-0.7,1.7-1,2.7c-0.2,1-0.4,2-0.4,3c0,0.4,0,0.8,0.1,1.1c-0.5,0.1-1.1,0.1-1.6,0.1C34.8,56.7,33.9,56.6,33,56.2z
				 M27.3,48.4c0-0.1,0.1-0.1,0.1-0.2c0.8-1.8,1.8-3.4,3.2-4.8c1.4-1.4,3-2.5,5-3.3c0.4-0.2,0.8-0.3,1.2-0.5c1.1,0.1,2.2,0.5,3.1,1
				c-0.9,0.1-1.7,0.4-2.6,0.7c-1.5,0.6-2.8,1.5-4,2.6c-1.2,1.1-2.1,2.5-2.9,4.1c-0.7,1.6-1.1,3.4-1.1,5.4c0,0.1,0,0.2,0,0.3
				C28.2,52.4,27.4,50.5,27.3,48.4z"/>
		</g>
	</g>
	<path class="st62" d="M26.3,53.8c0-0.9,0.1-1.7,0.2-2.5c0.2-1.1,0.5-2.2,0.9-3.2c0.7-1.6,1.7-3.1,2.9-4.4c0.2-0.2,0.5-0.5,0.7-0.7
		c0.5-0.4,1-0.8,1.5-1.2c0.7-0.5,1.5-1,2.3-1.3c1.1-0.5,2.2-0.9,3.4-1.2c1.1-0.3,2.4-0.4,3.6-0.5c0.3,0,0.7,0,1,0c0.1,0,0.3,0,0.4,0
		c-0.4,0-0.7,0-1,0c-0.7,0-1.3,0.1-1.9,0.2c-1.9,0.3-3.7,0.8-5.4,1.6c-0.8,0.4-1.6,0.9-2.4,1.4c-0.6,0.4-1.2,0.9-1.7,1.4
		c-0.3,0.3-0.6,0.6-0.9,0.9c-0.6,0.6-1,1.3-1.5,2C27.1,48.5,26.4,51,26.3,53.8z"/>
	<path class="st63" d="M33.2,57.1c-0.2-0.7-0.3-1.4-0.2-2.2c0-0.1,0-0.2,0-0.4c0-0.8,0.2-1.6,0.4-2.3c0.3-1,0.7-1.9,1.3-2.7
		c0.3-0.4,0.6-0.7,0.9-1.1c0.9-1,2-1.8,3.2-2.3c0.7-0.3,1.4-0.5,2.2-0.6c0.3,0,0.7,0,1,0c0.3,0.1,0.6,0.1,0.9,0.3
		c0.1,0,0.1,0.1,0.2,0.1c0.1,0,0.1,0.1,0.2,0.1c-0.1,0-0.1-0.1-0.1-0.1c-0.1,0-0.2-0.1-0.3-0.1c-0.3-0.1-0.6-0.2-0.9-0.2
		c-0.1,0-0.2,0-0.2,0c-0.4,0-0.9,0-1.3,0.1c-0.6,0.1-1.1,0.3-1.6,0.6c-0.6,0.3-1.1,0.6-1.6,1c-0.3,0.2-0.6,0.5-0.9,0.8
		c-0.8,0.7-1.4,1.5-1.9,2.4c-0.5,0.9-0.9,1.9-1.1,3C33.1,54,33,54.5,33,55.1C33,55.8,33.1,56.5,33.2,57.1z"/>
	<path class="st64" d="M14.5,29.1v18.8c0.2-2.4,1.3-11.3,4.3-14.1c4.5-4.1,12.3-1.8,20-2c10.1-0.3,27.5-1.9,29,1.9v-4.6H14.5z"/>
</g>
</svg>
