<?xml version="1.0" encoding="utf-8"?>
<!-- Generator: Adobe Illustrator 22.0.0, SVG Export Plug-In . SVG Version: 6.00 Build 0)  -->
<svg version="1.1" id="图层_1" xmlns="http://www.w3.org/2000/svg" xmlns:xlink="http://www.w3.org/1999/xlink" x="0px" y="0px"
	 viewBox="0 0 200 300" style="enable-background:new 0 0 200 300;" xml:space="preserve">
<style type="text/css">
	.st0{opacity:0;fill:#FFFFFF;}
	.st1{fill:#C6C6C6;}
	.st2{fill:#878787;}
	.st3{fill:#ADADAD;}
	.st4{fill:#CCCCCC;}
	.st5{fill:#595959;}
	.st6{fill:#5B90F0;}
	.st7{fill:#FFFFFF;}
	.st8{fill:#D8800B;}
	.st9{font-family:'PingFang-SC-Bold';}
	.st10{font-size:5.0577px;}
	.st11{fill:#232323;}
	.st12{font-size:4.4255px;}
	.st13{fill:#6B6B6B;}
	.st14{fill:#606060;}
	.st15{fill:none;stroke:#6B6B6B;stroke-width:0.5985;stroke-miterlimit:10;}
	.st16{opacity:0.56;fill:#727272;}
	.st17{opacity:0.56;fill:#878787;}
	.st18{fill:#EFEFEF;}
	.st19{fill:none;}
	.st20{fill:#6D6D6D;}
	.st21{fill:#7C7C7C;}
	.st22{opacity:0.75;fill:#A0A0A0;}
</style>
<rect x="-0.3" y="0" class="st0" width="200" height="300"/>
<g>
	<rect x="18" y="3.6" class="st1" width="164" height="4"/>
	<rect x="30.1" y="7.6" class="st1" width="139.8" height="290.4"/>
	<rect x="110.1" y="28.1" class="st2" width="47.4" height="174.4"/>
	<rect x="100.3" y="209.6" class="st3" width="65.5" height="80"/>
	<rect x="34.1" y="209.6" class="st3" width="65.9" height="80"/>
	<rect x="42.9" y="28.1" class="st2" width="47.4" height="174.4"/>
	<g>
		<rect x="110.1" y="63.8" class="st4" width="47.4" height="3.7"/>
		<rect x="42.9" y="63.8" class="st4" width="47.4" height="3.7"/>
	</g>
	<g>
		<rect x="110.1" y="116.7" class="st4" width="47.4" height="3.7"/>
		<rect x="42.9" y="116.7" class="st4" width="47.4" height="3.7"/>
	</g>
	<g>
		<rect x="110.1" y="169.6" class="st4" width="47.4" height="3.7"/>
		<rect x="42.9" y="169.6" class="st4" width="47.4" height="3.7"/>
	</g>
	<rect x="100" y="16" class="st5" width="0.7" height="189.5"/>
	
		<rect x="99.7" y="140" transform="matrix(3.518259e-11 -1 1 3.518259e-11 -105.9181 305.9187)" class="st5" width="0.7" height="131.7"/>
	
		<rect x="99.7" y="143.7" transform="matrix(2.977003e-11 -1 1 2.977003e-11 -109.6148 309.6154)" class="st5" width="0.7" height="131.7"/>
	<g>
		<rect x="112.7" y="29.8" class="st6" width="7.2" height="33.9"/>
		<circle class="st7" cx="116.2" cy="33.5" r="2.4"/>
		<rect x="113.3" y="61.2" class="st8" width="6" height="0.6"/>
		<rect x="113.3" y="62.3" class="st8" width="6" height="0.6"/>
		<text transform="matrix(1 0 0 1 113.7695 41.4512)"><tspan x="0" y="0" class="st7 st9 st10">工</tspan><tspan x="0" y="5.5" class="st7 st9 st10">作</tspan><tspan x="0" y="10.9" class="st7 st9 st10">事</tspan><tspan x="0" y="16.4" class="st7 st9 st10">项</tspan></text>
	</g>
	<g>
		<rect x="124.5" y="34.1" class="st11" width="6.3" height="29.7"/>
		<circle class="st7" cx="127.7" cy="37.4" r="2"/>
		<rect x="125" y="61.5" class="st8" width="5.3" height="0.5"/>
		<rect x="125" y="62.5" class="st8" width="5.3" height="0.5"/>
		<text transform="matrix(1 0 0 1 125.4688 44.2617)"><tspan x="0" y="0" class="st7 st9 st12">联</tspan><tspan x="0" y="4.8" class="st7 st9 st12">系</tspan><tspan x="0" y="9.6" class="st7 st9 st12">手</tspan><tspan x="0" y="14.3" class="st7 st9 st12">册</tspan></text>
	</g>
	<g>
		<rect x="132.8" y="34.1" class="st11" width="6.3" height="29.7"/>
		<circle class="st7" cx="135.9" cy="37.4" r="2"/>
		<rect x="133.3" y="61.5" class="st8" width="5.3" height="0.5"/>
		<rect x="133.3" y="62.5" class="st8" width="5.3" height="0.5"/>
		<text transform="matrix(1 0 0 1 133.7236 44.2617)"><tspan x="0" y="0" class="st7 st9 st12">角</tspan><tspan x="0" y="4.8" class="st7 st9 st12">色</tspan><tspan x="0" y="9.6" class="st7 st9 st12">手</tspan><tspan x="0" y="14.3" class="st7 st9 st12">册</tspan></text>
	</g>
	<g>
		<rect x="141" y="34.1" class="st11" width="6.3" height="29.7"/>
		<circle class="st7" cx="144.1" cy="37.4" r="2"/>
		<rect x="141.5" y="61.5" class="st8" width="5.3" height="0.5"/>
		<rect x="141.5" y="62.5" class="st8" width="5.3" height="0.5"/>
		<text transform="matrix(1 0 0 1 141.9365 44.2617)"><tspan x="0" y="0" class="st7 st9 st12">角</tspan><tspan x="0" y="4.8" class="st7 st9 st12">色</tspan><tspan x="0" y="9.6" class="st7 st9 st12">手</tspan><tspan x="0" y="14.3" class="st7 st9 st12">册</tspan></text>
	</g>
	<g>
		<rect x="151.1" y="34.1" class="st11" width="6.3" height="29.7"/>
		<circle class="st7" cx="154.2" cy="37.4" r="2"/>
		<rect x="151.6" y="61.5" class="st8" width="5.3" height="0.5"/>
		<rect x="151.6" y="62.5" class="st8" width="5.3" height="0.5"/>
		<text transform="matrix(1 0 0 1 152.0186 44.2617)"><tspan x="0" y="0" class="st7 st9 st12">角</tspan><tspan x="0" y="4.8" class="st7 st9 st12">色</tspan><tspan x="0" y="9.6" class="st7 st9 st12">手</tspan><tspan x="0" y="14.3" class="st7 st9 st12">册</tspan></text>
	</g>
	<g>
		<rect x="66.4" y="34.1" class="st11" width="6.3" height="29.7"/>
		<circle class="st7" cx="69.6" cy="37.4" r="2"/>
		<rect x="66.9" y="61.5" class="st8" width="5.3" height="0.5"/>
		<rect x="66.9" y="62.5" class="st8" width="5.3" height="0.5"/>
		<text transform="matrix(1 0 0 1 67.3291 44.2617)"><tspan x="0" y="0" class="st7 st9 st12">联</tspan><tspan x="0" y="4.8" class="st7 st9 st12">系</tspan><tspan x="0" y="9.6" class="st7 st9 st12">手</tspan><tspan x="0" y="14.3" class="st7 st9 st12">册</tspan></text>
	</g>
	<g>
		<rect x="74.6" y="34.1" class="st11" width="6.3" height="29.7"/>
		<circle class="st7" cx="77.8" cy="37.4" r="2"/>
		<rect x="75.1" y="61.5" class="st8" width="5.3" height="0.5"/>
		<rect x="75.1" y="62.5" class="st8" width="5.3" height="0.5"/>
		<text transform="matrix(1 0 0 1 75.585 44.2617)"><tspan x="0" y="0" class="st7 st9 st12">角</tspan><tspan x="0" y="4.8" class="st7 st9 st12">色</tspan><tspan x="0" y="9.6" class="st7 st9 st12">手</tspan><tspan x="0" y="14.3" class="st7 st9 st12">册</tspan></text>
	</g>
	<g>
		<rect x="82.8" y="34.1" class="st11" width="6.3" height="29.7"/>
		<circle class="st7" cx="86" cy="37.4" r="2"/>
		<rect x="83.3" y="61.5" class="st8" width="5.3" height="0.5"/>
		<rect x="83.3" y="62.5" class="st8" width="5.3" height="0.5"/>
		<text transform="matrix(1 0 0 1 83.7979 44.2617)"><tspan x="0" y="0" class="st7 st9 st12">角</tspan><tspan x="0" y="4.8" class="st7 st9 st12">色</tspan><tspan x="0" y="9.6" class="st7 st9 st12">手</tspan><tspan x="0" y="14.3" class="st7 st9 st12">册</tspan></text>
	</g>
	<g>
		<rect x="67.4" y="86.9" class="st11" width="6.3" height="29.7"/>
		<circle class="st7" cx="70.6" cy="90.1" r="2"/>
		<rect x="67.9" y="114.3" class="st8" width="5.3" height="0.5"/>
		<rect x="67.9" y="115.3" class="st8" width="5.3" height="0.5"/>
		<text transform="matrix(1 0 0 1 68.3379 97.0234)"><tspan x="0" y="0" class="st7 st9 st12">联</tspan><tspan x="0" y="4.8" class="st7 st9 st12">系</tspan><tspan x="0" y="9.6" class="st7 st9 st12">手</tspan><tspan x="0" y="14.3" class="st7 st9 st12">册</tspan></text>
	</g>
	<g>
		<rect x="75.6" y="86.9" class="st11" width="6.3" height="29.7"/>
		<circle class="st7" cx="78.8" cy="90.1" r="2"/>
		<rect x="76.1" y="114.3" class="st8" width="5.3" height="0.5"/>
		<rect x="76.1" y="115.3" class="st8" width="5.3" height="0.5"/>
		<text transform="matrix(1 0 0 1 76.5928 97.0234)"><tspan x="0" y="0" class="st7 st9 st12">角</tspan><tspan x="0" y="4.8" class="st7 st9 st12">色</tspan><tspan x="0" y="9.6" class="st7 st9 st12">手</tspan><tspan x="0" y="14.3" class="st7 st9 st12">册</tspan></text>
	</g>
	<g>
		<rect x="83.8" y="86.9" class="st11" width="6.3" height="29.7"/>
		<circle class="st7" cx="87" cy="90.1" r="2"/>
		<rect x="84.3" y="114.3" class="st8" width="5.3" height="0.5"/>
		<rect x="84.3" y="115.3" class="st8" width="5.3" height="0.5"/>
		<text transform="matrix(1 0 0 1 84.8057 97.0234)"><tspan x="0" y="0" class="st7 st9 st12">角</tspan><tspan x="0" y="4.8" class="st7 st9 st12">色</tspan><tspan x="0" y="9.6" class="st7 st9 st12">手</tspan><tspan x="0" y="14.3" class="st7 st9 st12">册</tspan></text>
	</g>
	<g>
		<rect x="52.1" y="86.9" class="st11" width="6.3" height="29.7"/>
		<circle class="st7" cx="55.2" cy="90.1" r="2"/>
		<rect x="52.6" y="114.3" class="st8" width="5.3" height="0.5"/>
		<rect x="52.6" y="115.3" class="st8" width="5.3" height="0.5"/>
		<text transform="matrix(1 0 0 1 53.0674 97.0234)"><tspan x="0" y="0" class="st7 st9 st12">角</tspan><tspan x="0" y="4.8" class="st7 st9 st12">色</tspan><tspan x="0" y="9.6" class="st7 st9 st12">手</tspan><tspan x="0" y="14.3" class="st7 st9 st12">册</tspan></text>
	</g>
	<g>
		
			<rect x="48.1" y="139.6" transform="matrix(0.9555 0.295 -0.295 0.9555 47.8366 -8.2346)" class="st11" width="6.3" height="29.7"/>
		<circle class="st7" cx="54.6" cy="143.4" r="2"/>
		<rect x="44.8" y="166.5" transform="matrix(0.9555 0.295 -0.295 0.9555 51.2822 -6.5739)" class="st8" width="5.3" height="0.5"/>
		<rect x="44.5" y="167.4" transform="matrix(0.9555 0.295 -0.295 0.9555 51.5524 -6.4436)" class="st8" width="5.3" height="0.5"/>
		<text transform="matrix(0.9555 0.295 -0.295 0.9555 50.5271 149.3446)"><tspan x="0" y="0" class="st7 st9 st12">角</tspan><tspan x="0" y="4.8" class="st7 st9 st12">色</tspan><tspan x="0" y="9.6" class="st7 st9 st12">手</tspan><tspan x="0" y="14.3" class="st7 st9 st12">册</tspan></text>
	</g>
	<g>
		<rect x="60.3" y="86.9" class="st11" width="6.3" height="29.7"/>
		<circle class="st7" cx="63.5" cy="90.1" r="2"/>
		<rect x="60.8" y="114.3" class="st8" width="5.3" height="0.5"/>
		<rect x="60.8" y="115.3" class="st8" width="5.3" height="0.5"/>
		<text transform="matrix(1 0 0 1 61.2813 97.0234)"><tspan x="0" y="0" class="st7 st9 st12">角</tspan><tspan x="0" y="4.8" class="st7 st9 st12">色</tspan><tspan x="0" y="9.6" class="st7 st9 st12">手</tspan><tspan x="0" y="14.3" class="st7 st9 st12">册</tspan></text>
	</g>
	<g>
		<rect x="74.1" y="140" class="st11" width="6.3" height="29.7"/>
		<circle class="st7" cx="77.3" cy="143.2" r="2"/>
		<rect x="74.6" y="167.4" class="st8" width="5.3" height="0.5"/>
		<rect x="74.6" y="168.4" class="st8" width="5.3" height="0.5"/>
		<text transform="matrix(1 0 0 1 75.0586 150.1226)"><tspan x="0" y="0" class="st7 st9 st12">联</tspan><tspan x="0" y="4.8" class="st7 st9 st12">系</tspan><tspan x="0" y="9.6" class="st7 st9 st12">手</tspan><tspan x="0" y="14.3" class="st7 st9 st12">册</tspan></text>
	</g>
	<g>
		<rect x="82.4" y="140" class="st11" width="6.3" height="29.7"/>
		<circle class="st7" cx="85.5" cy="143.2" r="2"/>
		<rect x="82.9" y="167.4" class="st8" width="5.3" height="0.5"/>
		<rect x="82.9" y="168.4" class="st8" width="5.3" height="0.5"/>
		<text transform="matrix(1 0 0 1 83.3145 150.1226)"><tspan x="0" y="0" class="st7 st9 st12">角</tspan><tspan x="0" y="4.8" class="st7 st9 st12">色</tspan><tspan x="0" y="9.6" class="st7 st9 st12">手</tspan><tspan x="0" y="14.3" class="st7 st9 st12">册</tspan></text>
	</g>
	<g>
		<rect x="58.8" y="140" class="st11" width="6.3" height="29.7"/>
		<circle class="st7" cx="62" cy="143.2" r="2"/>
		<rect x="59.3" y="167.4" class="st8" width="5.3" height="0.5"/>
		<rect x="59.3" y="168.4" class="st8" width="5.3" height="0.5"/>
		<text transform="matrix(1 0 0 1 59.7881 150.1226)"><tspan x="0" y="0" class="st7 st9 st12">角</tspan><tspan x="0" y="4.8" class="st7 st9 st12">色</tspan><tspan x="0" y="9.6" class="st7 st9 st12">手</tspan><tspan x="0" y="14.3" class="st7 st9 st12">册</tspan></text>
	</g>
	<g>
		<rect x="67" y="140" class="st11" width="6.3" height="29.7"/>
		<circle class="st7" cx="70.2" cy="143.2" r="2"/>
		<rect x="67.5" y="167.4" class="st8" width="5.3" height="0.5"/>
		<rect x="67.5" y="168.4" class="st8" width="5.3" height="0.5"/>
		<text transform="matrix(1 0 0 1 68.0029 150.1226)"><tspan x="0" y="0" class="st7 st9 st12">角</tspan><tspan x="0" y="4.8" class="st7 st9 st12">色</tspan><tspan x="0" y="9.6" class="st7 st9 st12">手</tspan><tspan x="0" y="14.3" class="st7 st9 st12">册</tspan></text>
	</g>
	<g>
		<rect x="142.4" y="140" class="st11" width="6.3" height="29.7"/>
		<circle class="st7" cx="145.5" cy="143.2" r="2"/>
		<rect x="142.9" y="167.4" class="st8" width="5.3" height="0.5"/>
		<rect x="142.9" y="168.4" class="st8" width="5.3" height="0.5"/>
		<text transform="matrix(1 0 0 1 143.2803 150.1226)"><tspan x="0" y="0" class="st7 st9 st12">联</tspan><tspan x="0" y="4.8" class="st7 st9 st12">系</tspan><tspan x="0" y="9.6" class="st7 st9 st12">手</tspan><tspan x="0" y="14.3" class="st7 st9 st12">册</tspan></text>
	</g>
	<g>
		<rect x="150.6" y="140" class="st11" width="6.3" height="29.7"/>
		<circle class="st7" cx="153.7" cy="143.2" r="2"/>
		<rect x="151.1" y="167.4" class="st8" width="5.3" height="0.5"/>
		<rect x="151.1" y="168.4" class="st8" width="5.3" height="0.5"/>
		<text transform="matrix(1 0 0 1 151.5342 150.1226)"><tspan x="0" y="0" class="st7 st9 st12">角</tspan><tspan x="0" y="4.8" class="st7 st9 st12">色</tspan><tspan x="0" y="9.6" class="st7 st9 st12">手</tspan><tspan x="0" y="14.3" class="st7 st9 st12">册</tspan></text>
	</g>
	<g>
		<rect x="127" y="140" class="st11" width="6.3" height="29.7"/>
		<circle class="st7" cx="130.2" cy="143.2" r="2"/>
		<rect x="127.5" y="167.4" class="st8" width="5.3" height="0.5"/>
		<rect x="127.5" y="168.4" class="st8" width="5.3" height="0.5"/>
		<text transform="matrix(1 0 0 1 128.0098 150.1226)"><tspan x="0" y="0" class="st7 st9 st12">角</tspan><tspan x="0" y="4.8" class="st7 st9 st12">色</tspan><tspan x="0" y="9.6" class="st7 st9 st12">手</tspan><tspan x="0" y="14.3" class="st7 st9 st12">册</tspan></text>
	</g>
	<g>
		<rect x="135.3" y="140" class="st11" width="6.3" height="29.7"/>
		<circle class="st7" cx="138.4" cy="143.2" r="2"/>
		<rect x="135.8" y="167.4" class="st8" width="5.3" height="0.5"/>
		<rect x="135.8" y="168.4" class="st8" width="5.3" height="0.5"/>
		<text transform="matrix(1 0 0 1 136.2236 150.1226)"><tspan x="0" y="0" class="st7 st9 st12">角</tspan><tspan x="0" y="4.8" class="st7 st9 st12">色</tspan><tspan x="0" y="9.6" class="st7 st9 st12">手</tspan><tspan x="0" y="14.3" class="st7 st9 st12">册</tspan></text>
	</g>
	<g>
		<rect x="125.9" y="86.9" class="st11" width="6.3" height="29.7"/>
		<circle class="st7" cx="129" cy="90.1" r="2"/>
		<rect x="126.4" y="114.3" class="st8" width="5.3" height="0.5"/>
		<rect x="126.4" y="115.3" class="st8" width="5.3" height="0.5"/>
		<text transform="matrix(1 0 0 1 126.8125 97.0234)"><tspan x="0" y="0" class="st7 st9 st12">联</tspan><tspan x="0" y="4.8" class="st7 st9 st12">系</tspan><tspan x="0" y="9.6" class="st7 st9 st12">手</tspan><tspan x="0" y="14.3" class="st7 st9 st12">册</tspan></text>
	</g>
	<g>
		<rect x="134.1" y="86.9" class="st11" width="6.3" height="29.7"/>
		<circle class="st7" cx="137.2" cy="90.1" r="2"/>
		<rect x="134.6" y="114.3" class="st8" width="5.3" height="0.5"/>
		<rect x="134.6" y="115.3" class="st8" width="5.3" height="0.5"/>
		<text transform="matrix(1 0 0 1 135.0674 97.0234)"><tspan x="0" y="0" class="st7 st9 st12">角</tspan><tspan x="0" y="4.8" class="st7 st9 st12">色</tspan><tspan x="0" y="9.6" class="st7 st9 st12">手</tspan><tspan x="0" y="14.3" class="st7 st9 st12">册</tspan></text>
	</g>
	<g>
		<rect x="150.9" y="86.9" class="st11" width="6.3" height="29.7"/>
		<circle class="st7" cx="154.1" cy="90.1" r="2"/>
		<rect x="151.4" y="114.3" class="st8" width="5.3" height="0.5"/>
		<rect x="151.4" y="115.3" class="st8" width="5.3" height="0.5"/>
		<text transform="matrix(1 0 0 1 151.8711 97.0234)"><tspan x="0" y="0" class="st7 st9 st12">角</tspan><tspan x="0" y="4.8" class="st7 st9 st12">色</tspan><tspan x="0" y="9.6" class="st7 st9 st12">手</tspan><tspan x="0" y="14.3" class="st7 st9 st12">册</tspan></text>
	</g>
	<g>
		<rect x="110.6" y="86.9" class="st11" width="6.3" height="29.7"/>
		<circle class="st7" cx="113.7" cy="90.1" r="2"/>
		<rect x="111.1" y="114.3" class="st8" width="5.3" height="0.5"/>
		<rect x="111.1" y="115.3" class="st8" width="5.3" height="0.5"/>
		<text transform="matrix(1 0 0 1 111.543 97.0234)"><tspan x="0" y="0" class="st7 st9 st12">角</tspan><tspan x="0" y="4.8" class="st7 st9 st12">色</tspan><tspan x="0" y="9.6" class="st7 st9 st12">手</tspan><tspan x="0" y="14.3" class="st7 st9 st12">册</tspan></text>
	</g>
	<g>
		<rect x="118.8" y="86.9" class="st11" width="6.3" height="29.7"/>
		<circle class="st7" cx="121.9" cy="90.1" r="2"/>
		<rect x="119.3" y="114.3" class="st8" width="5.3" height="0.5"/>
		<rect x="119.3" y="115.3" class="st8" width="5.3" height="0.5"/>
		<text transform="matrix(1 0 0 1 119.7559 97.0234)"><tspan x="0" y="0" class="st7 st9 st12">角</tspan><tspan x="0" y="4.8" class="st7 st9 st12">色</tspan><tspan x="0" y="9.6" class="st7 st9 st12">手</tspan><tspan x="0" y="14.3" class="st7 st9 st12">册</tspan></text>
	</g>
	<g>
		<rect x="42.9" y="34.1" class="st11" width="6.3" height="29.7"/>
		<circle class="st7" cx="46" cy="37.4" r="2"/>
		<rect x="43.4" y="61.5" class="st8" width="5.3" height="0.5"/>
		<rect x="43.4" y="62.5" class="st8" width="5.3" height="0.5"/>
		<text transform="matrix(1 0 0 1 43.8047 44.2617)"><tspan x="0" y="0" class="st7 st9 st12">联</tspan><tspan x="0" y="4.8" class="st7 st9 st12">系</tspan><tspan x="0" y="9.6" class="st7 st9 st12">手</tspan><tspan x="0" y="14.3" class="st7 st9 st12">册</tspan></text>
	</g>
	<ellipse class="st13" cx="105.7" cy="135.8" rx="2" ry="7.6"/>
	<path class="st14" d="M105.5,128.3c0,0,1.5,14.1,0.2,15.1C103.4,143.1,102.7,130,105.5,128.3z"/>
	<ellipse class="st13" cx="95" cy="135.8" rx="2" ry="7.6"/>
	<path class="st14" d="M94.8,128.3c0,0,1.5,14.1,0.2,15.1C92.6,143.1,91.9,130,94.8,128.3z"/>
	<ellipse class="st13" cx="105.7" cy="246.1" rx="2" ry="7.6"/>
	<path class="st14" d="M105.5,238.5c0,0,1.5,14.1,0.2,15.1C103.4,253.3,102.7,240.2,105.5,238.5z"/>
	<ellipse class="st13" cx="95" cy="246.1" rx="2" ry="7.6"/>
	<path class="st14" d="M94.8,238.5c0,0,1.5,14.1,0.2,15.1C92.6,253.3,91.9,240.2,94.8,238.5z"/>
	<rect x="100" y="209.6" class="st5" width="0.7" height="80"/>
	<rect x="34.1" y="16" class="st15" width="131.7" height="273.6"/>
	<g>
		<polygon class="st16" points="110.1,28.2 157.3,28.2 110.1,70.6 		"/>
		<polygon class="st17" points="157.5,28.2 157.5,32.4 157.4,28.2 		"/>
		<polygon class="st16" points="110.4,122.5 110.4,133.7 157.5,86.3 157.5,202.6 110.1,202.6 110.1,76.5 110.1,79 157.5,43.1 
			157.5,66.3 		"/>
		<polygon class="st18" points="157.8,65.9 157.8,86 157.5,86.3 157.5,66.3 		"/>
		<polygon class="st18" points="157.4,28.1 157.4,28.2 157.3,28.2 		"/>
	</g>
	<g>
		<polygon class="st19" points="89.9,94.7 42.9,142.1 42.9,130.8 89.9,74.6 		"/>
		<polygon class="st16" points="42.9,28.1 74.6,28.1 42.9,53.7 		"/>
		<polygon class="st16" points="42.9,142.1 89.9,94.7 89.9,74.6 42.9,130.8 42.9,57.4 81.4,28.1 90.3,28.1 90.3,134.8 42.9,191.3 		
			"/>
		<polygon class="st16" points="42.9,202.6 90.3,154.8 90.3,202.6 		"/>
	</g>
	<rect x="75.6" y="8.3" class="st20" width="49.8" height="14.6"/>
	<rect x="76.9" y="10.2" class="st21" width="47.2" height="11"/>
	<rect x="30.1" y="7.6" class="st22" width="139.8" height="2"/>
</g>
</svg>
