<?xml version="1.0" encoding="utf-8"?>
<!-- Generator: Adobe Illustrator 22.0.0, SVG Export Plug-In . SVG Version: 6.00 Build 0)  -->
<svg version="1.1" id="图层_1" xmlns="http://www.w3.org/2000/svg" xmlns:xlink="http://www.w3.org/1999/xlink" x="0px" y="0px"
	 viewBox="0 0 300 200" style="enable-background:new 0 0 300 200;" xml:space="preserve">
<style type="text/css">
	.st0{opacity:0;fill:#FFFFFF;}
	.st1{fill:#5B90F0;}
	.st2{fill:#FFFFFF;}
	.st3{fill:#D8800B;}
	.st4{font-family:'PingFang-SC-Bold';}
	.st5{font-size:16.4032px;}
	.st6{fill:#232323;}
	.st7{font-size:16.1729px;}
	.st8{fill:#8BCAA7;}
	.st9{fill:#71B789;}
	.st10{fill:#C7CCCA;}
	.st11{fill:#859DA3;}
	.st12{fill:#E8463F;}
	.st13{fill:#F5A937;}
	.st14{fill:#F9D3BA;}
	.st15{fill:#969696;}
</style>
<rect x="-0.3" y="0" class="st0" width="300" height="200"/>
<g>
	<rect x="59.7" y="55.9" class="st1" width="23.3" height="110.1"/>
	<circle class="st2" cx="71.1" cy="67.8" r="7.7"/>
	<rect x="61.6" y="157.6" class="st3" width="19.6" height="1.9"/>
	<rect x="61.6" y="161.3" class="st3" width="19.6" height="1.9"/>
	<text transform="matrix(1 0 0 1 63.1686 93.6274)"><tspan x="0" y="0" class="st2 st4 st5">工</tspan><tspan x="0" y="17.7" class="st2 st4 st5">作</tspan><tspan x="0" y="35.5" class="st2 st4 st5">事</tspan><tspan x="0" y="53.2" class="st2 st4 st5">项</tspan></text>
</g>
<g>
	<rect x="129.8" y="55.6" class="st6" width="23" height="108.4"/>
	<circle class="st2" cx="141.2" cy="67.5" r="7.4"/>
	<rect x="131.6" y="155.7" class="st3" width="19.3" height="1.8"/>
	<rect x="131.6" y="159.4" class="st3" width="19.3" height="1.8"/>
	<text transform="matrix(1 0 0 1 133.1188 92.7021)"><tspan x="0" y="0" class="st2 st4 st7">联</tspan><tspan x="0" y="17.5" class="st2 st4 st7">系</tspan><tspan x="0" y="34.9" class="st2 st4 st7">手</tspan><tspan x="0" y="52.4" class="st2 st4 st7">册</tspan></text>
</g>
<g>
	<rect x="159.8" y="55.6" class="st6" width="23" height="108.4"/>
	<circle class="st2" cx="171.3" cy="67.5" r="7.4"/>
	<rect x="161.6" y="155.7" class="st3" width="19.3" height="1.8"/>
	<rect x="161.6" y="159.4" class="st3" width="19.3" height="1.8"/>
	<text transform="matrix(1 0 0 1 163.2878 92.7021)"><tspan x="0" y="0" class="st2 st4 st7">角</tspan><tspan x="0" y="17.5" class="st2 st4 st7">色</tspan><tspan x="0" y="34.9" class="st2 st4 st7">手</tspan><tspan x="0" y="52.4" class="st2 st4 st7">册</tspan></text>
</g>
<g>
	<rect x="189.8" y="55.6" class="st6" width="23" height="108.4"/>
	<circle class="st2" cx="201.3" cy="67.5" r="7.4"/>
	<rect x="191.6" y="155.7" class="st3" width="19.3" height="1.8"/>
	<rect x="191.6" y="159.4" class="st3" width="19.3" height="1.8"/>
	<text transform="matrix(1 0 0 1 193.3019 92.7021)"><tspan x="0" y="0" class="st2 st4 st7">角</tspan><tspan x="0" y="17.5" class="st2 st4 st7">色</tspan><tspan x="0" y="34.9" class="st2 st4 st7">手</tspan><tspan x="0" y="52.4" class="st2 st4 st7">册</tspan></text>
</g>
<g>
	<g>
		<path class="st8" d="M262.3,112.5c17,8.6,13.2,25,11.2,30.7l0,0C266.9,141,253.9,129.6,262.3,112.5"/>
		<path class="st8" d="M284.7,112.5c-17,8.6-13.2,25-11.2,30.7l0,0C280.1,141,293.1,129.6,284.7,112.5"/>
		<path class="st9" d="M273.5,110.5c-13.3,13.6-4.6,28-0.8,32.7l0,0C278.3,139,286.9,124,273.5,110.5"/>
	</g>
	<path class="st10" d="M287.9,135.9h-28.6v14.3c0.3,7.6,6.6,13.7,14.3,13.7c7.7,0,14-6.1,14.3-13.7L287.9,135.9z"/>
	<path class="st11" d="M263.6,150.3v-14.3h-4.3v14.3c0.3,7.6,6.6,13.7,14.3,13.7c0.7,0,1.4-0.1,2.2-0.2
		C269.1,162.8,263.9,157.2,263.6,150.3z"/>
</g>
<g>
	<g id="book_30_">
		<rect x="6.1" y="68.4" class="st12" width="15.9" height="96.4"/>
		<g>
			<rect x="6.1" y="76.1" class="st2" width="15.9" height="3.1"/>
			<rect x="6.1" y="81.8" class="st2" width="15.9" height="3.1"/>
			<rect x="6.1" y="147.7" class="st2" width="15.9" height="3.1"/>
			<rect x="6.1" y="153.4" class="st2" width="15.9" height="3.1"/>
		</g>
	</g>
	<g id="book_29_">
		<rect x="28.7" y="68.4" class="st13" width="27.2" height="96.3"/>
		<g>
			<rect x="28.7" y="160.1" class="st14" width="27.2" height="2.8"/>
		</g>
		<g>
			<rect x="28.7" y="72.6" class="st14" width="27.2" height="2.8"/>
		</g>
	</g>
	<text transform="matrix(1 0 0 1 34.0925 92.4043)"><tspan x="0" y="0" class="st2 st4 st5">常</tspan><tspan x="0" y="19.7" class="st2 st4 st5">用</tspan><tspan x="0" y="39.4" class="st2 st4 st5">模</tspan><tspan x="0" y="59.1" class="st2 st4 st5">板</tspan></text>
</g>
<path class="st15" d="M290.3,174.9H8.3c-3,0-5.5-2.5-5.5-5.5l0,0c0-3,2.5-5.5,5.5-5.5h282c3,0,5.5,2.5,5.5,5.5l0,0
	C295.8,172.4,293.3,174.9,290.3,174.9z"/>
</svg>
